<svg width="37" height="37" viewBox="0 0 37 37" fill="none" xmlns="http://www.w3.org/2000/svg">
<path d="M33.5911 9.36683C32.5052 9.83528 31.3234 10.1724 30.1062 10.3037C31.37 9.55292 32.3164 8.36676 32.7678 6.96781C31.5819 7.67328 30.2827 8.16797 28.928 8.42994C28.3617 7.82459 27.6769 7.34235 26.9161 7.01326C26.1554 6.68417 25.335 6.51527 24.5061 6.5171C21.1524 6.5171 18.4553 9.23552 18.4553 12.5714C18.4553 13.0399 18.5121 13.5083 18.6043 13.959C13.5827 13.6964 9.10407 11.2974 6.12659 7.62435C5.58406 8.55101 5.29975 9.60612 5.30325 10.6799C5.30325 12.7808 6.37146 14.6333 8.00038 15.7228C7.04043 15.685 6.10296 15.4212 5.26422 14.9527V15.0272C5.26422 17.9692 7.34384 20.4073 10.1155 20.968C9.59509 21.1032 9.05974 21.1724 8.52206 21.1739C8.12814 21.1739 7.75551 21.1348 7.37933 21.0816C8.14588 23.4806 10.3781 25.2231 13.0362 25.2799C10.9566 26.9088 8.35172 27.867 5.52328 27.867C5.0158 27.867 4.54735 27.8492 4.06116 27.7925C6.74409 29.5137 9.92741 30.5073 13.3556 30.5073C24.4848 30.5073 30.5746 21.2874 30.5746 13.2848C30.5746 13.0221 30.5746 12.7595 30.5569 12.4969C31.7351 11.6345 32.7678 10.5663 33.5911 9.36683Z" fill="white"/>
</svg>
