<svg width="40" height="41" viewBox="0 0 40 41" fill="none" xmlns="http://www.w3.org/2000/svg">
<path d="M34.3988 4.72314H5.75795C5.06917 4.72314 4.5127 5.27962 4.5127 5.9684V34.6092C4.5127 35.298 5.06917 35.8545 5.75795 35.8545H34.3988C35.0875 35.8545 35.644 35.298 35.644 34.6092V5.9684C35.644 5.27962 35.0875 4.72314 34.3988 4.72314ZM30.8031 13.8096H28.3165C26.3669 13.8096 25.9894 14.7358 25.9894 16.0977V19.098H30.6435L30.0365 23.795H25.9894V35.8545H21.1368V23.7989H17.0781V19.098H21.1368V15.6347C21.1368 11.6148 23.5923 9.42397 27.1802 9.42397C28.9002 9.42397 30.375 9.55239 30.807 9.61076V13.8096H30.8031Z" fill="white"/>
</svg>
