<svg width="41" height="40" viewBox="0 0 41 40" fill="none" xmlns="http://www.w3.org/2000/svg">
<path d="M34.5037 4.4729H5.86293C5.17415 4.4729 4.61768 5.02937 4.61768 5.71815V34.359C4.61768 35.0477 5.17415 35.6042 5.86293 35.6042H34.5037C35.1925 35.6042 35.749 35.0477 35.749 34.359V5.71815C35.749 5.02937 35.1925 4.4729 34.5037 4.4729ZM13.852 31.0007H9.23289V16.1433H13.852V31.0007ZM11.5444 14.1119C11.0149 14.1119 10.4972 13.9549 10.057 13.6607C9.61669 13.3665 9.27353 12.9484 9.0709 12.4592C8.86826 11.97 8.81524 11.4317 8.91854 10.9123C9.02185 10.393 9.27683 9.91593 9.65126 9.54151C10.0257 9.16708 10.5027 8.91209 11.0221 8.80879C11.5414 8.70549 12.0797 8.75851 12.5689 8.96114C13.0582 9.16378 13.4763 9.50694 13.7705 9.94722C14.0647 10.3875 14.2217 10.9051 14.2217 11.4346C14.2178 12.9134 13.0192 14.1119 11.5444 14.1119ZM31.1454 31.0007H26.5302V23.7743C26.5302 22.0504 26.4991 19.8362 24.1292 19.8362C21.7282 19.8362 21.3585 21.7119 21.3585 23.6498V31.0007H16.7472V16.1433H21.1756V18.1746H21.2379C21.8527 17.0071 23.3587 15.7736 25.608 15.7736C30.2854 15.7736 31.1454 18.8517 31.1454 22.852V31.0007Z" fill="#2091F9"/>
</svg>
