<svg width="41" height="41" viewBox="0 0 41 41" fill="none" xmlns="http://www.w3.org/2000/svg">
<path d="M37.0853 10.2606C35.8945 10.7742 34.5987 11.1439 33.2639 11.2879C34.6497 10.4646 35.6875 9.16396 36.1825 7.62997C34.8821 8.40354 33.4575 8.94598 31.972 9.23323C31.3511 8.56946 30.6001 8.04067 29.7659 7.67981C28.9317 7.31895 28.0322 7.13375 27.1233 7.13576C23.4459 7.13576 20.4884 10.1166 20.4884 13.7745C20.4884 14.2882 20.5507 14.8018 20.6518 15.2961C15.1455 15.0081 10.2345 12.3775 6.96964 8.34988C6.37474 9.36599 6.06299 10.5229 6.06683 11.7004C6.06683 14.0041 7.23814 16.0354 9.0243 17.2301C7.97169 17.1886 6.94373 16.8993 6.02402 16.3857V16.4674C6.02402 19.6934 8.30439 22.3668 11.3436 22.9816C10.7729 23.1298 10.1859 23.2057 9.59634 23.2073C9.16439 23.2073 8.7558 23.1645 8.34331 23.1061C9.18385 25.7367 11.6315 27.6474 14.5462 27.7097C12.2659 29.4958 9.40955 30.5465 6.3081 30.5465C5.75162 30.5465 5.23796 30.5271 4.70483 30.4648C7.64674 32.3521 11.1373 33.4417 14.8964 33.4417C27.0999 33.4417 33.7776 23.3318 33.7776 14.5567C33.7776 14.2687 33.7776 13.9808 33.7581 13.6928C35.0501 12.7472 36.1825 11.5759 37.0853 10.2606Z" fill="white"/>
</svg>
