<svg width="37" height="37" viewBox="0 0 37 37" fill="none" xmlns="http://www.w3.org/2000/svg">
<path d="M31.5073 4.31665H5.38771C4.75956 4.31665 4.25208 4.82414 4.25208 5.45228V31.5718C4.25208 32.2 4.75956 32.7075 5.38771 32.7075H31.5073C32.1354 32.7075 32.6429 32.2 32.6429 31.5718V5.45228C32.6429 4.82414 32.1354 4.31665 31.5073 4.31665ZM28.2281 12.6032H25.9604C24.1824 12.6032 23.8382 13.4478 23.8382 14.6899V17.4261H28.0826L27.529 21.7096H23.8382V32.7075H19.4128V21.7131H15.7113V17.4261H19.4128V14.2676C19.4128 10.6017 21.6521 8.60366 24.9241 8.60366C26.4927 8.60366 27.8377 8.72078 28.2317 8.77401V12.6032H28.2281Z" fill="white"/>
</svg>
