<svg width="41" height="40" viewBox="0 0 41 40" fill="none" xmlns="http://www.w3.org/2000/svg">
<path d="M37.0076 10.0103C35.8169 10.524 34.521 10.8937 33.1863 11.0377C34.5721 10.2144 35.6098 8.91372 36.1048 7.37972C34.8045 8.15329 33.3799 8.69574 31.8943 8.98299C31.2734 8.31921 30.5225 7.79042 29.6883 7.42956C28.8541 7.0687 27.9545 6.88351 27.0456 6.88551C23.3682 6.88551 20.4108 9.86634 20.4108 13.5243C20.4108 14.0379 20.473 14.5516 20.5742 15.0458C15.0679 14.7578 10.1569 12.1272 6.892 8.09964C6.2971 9.11574 5.98535 10.2727 5.98919 11.4501C5.98919 13.7539 7.16051 15.7852 8.94667 16.9798C7.89406 16.9384 6.86609 16.6491 5.94639 16.1354V16.2171C5.94639 19.4431 8.22676 22.1165 11.2659 22.7314C10.6953 22.8796 10.1083 22.9554 9.5187 22.9571C9.08676 22.9571 8.67816 22.9142 8.26567 22.8559C9.10621 25.4865 11.5539 27.3972 14.4686 27.4594C12.1882 29.2456 9.33192 30.2963 6.23046 30.2963C5.67399 30.2963 5.16032 30.2768 4.6272 30.2145C7.56911 32.1019 11.0597 33.1915 14.8188 33.1915C27.0223 33.1915 33.6999 23.0816 33.6999 14.3064C33.6999 14.0185 33.6999 13.7305 33.6805 13.4425C34.9724 12.4969 36.1048 11.3256 37.0076 10.0103Z" fill="#2091F9"/>
</svg>
