<svg width="40" height="40" viewBox="0 0 40 40" fill="none" xmlns="http://www.w3.org/2000/svg">
<path d="M34.3211 4.4729H5.68031C4.99153 4.4729 4.43506 5.02937 4.43506 5.71815V34.359C4.43506 35.0477 4.99153 35.6042 5.68031 35.6042H34.3211C35.0099 35.6042 35.5664 35.0477 35.5664 34.359V5.71815C35.5664 5.02937 35.0099 4.4729 34.3211 4.4729ZM30.7255 13.5594H28.2388C26.2892 13.5594 25.9118 14.4855 25.9118 15.8475V18.8478H30.5659L29.9588 23.5447H25.9118V35.6042H21.0592V23.5486H17.0004V18.8478H21.0592V15.3844C21.0592 11.3646 23.5147 9.17373 27.1025 9.17373C28.8225 9.17373 30.2974 9.30215 30.7293 9.36052V13.5594H30.7255Z" fill="#2091F9"/>
</svg>
