<svg width="41" height="41" viewBox="0 0 41 41" fill="none" xmlns="http://www.w3.org/2000/svg">
<path d="M34.5814 4.72314H5.94056C5.25178 4.72314 4.69531 5.27962 4.69531 5.9684V34.6092C4.69531 35.298 5.25178 35.8545 5.94056 35.8545H34.5814C35.2702 35.8545 35.8266 35.298 35.8266 34.6092V5.9684C35.8266 5.27962 35.2702 4.72314 34.5814 4.72314ZM13.9296 31.2509H9.31053V16.3935H13.9296V31.2509ZM11.622 14.3622C11.0925 14.3622 10.5749 14.2052 10.1346 13.911C9.69433 13.6168 9.35117 13.1987 9.14853 12.7094C8.9459 12.2202 8.89288 11.6819 8.99618 11.1626C9.09948 10.6432 9.35447 10.1662 9.7289 9.79175C10.1033 9.41733 10.5804 9.16234 11.0997 9.05903C11.6191 8.95573 12.1574 9.00875 12.6466 9.21139C13.1358 9.41403 13.5539 9.75718 13.8481 10.1975C14.1423 10.6377 14.2993 11.1554 14.2993 11.6849C14.2954 13.1636 13.0969 14.3622 11.622 14.3622ZM31.2231 31.2509H26.6079V24.0246C26.6079 22.3007 26.5767 20.0864 24.2069 20.0864C21.8059 20.0864 21.4362 21.9621 21.4362 23.9V31.2509H16.8249V16.3935H21.2533V18.4248H21.3155C21.9304 17.2574 23.4364 16.0238 25.6856 16.0238C30.3631 16.0238 31.2231 19.1019 31.2231 23.1023V31.2509Z" fill="white"/>
</svg>
