<svg width="38" height="37" viewBox="0 0 38 37" fill="none" xmlns="http://www.w3.org/2000/svg">
<path d="M32.1279 4.31665H6.00831C5.38017 4.31665 4.87268 4.82414 4.87268 5.45228V31.5718C4.87268 32.2 5.38017 32.7075 6.00831 32.7075H32.1279C32.756 32.7075 33.2635 32.2 33.2635 31.5718V5.45228C33.2635 4.82414 32.756 4.31665 32.1279 4.31665ZM13.2941 28.5092H9.08162V14.9597H13.2941V28.5092ZM11.1896 13.1072C10.7067 13.1072 10.2347 12.964 9.83315 12.6957C9.43163 12.4274 9.11868 12.0461 8.93388 11.5999C8.74908 11.1538 8.70073 10.6628 8.79494 10.1892C8.88915 9.71558 9.12169 9.28053 9.46316 8.93907C9.80462 8.5976 10.2397 8.36506 10.7133 8.27085C11.1869 8.17664 11.6779 8.22499 12.124 8.40979C12.5701 8.59459 12.9515 8.90754 13.2198 9.30906C13.488 9.71058 13.6312 10.1826 13.6312 10.6655C13.6277 12.0141 12.5347 13.1072 11.1896 13.1072ZM29.0652 28.5092H24.8563V21.919C24.8563 20.3468 24.8279 18.3275 22.6666 18.3275C20.477 18.3275 20.1398 20.0381 20.1398 21.8054V28.5092H15.9345V14.9597H19.973V16.8122H20.0298C20.5905 15.7475 21.9639 14.6225 24.0152 14.6225C28.2809 14.6225 29.0652 17.4297 29.0652 21.0779V28.5092Z" fill="white"/>
</svg>
