<svg width="27" height="23" viewBox="0 0 27 23" fill="none" xmlns="http://www.w3.org/2000/svg">
<g clip-path="url(#clip0_4_6729)">
<path d="M25.0122 1.58887H1.31429C0.81014 1.58887 0.402832 1.99618 0.402832 2.50033V20.7295C0.402832 21.2336 0.81014 21.641 1.31429 21.641H25.0122C25.5164 21.641 25.9237 21.2336 25.9237 20.7295V2.50033C25.9237 1.99618 25.5164 1.58887 25.0122 1.58887ZM23.8729 4.74479V19.5902H2.45361V4.74479L1.66748 4.13241L2.78687 2.69401L4.00594 3.6425H22.3234L23.5425 2.69401L24.6619 4.13241L23.8729 4.74479ZM22.3234 3.63965L13.1632 10.7604L4.00309 3.63965L2.78402 2.69116L1.66463 4.12956L2.45076 4.74194L12.1806 12.307C12.4604 12.5244 12.8046 12.6424 13.159 12.6424C13.5133 12.6424 13.8576 12.5244 14.1374 12.307L23.8729 4.74479L24.659 4.13241L23.5396 2.69401L22.3234 3.63965Z" fill="#2091F9"/>
</g>
<defs>
<clipPath id="clip0_4_6729">
<rect width="26.25" height="21.3889" fill="white" transform="translate(0.402832 0.92041)"/>
</clipPath>
</defs>
</svg>
