<svg width="27" height="32" viewBox="0 0 27 32" fill="none" xmlns="http://www.w3.org/2000/svg">
<g clip-path="url(#clip0_4_6717)">
<path d="M13.4721 19.1935C16.8679 19.1935 19.6295 16.4319 19.6295 13.0361C19.6295 9.64026 16.8679 6.87866 13.4721 6.87866C10.0763 6.87866 7.3147 9.64026 7.3147 13.0361C7.3147 16.4319 10.0763 19.1935 13.4721 19.1935ZM13.4721 9.95737C15.17 9.95737 16.5508 11.3382 16.5508 13.0361C16.5508 14.734 15.17 16.1148 13.4721 16.1148C11.7742 16.1148 10.3934 14.734 10.3934 13.0361C10.3934 11.3382 11.7742 9.95737 13.4721 9.95737Z" fill="#2091F9"/>
<path d="M12.2556 31.2224C12.5162 31.4084 12.8283 31.5085 13.1484 31.5085C13.4686 31.5085 13.7807 31.4084 14.0413 31.2224C14.5092 30.8914 25.5079 22.9499 25.4633 13.0365C25.4633 6.24641 19.9385 0.72168 13.1484 0.72168C6.35837 0.72168 0.833632 6.24641 0.833632 13.0288C0.78899 22.9499 11.7877 30.8914 12.2556 31.2224ZM13.1484 3.80038C18.2422 3.80038 22.3846 7.94278 22.3846 13.0442C22.4169 19.8758 15.6299 26.0102 13.1484 28.0221C10.6686 26.0086 3.88001 19.8728 3.91234 13.0365C3.91234 7.94278 8.05473 3.80038 13.1484 3.80038Z" fill="#2091F9"/>
</g>
<defs>
<clipPath id="clip0_4_6717">
<rect width="25.2778" height="31.1111" fill="white" transform="translate(0.833252 0.559326)"/>
</clipPath>
</defs>
</svg>
