<svg width="42" height="42" viewBox="0 0 42 42" fill="none" xmlns="http://www.w3.org/2000/svg">
<path d="M21.0497 24.1498C24.7986 24.1498 27.8473 21.1011 27.8473 17.3522C27.8473 13.6034 24.7986 10.5547 21.0497 10.5547C17.3009 10.5547 14.2522 13.6034 14.2522 17.3522C14.2522 21.1011 17.3009 24.1498 21.0497 24.1498ZM21.0497 13.9535C22.9242 13.9535 24.4485 15.4778 24.4485 17.3522C24.4485 19.2267 22.9242 20.751 21.0497 20.751C19.1753 20.751 17.651 19.2267 17.651 17.3522C17.651 15.4778 19.1753 13.9535 21.0497 13.9535Z" fill="black"/>
<path d="M20.0641 37.4287C20.3518 37.6341 20.6964 37.7446 21.0498 37.7446C21.4032 37.7446 21.7478 37.6341 22.0354 37.4287C22.552 37.0634 34.6942 28.2962 34.6449 17.3522C34.6449 9.85618 28.5458 3.75708 21.0498 3.75708C13.5538 3.75708 7.45468 9.85618 7.45468 17.3437C7.4054 28.2962 19.5475 37.0634 20.0641 37.4287ZM21.0498 7.15586C26.6731 7.15586 31.2461 11.7289 31.2461 17.3607C31.2818 24.9026 23.7892 31.6746 21.0498 33.8957C18.3121 31.6729 10.8178 24.8992 10.8535 17.3522C10.8535 11.7289 15.4265 7.15586 21.0498 7.15586Z" fill="white"/>
</svg>
