<svg width="29" height="29" viewBox="0 0 29 29" fill="none" xmlns="http://www.w3.org/2000/svg">
<path d="M26.3513 11.0834C26.277 10.8644 26.1401 10.672 25.9577 10.5299C25.7752 10.3878 25.5551 10.3022 25.3246 10.2838L18.5811 9.74793L15.6629 3.28827C15.57 3.08022 15.4188 2.90351 15.2277 2.77947C15.0365 2.65543 14.8136 2.58936 14.5857 2.58923C14.3578 2.58911 14.1348 2.65493 13.9435 2.77876C13.7522 2.90259 13.6009 3.07914 13.5077 3.28709L10.5896 9.74793L3.84605 10.2838C3.61947 10.3017 3.40287 10.3846 3.22215 10.5224C3.04142 10.6602 2.90424 10.8472 2.827 11.0609C2.74975 11.2747 2.73573 11.5062 2.7866 11.7277C2.83747 11.9492 2.95109 12.1514 3.11385 12.31L8.09728 17.1681L6.33481 24.8C6.28129 25.031 6.29844 25.2727 6.38404 25.4939C6.46963 25.715 6.61972 25.9053 6.81482 26.0401C7.00992 26.1749 7.24102 26.2479 7.47815 26.2497C7.71527 26.2515 7.94747 26.182 8.1446 26.0502L14.5853 21.7564L21.0261 26.0502C21.2275 26.184 21.4652 26.2529 21.707 26.2476C21.9487 26.2423 22.1831 26.1631 22.3785 26.0206C22.574 25.8781 22.7211 25.6792 22.8001 25.4506C22.8791 25.222 22.8862 24.9747 22.8205 24.742L20.657 17.1716L26.0225 12.3431C26.3738 12.0261 26.5027 11.5317 26.3513 11.0834Z" fill="#F3CD03"/>
</svg>
