<svg width="30" height="29" viewBox="0 0 30 29" fill="none" xmlns="http://www.w3.org/2000/svg">
<path d="M26.7392 11.0834C26.6648 10.8644 26.528 10.672 26.3455 10.5299C26.163 10.3878 25.943 10.3022 25.7124 10.2838L18.9689 9.74793L16.0507 3.28827C15.9578 3.08022 15.8066 2.90351 15.6155 2.77947C15.4244 2.65543 15.2014 2.58936 14.9735 2.58923C14.7457 2.58911 14.5226 2.65493 14.3313 2.77876C14.1401 2.90259 13.9887 3.07914 13.8955 3.28709L10.9774 9.74793L4.23386 10.2838C4.00729 10.3017 3.79069 10.3846 3.60996 10.5224C3.42924 10.6602 3.29205 10.8472 3.21481 11.0609C3.13757 11.2747 3.12355 11.5062 3.17442 11.7277C3.22529 11.9492 3.33891 12.1514 3.50167 12.31L8.4851 17.1681L6.72262 24.8C6.66911 25.031 6.68626 25.2727 6.77185 25.4939C6.85745 25.715 7.00753 25.9053 7.20263 26.0401C7.39773 26.1749 7.62884 26.2479 7.86597 26.2497C8.10309 26.2515 8.33528 26.182 8.53241 26.0502L14.9731 21.7564L21.4139 26.0502C21.6154 26.184 21.853 26.2529 22.0948 26.2476C22.3366 26.2423 22.5709 26.1631 22.7664 26.0206C22.9618 25.8781 23.1089 25.6792 23.1879 25.4506C23.2669 25.222 23.274 24.9747 23.2083 24.742L21.0448 17.1716L26.4103 12.3431C26.7616 12.0261 26.8906 11.5317 26.7392 11.0834Z" fill="#F3CD03"/>
</svg>
