<svg width="29" height="29" viewBox="0 0 29 29" fill="none" xmlns="http://www.w3.org/2000/svg">
<path d="M25.9617 11.0834C25.8873 10.8644 25.7505 10.672 25.568 10.5299C25.3856 10.3878 25.1655 10.3022 24.935 10.2838L18.1914 9.74793L15.2733 3.28827C15.1803 3.08022 15.0292 2.90351 14.838 2.77947C14.6469 2.65543 14.4239 2.58936 14.1961 2.58923C13.9682 2.58911 13.7452 2.65493 13.5539 2.77876C13.3626 2.90259 13.2112 3.07914 13.1181 3.28709L10.1999 9.74793L3.4564 10.2838C3.22983 10.3017 3.01322 10.3846 2.8325 10.5224C2.65178 10.6602 2.51459 10.8472 2.43735 11.0609C2.36011 11.2747 2.34608 11.5062 2.39695 11.7277C2.44783 11.9492 2.56144 12.1514 2.7242 12.31L7.70763 17.1681L5.94516 24.8C5.89164 25.031 5.90879 25.2727 5.99439 25.4939C6.07998 25.715 6.23007 25.9053 6.42517 26.0401C6.62027 26.1749 6.85138 26.2479 7.0885 26.2497C7.32562 26.2515 7.55782 26.182 7.75495 26.0502L14.1957 21.7564L20.6364 26.0502C20.8379 26.184 21.0755 26.2529 21.3173 26.2476C21.5591 26.2423 21.7935 26.1631 21.9889 26.0206C22.1843 25.8781 22.3314 25.6792 22.4104 25.4506C22.4894 25.222 22.4966 24.9747 22.4308 24.742L20.2673 17.1716L25.6329 12.3431C25.9842 12.0261 26.1131 11.5317 25.9617 11.0834Z" fill="#F3CD03"/>
</svg>
