<svg width="29" height="29" viewBox="0 0 29 29" fill="none" xmlns="http://www.w3.org/2000/svg">
<path d="M8.26375 17.1682L6.50127 24.8001C6.4467 25.0312 6.46308 25.2734 6.54828 25.495C6.63349 25.7167 6.78355 25.9074 6.97888 26.0425C7.1742 26.1775 7.40571 26.2505 7.64316 26.2519C7.88061 26.2533 8.11296 26.1831 8.30988 26.0504L14.7506 21.7566L21.1913 26.0504C21.3928 26.1842 21.6304 26.253 21.8722 26.2477C22.114 26.2424 22.3484 26.1632 22.5438 26.0207C22.7393 25.8782 22.8864 25.6793 22.9654 25.4508C23.0444 25.2222 23.0515 24.9749 22.9858 24.7421L20.8223 17.1718L26.1878 12.3433C26.3596 12.1886 26.4823 11.9868 26.5408 11.7631C26.5992 11.5394 26.5908 11.3034 26.5165 11.0844C26.4422 10.8654 26.3054 10.673 26.123 10.5309C25.9405 10.3889 25.7204 10.3034 25.4899 10.2851L18.7463 9.74807L15.8282 3.28841C15.7352 3.08041 15.5839 2.90378 15.3927 2.77985C15.2015 2.65591 14.9785 2.58997 14.7506 2.58997C14.5227 2.58997 14.2997 2.65591 14.1085 2.77985C13.9173 2.90378 13.7661 3.08041 13.673 3.28841L10.7549 9.74807L4.01133 10.2839C3.78476 10.3019 3.56815 10.3847 3.38743 10.5225C3.20671 10.6604 3.06952 10.8473 2.99228 11.0611C2.91504 11.2748 2.90101 11.5063 2.95189 11.7278C3.00276 11.9494 3.11637 12.1515 3.27913 12.3102L8.26375 17.1682ZM11.6385 12.0511C11.8496 12.0345 12.0524 11.9614 12.2255 11.8394C12.3987 11.7174 12.5358 11.5511 12.6226 11.358L14.7506 6.64895L16.8786 11.358C16.9654 11.5511 17.1025 11.7174 17.2757 11.8394C17.4488 11.9614 17.6516 12.0345 17.8627 12.0511L22.5611 12.4237L18.6919 15.9061C18.356 16.2089 18.2223 16.675 18.3454 17.1103L19.8275 22.2971L15.4083 19.3506C15.2143 19.2204 14.986 19.1509 14.7524 19.1509C14.5188 19.1509 14.2905 19.2204 14.0965 19.3506L9.47856 22.4296L10.7206 17.0523C10.7661 16.8545 10.76 16.6484 10.7028 16.4536C10.6456 16.2589 10.5393 16.0822 10.3941 15.9404L6.80054 12.4367L11.6385 12.0511Z" fill="#F3CD03"/>
</svg>
