<svg width="29" height="29" viewBox="0 0 29 29" fill="none" xmlns="http://www.w3.org/2000/svg">
<path d="M26.1287 11.0834C26.0543 10.8644 25.9175 10.672 25.735 10.5299C25.5526 10.3878 25.3325 10.3022 25.1019 10.2838L18.3584 9.74793L15.4403 3.28827C15.3473 3.08022 15.1962 2.90351 15.005 2.77947C14.8139 2.65543 14.5909 2.58936 14.3631 2.58923C14.1352 2.58911 13.9122 2.65493 13.7209 2.77876C13.5296 2.90259 13.3782 3.07914 13.2851 3.28709L10.3669 9.74793L3.62339 10.2838C3.39682 10.3017 3.18021 10.3846 2.99949 10.5224C2.81877 10.6602 2.68158 10.8472 2.60434 11.0609C2.5271 11.2747 2.51307 11.5062 2.56395 11.7277C2.61482 11.9492 2.72843 12.1514 2.89119 12.31L7.87463 17.1681L6.11215 24.8C6.05863 25.031 6.07578 25.2727 6.16138 25.4939C6.24697 25.715 6.39706 25.9053 6.59216 26.0401C6.78726 26.1749 7.01837 26.2479 7.25549 26.2497C7.49262 26.2515 7.72481 26.182 7.92194 26.0502L14.3627 21.7564L20.8034 26.0502C21.0049 26.184 21.2425 26.2529 21.4843 26.2476C21.7261 26.2423 21.9605 26.1631 22.1559 26.0206C22.3513 25.8781 22.4984 25.6792 22.5774 25.4506C22.6564 25.222 22.6635 24.9747 22.5978 24.742L20.4343 17.1716L25.7998 12.3431C26.1512 12.0261 26.2801 11.5317 26.1287 11.0834Z" fill="#F3CD03"/>
</svg>
