<svg width="765" height="548" viewBox="0 0 765 548" fill="none" xmlns="http://www.w3.org/2000/svg">
<g opacity="0.7">
<path d="M734.985 546.712C691.861 546.712 107.569 547.797 82.1189 546.45C82.1189 546.45 37.6455 547.123 24.9847 546.45C24.7597 545.814 -70.2283 322.831 116.47 233.63C183.759 201.465 112.807 150.75 159.498 95.1723C213.161 31.2918 271.742 101.942 331.414 72.9936C341.954 67.8697 352.526 59.6416 363.131 47.0375C369.108 39.9313 375.631 33.7228 382.636 28.3745C383.696 27.5517 384.789 26.7289 385.881 25.9435C390.059 22.9514 394.429 20.2211 398.896 17.7901C401.916 16.1444 404.969 14.6484 408.086 13.2646C413.035 11.0579 418.112 9.1505 423.318 7.54226C430.676 5.26081 438.292 3.54038 446.036 2.41835C449.41 1.89474 452.817 1.52074 456.255 1.22153C522.933 -4.57559 571.584 15.5834 611.88 61.362C634.92 87.58 654.457 135.565 640.736 212.648C632.028 261.606 708.314 286.814 734.6 335.921C801.342 460.728 735.596 545.066 734.985 546.712Z" fill="#EBF3FA"/>
<path d="M734.985 546.712C691.861 546.712 107.569 547.797 82.1189 546.45C82.1189 546.45 37.6455 547.123 24.9847 546.45C24.7597 545.814 -70.2283 322.831 116.47 233.63C183.759 201.465 112.807 150.75 159.498 95.1723C213.161 31.2918 271.742 101.942 331.414 72.9936C341.954 67.8697 352.526 59.6416 363.131 47.0375C369.108 39.9313 375.631 33.7228 382.636 28.3745C383.696 27.5517 384.789 26.7289 385.881 25.9435C390.059 22.9514 394.429 20.2211 398.896 17.7901C401.916 16.1444 404.969 14.6484 408.086 13.2646C413.035 11.0579 418.112 9.1505 423.318 7.54226C430.676 5.26081 438.292 3.54038 446.036 2.41835C449.41 1.89474 452.817 1.52074 456.255 1.22153C522.933 -4.57559 571.584 15.5834 611.88 61.362C634.92 87.58 654.457 135.565 640.736 212.648C632.028 261.606 708.314 286.814 734.6 335.921C801.342 460.728 735.596 545.066 734.985 546.712Z" fill="url(#paint0_linear_4_3380)"/>
</g>
<defs>
<linearGradient id="paint0_linear_4_3380" x1="764.5" y1="273.688" x2="-21.3655" y2="265.405" gradientUnits="userSpaceOnUse">
<stop stop-color="white"/>
<stop offset="1" stop-color="white" stop-opacity="0"/>
</linearGradient>
</defs>
</svg>
