<svg width="60" height="59" viewBox="0 0 60 59" fill="none" xmlns="http://www.w3.org/2000/svg">
<g clip-path="url(#clip0_4_6500)">
<path d="M13.6247 0.571136H46.4081C53.4637 0.571136 59.1831 6.29054 59.1831 13.3461V46.1295C59.1831 53.1851 53.4637 58.9045 46.4081 58.9045H13.6247C6.56913 58.9045 0.849731 53.1851 0.849731 46.1295V13.3461C0.849731 6.29054 6.56913 0.571136 13.6247 0.571136Z" fill="url(#paint0_linear_4_6500)"/>
<path d="M19.9721 42.9655L19.9776 42.9673L17.9831 46.4217C17.2551 47.6827 15.6427 48.1148 14.3817 47.3867C13.1209 46.6587 12.6887 45.0463 13.4167 43.7853L14.886 41.2405L15.027 40.9963C15.2788 40.6344 15.9002 40.0096 17.1432 40.1272C17.1432 40.1272 20.0683 40.4446 20.28 41.9649C20.28 41.9649 20.3087 42.4651 19.9721 42.9655ZM48.2599 34.1426H42.0406C41.617 34.1141 41.4322 33.9628 41.3593 33.8748L41.3547 33.8668L34.6972 22.3355L34.6885 22.3412L34.2893 21.7688C33.6349 20.768 32.5958 23.3274 32.5958 23.3274C31.3551 26.1794 32.772 29.4217 33.2658 30.4017L42.513 46.4183C43.2408 47.6791 44.8531 48.1113 46.1144 47.3831C47.3751 46.6551 47.8074 45.0427 47.0791 43.7817L44.767 39.7767C44.7221 39.6797 44.6442 39.4163 45.1184 39.4151H48.2599C49.716 39.4151 50.8963 38.2348 50.8963 36.7787C50.8963 35.3227 49.716 34.1423 48.2599 34.1423V34.1426ZM36.1799 37.7264C36.1799 37.7264 36.5119 39.4151 35.2274 39.4151H12.2361C10.7801 39.4151 9.59973 38.2348 9.59973 36.7787C9.59973 35.3227 10.7801 34.1423 12.2361 34.1423H18.1469C19.1012 34.0872 19.3273 33.5362 19.3273 33.5362L19.3327 33.5389L27.0482 20.1751L27.046 20.1747C27.1866 19.9165 27.0694 19.6725 27.0492 19.634L24.5009 15.2205C23.7729 13.9597 24.2049 12.3471 25.466 11.6193C26.727 10.8913 28.3393 11.3231 29.0674 12.5841L30.2491 14.631L31.4287 12.5877C32.1567 11.3269 33.7691 10.8947 35.0301 11.6229C36.2911 12.351 36.7231 13.9631 35.9951 15.2241L25.2586 33.8201C25.2117 33.9334 25.1973 34.1111 25.5466 34.1423H31.9642L31.9656 34.205C31.9656 34.205 35.6747 34.2626 36.1799 37.7264Z" fill="white"/>
</g>
<defs>
<linearGradient id="paint0_linear_4_6500" x1="30.0164" y1="0.571136" x2="30.0164" y2="58.9045" gradientUnits="userSpaceOnUse">
<stop stop-color="#17C9FB"/>
<stop offset="1" stop-color="#1A74E8"/>
</linearGradient>
<clipPath id="clip0_4_6500">
<rect width="58.3333" height="58.3333" fill="white" transform="translate(0.849731 0.571136)"/>
</clipPath>
</defs>
</svg>
