<svg width="2082" height="1115" viewBox="0 0 2082 1115" fill="none" xmlns="http://www.w3.org/2000/svg">
<path fill-rule="evenodd" clip-rule="evenodd" d="M154.014 942.114L154.014 1114.06H155.958L155.958 942.114H265.193V1114.06H267.138V942.114H376.372V1114.06H378.316V942.114H487.551V1114.06H489.495V942.114H597.045V1114.06H598.99V942.114H708.224V1114.06H710.168V942.114H819.403V1114.06H821.347V942.114H930.582V1114.06H932.526V942.114H1040.08V1114.06H1042.02V942.114H1151.25V1114.06H1153.2V942.114H1262.43V1114.06H1264.38V942.114H1371.93V1114.06H1373.87V942.114H1483.11V1114.06H1485.05V942.114H1594.29V1114.06H1596.23V942.114H1705.46V1114.06H1707.41V942.114H1814.96V1114.06H1816.9V942.114H1926.14V1114.06H1928.08V942.114H2081.11V940.169H1928.08V830.482H2081.11V828.538H1928.08V718.852H2081.11V716.907H1928.08V607.221H2081.11V605.277H1928.08L1928.08 495.59H2081.11V493.646H1928.08V383.959H2081.11V382.015H1928.08V272.329H2081.11V270.384H1928.08V160.697H2081.11V158.753H1928.08V0.583496L1926.14 0.583496V158.753H1816.9V0.583496L1814.96 0.583496V158.753H1707.41V0.583496L1705.46 0.583496V158.753H1596.23V0.583496L1594.29 0.583496V158.753H1485.05V0.583496L1483.11 0.583496V158.753H1373.87V0.583496L1371.93 0.583496V158.753H1264.38V0.583496L1262.43 0.583496V158.753H1153.2V0.583496L1151.25 0.583496V158.753H1042.02V0.583496L1040.08 0.583496V158.753H932.526V0.583496L930.582 0.583496V158.753H821.347V0.583496L819.403 0.583496V158.753H710.168V0.583496L708.224 0.583496V158.753H598.99V0.583496L597.045 0.583496V158.753H489.495V0.583496L487.551 0.583496V158.753H378.316V0.583496L376.372 0.583496V158.753H267.138V0.583496L265.193 0.583496V158.753H155.958L155.958 0.583496L154.014 0.583496L154.014 158.753H0.722168V160.697H154.014V270.384H0.722168V272.329H154.014V382.015H0.722168V383.959H154.014L154.014 493.646H0.722168V495.59H154.014V605.277H0.722168V607.221H154.014L154.014 716.907H0.722168V718.852H154.014V828.538H0.722168V830.482H154.014V940.169H0.722168V942.114H154.014ZM1926.14 160.697H1816.9V270.384H1926.14V160.697ZM1926.14 272.329H1816.9V382.015H1926.14V272.329ZM1926.14 383.959H1816.9V493.646H1926.14V383.959ZM1926.14 495.59H1816.9L1816.9 605.277H1926.14V495.59ZM1926.14 607.221H1816.9V716.907H1926.14V607.221ZM1926.14 718.852H1816.9V828.538H1926.14V718.852ZM1926.14 830.482H1816.9V940.169H1926.14V830.482ZM1814.96 830.482V940.169H1707.41V830.482H1814.96ZM1814.96 718.852V828.538H1707.41V718.852H1814.96ZM1814.96 607.221V716.907H1707.41V607.221H1814.96ZM1814.96 495.59V605.277H1707.41L1707.41 495.59H1814.96ZM1814.96 383.959V493.646H1707.41V383.959H1814.96ZM1814.96 272.329V382.015H1707.41V272.329H1814.96ZM1814.96 160.697V270.384H1707.41V160.697H1814.96ZM1705.46 160.697H1596.23V270.384H1705.46V160.697ZM1705.46 272.329H1596.23V382.015H1705.46V272.329ZM1705.46 383.959H1596.23V493.646H1705.46V383.959ZM1705.46 495.59H1596.23L1596.23 605.277H1705.46V495.59ZM1705.46 607.221H1596.23V716.907H1705.46V607.221ZM1705.46 718.852H1596.23V828.538H1705.46V718.852ZM1705.46 830.482H1596.23V940.169H1705.46V830.482ZM1594.29 830.482V940.169H1485.05V830.482H1594.29ZM1594.29 718.852V828.538H1485.05V718.852H1594.29ZM1594.29 607.221V716.907H1485.05V607.221H1594.29ZM1594.29 495.59V605.277H1485.05L1485.05 495.59H1594.29ZM1594.29 383.959V493.646H1485.05V383.959H1594.29ZM1594.29 272.329V382.015H1485.05V272.329H1594.29ZM1594.29 160.697V270.384H1485.05V160.697H1594.29ZM1483.11 160.697H1373.87V270.384H1483.11V160.697ZM1483.11 272.329H1373.87V382.015H1483.11V272.329ZM1483.11 383.959H1373.87V493.646H1483.11V383.959ZM1483.11 495.59H1373.87L1373.87 605.277H1483.11V495.59ZM1483.11 607.221H1373.87V716.907H1483.11V607.221ZM1483.11 718.852H1373.87V828.538H1483.11V718.852ZM1483.11 830.482H1373.87V940.169H1483.11V830.482ZM1371.93 830.482V940.169H1264.38V830.482H1371.93ZM1371.93 718.852V828.538H1264.38V718.852H1371.93ZM1371.93 607.221V716.907H1264.38V607.221H1371.93ZM1371.93 495.59V605.277H1264.38L1264.38 495.59H1371.93ZM1371.93 383.959V493.646H1264.38V383.959H1371.93ZM1371.93 272.329V382.015H1264.38V272.329H1371.93ZM1371.93 160.697V270.384H1264.38V160.697H1371.93ZM1262.43 160.697H1153.2V270.384H1262.43V160.697ZM1262.43 272.329H1153.2V382.015H1262.43V272.329ZM1262.43 383.959H1153.2V493.646H1262.43V383.959ZM1262.43 495.59H1153.2L1153.2 605.277H1262.43V495.59ZM1262.43 607.221H1153.2V716.907H1262.43V607.221ZM1262.43 718.852H1153.2V828.538H1262.43V718.852ZM1262.43 830.482H1153.2V940.169H1262.43V830.482ZM1151.25 830.482V940.169H1042.02V830.482H1151.25ZM1151.25 718.852V828.538H1042.02V718.852H1151.25ZM1151.25 607.221V716.907H1042.02V607.221H1151.25ZM1151.25 495.59V605.277H1042.02L1042.02 495.59H1151.25ZM1151.25 383.959V493.646H1042.02V383.959H1151.25ZM1151.25 272.329V382.015H1042.02V272.329H1151.25ZM1151.25 160.697V270.384H1042.02V160.697H1151.25ZM1040.08 160.697H932.526V270.384H1040.08V160.697ZM1040.08 272.329H932.526V382.015H1040.08V272.329ZM1040.08 383.959H932.526V493.646H1040.08V383.959ZM1040.08 495.59H932.526L932.526 605.277H1040.08V495.59ZM1040.08 607.221H932.526V716.907H1040.08V607.221ZM1040.08 718.852H932.526V828.538H1040.08V718.852ZM1040.08 830.482H932.526V940.169H1040.08V830.482ZM930.582 830.482V940.169H821.347V830.482H930.582ZM930.582 718.852V828.538H821.347V718.852H930.582ZM930.582 607.221V716.907H821.347V607.221H930.582ZM930.582 495.59L930.582 605.277H821.347L821.347 495.59H930.582ZM930.582 383.959V493.646H821.347V383.959H930.582ZM930.582 272.329V382.015H821.347V272.329H930.582ZM930.582 160.697V270.384H821.347V160.697H930.582ZM819.403 160.697H710.168V270.384H819.403V160.697ZM819.403 272.329H710.168V382.015H819.403V272.329ZM819.403 383.959H710.168V493.646H819.403V383.959ZM819.403 495.59H710.168L710.168 605.277H819.403L819.403 495.59ZM819.403 607.221H710.168V716.907H819.403V607.221ZM819.403 718.852H710.168V828.538H819.403V718.852ZM819.403 830.482H710.168V940.169H819.403V830.482ZM708.224 830.482V940.169H598.99V830.482H708.224ZM708.224 718.852V828.538H598.99V718.852H708.224ZM708.224 607.221V716.907H598.99V607.221H708.224ZM708.224 495.59L708.224 605.277H598.99L598.99 495.59H708.224ZM708.224 383.959V493.646H598.99V383.959H708.224ZM708.224 272.329V382.015H598.99V272.329H708.224ZM708.224 160.697V270.384H598.99V160.697H708.224ZM597.045 160.697H489.495V270.384H597.045V160.697ZM597.045 272.329H489.495L489.495 382.015H597.045V272.329ZM597.045 383.959H489.495V493.646H597.045V383.959ZM597.045 495.59H489.495V605.277H597.045L597.045 495.59ZM597.045 607.221H489.495V716.907H597.045V607.221ZM597.045 718.852H489.495V828.538H597.045V718.852ZM597.045 830.482H489.495L489.495 940.169H597.045V830.482ZM487.551 830.482L487.551 940.169H378.316L378.316 830.482H487.551ZM487.551 718.852V828.538H378.316V718.852H487.551ZM487.551 607.221V716.907H378.316V607.221H487.551ZM487.551 495.59V605.277H378.316V495.59H487.551ZM487.551 383.959V493.646H378.316V383.959H487.551ZM487.551 272.329L487.551 382.015H378.316L378.316 272.329H487.551ZM487.551 160.697V270.384H378.316V160.697H487.551ZM376.372 160.697H267.138V270.384H376.372V160.697ZM376.372 272.329H267.138L267.138 382.015H376.372L376.372 272.329ZM376.372 383.959H267.138V493.646H376.372V383.959ZM376.372 495.59H267.138V605.277H376.372V495.59ZM376.372 607.221H267.138V716.907H376.372V607.221ZM376.372 718.852H267.138V828.538H376.372V718.852ZM376.372 830.482H267.138L267.138 940.169H376.372L376.372 830.482ZM265.193 830.482L265.193 940.169H155.958V830.482H265.193ZM265.193 718.852V828.538H155.958V718.852H265.193ZM265.193 607.221V716.907H155.958L155.958 607.221H265.193ZM265.193 495.59V605.277H155.958V495.59H265.193ZM265.193 383.959V493.646H155.958L155.958 383.959H265.193ZM265.193 272.329L265.193 382.015H155.958V272.329H265.193ZM265.193 160.697V270.384H155.958V160.697H265.193Z" fill="url(#paint0_radial_16_2069)"/>
<defs>
<radialGradient id="paint0_radial_16_2069" cx="0" cy="0" r="1" gradientUnits="userSpaceOnUse" gradientTransform="translate(1035.7 1676.75) rotate(180) scale(1264.32 1199.89)">
<stop stop-color="#EDECF3"/>
<stop offset="1" stop-color="#E6E5F5" stop-opacity="0.01"/>
</radialGradient>
</defs>
</svg>
