<svg width="132" height="133" viewBox="0 0 132 133" fill="none" xmlns="http://www.w3.org/2000/svg">
<circle opacity="0.1" cx="65.875" cy="66.5" r="65.625" fill="#CB2929"/>
<path d="M68.8075 68.2581H66.0903L59.5138 85.9399H62.1917L68.8075 68.2581Z" fill="#A52626"/>
<path d="M69.6349 73.6534L78.2983 77.1188L69.6349 80.5449V83.2619L81.6063 78.4971V75.7406L69.6349 70.9364V73.6534Z" fill="#A52626"/>
<path d="M58.6865 80.5449L50.0229 77.1188L58.6865 73.6534V70.9364L46.6757 75.7406V78.4971L58.6865 83.2619V80.5449Z" fill="#A52626"/>
<path d="M41.6886 46.7093C41.6886 53.1719 41.6886 70.6628 41.6886 86.0643C41.6886 88.7851 43.9037 91.0003 46.6246 91.0003H85.2431C87.9639 91.0003 90.1791 88.7851 90.1791 86.0643C90.1791 70.6629 90.1791 53.1706 90.1791 46.7093C90.1791 43.9885 87.9639 41.7753 85.2431 41.7753H46.6246C43.9037 41.7753 41.6886 43.9885 41.6886 46.7093ZM88.2101 86.0643C88.2101 87.7007 86.8795 89.0313 85.2431 89.0313H46.6246C44.9882 89.0313 43.6576 87.7007 43.6576 86.0643V51.776H88.2101V86.0643ZM88.2101 46.7093V49.807H43.6576V46.7093C43.6576 45.0749 44.9882 43.7443 46.6246 43.7443H85.2431C86.8795 43.7443 88.2101 45.0749 88.2101 46.7093Z" fill="#A52626"/>
<path d="M69.5253 48.0035H72.0634C72.6076 48.0035 73.0479 47.5632 73.0479 47.019C73.0479 46.4749 72.6076 46.0345 72.0634 46.0345H69.5253C68.9811 46.0345 68.5408 46.4749 68.5408 47.019C68.5408 47.5632 68.9811 48.0035 69.5253 48.0035Z" fill="#A52626"/>
<path d="M74.9316 48.0035H77.4698C78.014 48.0035 78.4543 47.5632 78.4543 47.019C78.4543 46.4749 78.014 46.0345 77.4698 46.0345H74.9316C74.3875 46.0345 73.9471 46.4749 73.9471 47.019C73.9471 47.5632 74.3875 48.0035 74.9316 48.0035Z" fill="#A52626"/>
<path d="M80.3372 48.0035H82.8753C83.4195 48.0035 83.8598 47.5632 83.8598 47.019C83.8598 46.4749 83.4195 46.0345 82.8753 46.0345H80.3372C79.793 46.0345 79.3527 46.4749 79.3527 47.019C79.3527 47.5632 79.793 48.0035 80.3372 48.0035Z" fill="#A52626"/>
<path d="M66.7063 63.007C69.3214 63.007 71.45 65.1356 71.45 67.7526C71.45 68.2967 71.8903 68.7371 72.4345 68.7371C72.9786 68.7371 73.419 68.2967 73.419 67.7526C73.419 65.1356 75.5476 63.007 78.1646 63.007C78.7087 63.007 79.1491 62.5666 79.1491 62.0225C79.1491 61.4783 78.7087 61.038 78.1646 61.038C75.5476 61.038 73.419 58.9094 73.419 56.2924C73.419 55.7482 72.9786 55.3079 72.4345 55.3079C71.8903 55.3079 71.45 55.7482 71.45 56.2924C71.45 58.9094 69.3214 61.038 66.7063 61.038C66.1621 61.038 65.7218 61.4783 65.7218 62.0225C65.7218 62.5666 66.1621 63.007 66.7063 63.007ZM72.4345 59.79C72.9921 60.6995 73.7574 61.4648 74.6669 62.0225C73.7574 62.5801 72.9921 63.3454 72.4345 64.2549C71.8788 63.3454 71.1116 62.5801 70.202 62.0225C71.1116 61.4648 71.8788 60.6995 72.4345 59.79Z" fill="#A52626"/>
<path d="M77.4065 58.0713C78.0218 58.0713 78.5218 58.5712 78.5218 59.1865C78.5218 59.7307 78.9621 60.171 79.5063 60.171C80.0504 60.171 80.4908 59.7307 80.4908 59.1865C80.4908 58.5712 80.9926 58.0713 81.6079 58.0694C81.6099 58.0694 81.6099 58.0694 81.6118 58.0694C81.6137 58.0694 81.6137 58.0694 81.6156 58.0694C81.6175 58.0694 81.6175 58.0694 81.6175 58.0694C81.6195 58.0694 81.6195 58.0694 81.6195 58.0694H81.6214C81.6228 58.0694 81.6238 58.0694 81.6252 58.0694C81.6272 58.0694 81.6272 58.0694 81.6272 58.0694H81.6291C81.6305 58.0694 81.6315 58.0694 81.6329 58.0694C81.6348 58.0694 81.6348 58.0694 81.6368 58.0694H81.6387C82.1675 58.0521 82.5905 57.6175 82.5905 57.0868C82.5905 57.0849 82.5905 57.0849 82.5905 57.0849C82.5905 56.5407 82.1502 56.1004 81.606 56.1004C80.9907 56.1004 80.4908 55.6004 80.4908 54.9851C80.4908 54.4409 80.0504 54.0006 79.5063 54.0006C78.9621 54.0006 78.5218 54.4409 78.5218 54.9851C78.5218 55.5812 78.0507 56.0715 77.4603 56.1004C77.443 56.1004 77.4257 56.1004 77.4084 56.1004V56.1023C77.4065 56.1023 77.4065 56.1023 77.4046 56.1023C76.8623 56.1023 76.422 56.5445 76.422 57.0868C76.422 57.631 76.8623 58.0713 77.4065 58.0713Z" fill="#A52626"/>
</svg>
