<svg width="21" height="18" viewBox="0 0 21 18" fill="none" xmlns="http://www.w3.org/2000/svg">
<path opacity="0.2" d="M6.51042 8.30095C6.01904 8.15948 5.52765 8.08769 5.04966 8.08769C4.31154 8.08769 3.69564 8.25637 3.21806 8.46293C3.67848 6.77741 4.78451 3.86907 6.98778 3.54155C7.19183 3.51121 7.35904 3.36367 7.41471 3.16506L7.89626 1.44271C7.93686 1.29705 7.91279 1.14114 7.82971 1.01474C7.74662 0.888333 7.6131 0.803994 7.46347 0.783484C7.30086 0.761301 7.13511 0.75 6.97083 0.75C4.32619 0.75 1.70708 3.51037 0.601885 7.46279C-0.0468757 9.78159 -0.237109 13.2677 1.36093 15.462C2.25518 16.6898 3.55981 17.3455 5.23864 17.411C5.24555 17.4112 5.25224 17.4114 5.25915 17.4114C7.33058 17.4114 9.16741 16.0164 9.72618 14.0192C10.06 12.8253 9.90909 11.5732 9.30093 10.4927C8.69925 9.42435 7.70833 8.64563 6.51042 8.30095Z" fill="url(#paint0_linear_4_3798)"/>
<path opacity="0.2" d="M19.4769 10.4929C18.8752 9.42435 17.8843 8.64563 16.6864 8.30095C16.195 8.15947 15.7036 8.08769 15.2258 8.08769C14.4877 8.08769 13.8716 8.25637 13.394 8.46293C13.8544 6.77741 14.9605 3.86907 17.164 3.54155C17.368 3.51121 17.535 3.36367 17.5909 3.16506L18.0724 1.44271C18.113 1.29705 18.089 1.14114 18.0059 1.01474C17.923 0.888333 17.7895 0.803994 17.6396 0.783484C17.4772 0.761301 17.3115 0.75 17.147 0.75C14.5024 0.75 11.8832 3.51037 10.7778 7.46279C10.1293 9.78158 9.93906 13.2677 11.5373 15.4624C12.4313 16.69 13.7362 17.3459 15.4148 17.4112C15.4217 17.4114 15.4284 17.4116 15.4355 17.4116C17.5067 17.4116 19.3438 16.0166 19.9026 14.0195C20.2359 12.8255 20.0848 11.5732 19.4769 10.4929Z" fill="url(#paint1_linear_4_3798)"/>
<defs>
<linearGradient id="paint0_linear_4_3798" x1="13.3073" y1="0.749998" x2="-7.2739" y2="2.44935" gradientUnits="userSpaceOnUse">
<stop stop-color="#5319A6"/>
<stop offset="1" stop-color="#7635D4"/>
</linearGradient>
<linearGradient id="paint1_linear_4_3798" x1="23.4833" y1="0.749998" x2="2.90233" y2="2.44929" gradientUnits="userSpaceOnUse">
<stop stop-color="#5319A6"/>
<stop offset="1" stop-color="#7635D4"/>
</linearGradient>
</defs>
</svg>
