<svg width="132" height="133" viewBox="0 0 132 133" fill="none" xmlns="http://www.w3.org/2000/svg">
<circle cx="65.75" cy="66.5" r="65.625" fill="#14A89F" fill-opacity="0.1"/>
<path d="M89.3335 53.5267H69.6519L61.2372 47.4854C61.0239 47.3322 60.7679 47.2498 60.5052 47.25H41.6303C41.2974 47.25 40.9781 47.3823 40.7427 47.6177C40.5073 47.8531 40.375 48.1724 40.375 48.5053V79.889C40.377 81.5531 41.0389 83.1484 42.2156 84.3251C43.3923 85.5018 44.9876 86.1637 46.6517 86.1657H84.3121C85.9762 86.1637 87.5716 85.5018 88.7482 84.3251C89.9249 83.1484 90.5869 81.5531 90.5888 79.889V54.7821C90.5888 54.4491 90.4566 54.1298 90.2211 53.8944C89.9857 53.659 89.6664 53.5267 89.3335 53.5267ZM88.0781 79.889C88.077 80.8875 87.6799 81.8447 86.9739 82.5508C86.2678 83.2568 85.3106 83.6539 84.3121 83.655H46.6517C45.6532 83.6539 44.696 83.2568 43.9899 82.5508C43.2839 81.8447 42.8868 80.8875 42.8857 79.889V49.7607H60.1014L68.5161 55.802C68.7293 55.9553 68.9854 56.0376 69.2479 56.0374H88.0781V79.889ZM59.2052 65.9546V67.3355H57.9498C57.6169 67.3355 57.2976 67.4678 57.0622 67.7032C56.8268 67.9386 56.6945 68.2579 56.6945 68.5909V76.1229C56.6956 77.1214 57.0927 78.0787 57.7987 78.7847C58.5048 79.4908 59.4621 79.8879 60.4605 79.889H70.5033C71.5018 79.8879 72.459 79.4908 73.1651 78.7847C73.8711 78.0787 74.2682 77.1214 74.2693 76.1229V68.5909C74.2693 68.2579 74.1371 67.9386 73.9016 67.7032C73.6662 67.4678 73.3469 67.3355 73.014 67.3355H71.7586V65.9546C71.7586 64.29 71.0973 62.6934 69.9202 61.5163C68.7431 60.3392 67.1466 59.6779 65.4819 59.6779C63.8172 59.6779 62.2207 60.3392 61.0436 61.5163C59.8665 62.6934 59.2052 64.29 59.2052 65.9546ZM70.5033 69.8462H71.7586V76.1229C71.7582 76.4558 71.6258 76.7748 71.3905 77.0101C71.1551 77.2455 70.8361 77.3779 70.5033 77.3783H60.4605C60.1277 77.3779 59.8087 77.2455 59.5733 77.0101C59.338 76.7748 59.2056 76.4558 59.2052 76.1229V69.8462H70.5033ZM69.2479 65.9546V67.3355H61.7159V65.9546C61.7159 64.9558 62.1127 63.9979 62.8189 63.2917C63.5252 62.5854 64.4831 62.1886 65.4819 62.1886C66.4807 62.1886 67.4386 62.5854 68.1449 63.2917C68.8512 63.9979 69.2479 64.9558 69.2479 65.9546Z" fill="#107B75"/>
</svg>
