<svg width="37" height="37" viewBox="0 0 37 37" fill="none" xmlns="http://www.w3.org/2000/svg">
<circle opacity="0.1" cx="18.4375" cy="18.3125" r="17.5" stroke="white" stroke-width="0.875"/>
<path d="M21.3248 16.2996C22.2995 16.2996 23.2342 16.6867 23.9234 17.3759C24.6126 18.0651 24.9998 18.9999 24.9998 19.9746V24.2621H22.5498V19.9746C22.5498 19.6497 22.4207 19.3381 22.191 19.1084C21.9613 18.8786 21.6497 18.7496 21.3248 18.7496C20.9999 18.7496 20.6883 18.8786 20.4586 19.1084C20.2288 19.3381 20.0998 19.6497 20.0998 19.9746V24.2621H17.6498V19.9746C17.6498 18.9999 18.037 18.0651 18.7262 17.3759C19.4154 16.6867 20.3501 16.2996 21.3248 16.2996V16.2996Z" stroke="white" stroke-width="0.875" stroke-linecap="round" stroke-linejoin="round"/>
<path d="M15.2 16.9126H12.75V24.2626H15.2V16.9126Z" stroke="white" stroke-width="0.875" stroke-linecap="round" stroke-linejoin="round"/>
<path d="M13.975 15.075C14.6515 15.075 15.2 14.5265 15.2 13.85C15.2 13.1735 14.6515 12.625 13.975 12.625C13.2985 12.625 12.75 13.1735 12.75 13.85C12.75 14.5265 13.2985 15.075 13.975 15.075Z" stroke="white" stroke-width="0.875" stroke-linecap="round" stroke-linejoin="round"/>
</svg>
