<svg width="24" height="24" viewBox="0 0 24 24" fill="none" xmlns="http://www.w3.org/2000/svg">
<path d="M11.8331 5.04053C6.972 5.04053 2.82062 8.06414 1.13867 12.3322C2.82062 16.6003 6.972 19.6239 11.8331 19.6239C16.6942 19.6239 20.8456 16.6003 22.5276 12.3322C20.8456 8.06414 16.6942 5.04053 11.8331 5.04053ZM11.8331 17.1933C9.14978 17.1933 6.972 15.0155 6.972 12.3322C6.972 9.64886 9.14978 7.47108 11.8331 7.47108C14.5164 7.47108 16.6942 9.64886 16.6942 12.3322C16.6942 15.0155 14.5164 17.1933 11.8331 17.1933ZM11.8331 9.41553C10.2192 9.41553 8.91645 10.7183 8.91645 12.3322C8.91645 13.9461 10.2192 15.2489 11.8331 15.2489C13.447 15.2489 14.7498 13.9461 14.7498 12.3322C14.7498 10.7183 13.447 9.41553 11.8331 9.41553Z" fill="#2DA884"/>
</svg>
