<svg width="37" height="37" viewBox="0 0 37 37" fill="none" xmlns="http://www.w3.org/2000/svg">
<circle opacity="0.1" cx="18.6875" cy="18.3125" r="17.5" stroke="white" stroke-width="0.875"/>
<path d="M21.6772 12.3334H15.6981C14.047 12.3334 12.7085 13.6719 12.7085 15.323V21.3021C12.7085 22.9532 14.047 24.2917 15.6981 24.2917H21.6772C23.3283 24.2917 24.6668 22.9532 24.6668 21.3021V15.323C24.6668 13.6719 23.3283 12.3334 21.6772 12.3334Z" stroke="white" stroke-width="1.19583" stroke-linecap="round" stroke-linejoin="round"/>
<path d="M21.079 17.9356C21.1528 18.4332 21.0678 18.9415 20.8361 19.388C20.6044 19.8345 20.2378 20.1966 19.7885 20.4228C19.3391 20.6489 18.8299 20.7277 18.3332 20.6477C17.8366 20.5678 17.3778 20.3333 17.022 19.9776C16.6663 19.6219 16.4318 19.1631 16.3519 18.6664C16.272 18.1697 16.3507 17.6605 16.5769 17.2112C16.8031 16.7618 17.1651 16.3952 17.6117 16.1635C18.0582 15.9319 18.5664 15.8469 19.064 15.9206C19.5716 15.9959 20.0415 16.2324 20.4044 16.5953C20.7672 16.9581 21.0037 17.428 21.079 17.9356Z" stroke="white" stroke-width="1.19583" stroke-linecap="round" stroke-linejoin="round"/>
<path d="M21.9761 15.0237H21.9826" stroke="white" stroke-width="1.19583" stroke-linecap="round" stroke-linejoin="round"/>
</svg>
