<svg width="37" height="37" viewBox="0 0 37 37" fill="none" xmlns="http://www.w3.org/2000/svg">
<circle opacity="0.1" cx="18.1875" cy="18.3125" r="17.5" stroke="white" stroke-width="0.875"/>
<path d="M24.1666 13.5353C23.594 13.9392 22.9601 14.2481 22.2892 14.4501C21.9291 14.0361 21.4505 13.7426 20.9182 13.6094C20.3858 13.4762 19.8254 13.5097 19.3128 13.7054C18.8001 13.9011 18.3599 14.2495 18.0517 14.7035C17.7435 15.1575 17.5822 15.6952 17.5895 16.2439V16.8418C16.5388 16.869 15.4976 16.636 14.5587 16.1634C13.6198 15.6908 12.8124 14.9934 12.2083 14.1332C12.2083 14.1332 9.81662 19.5145 15.1979 21.9061C13.9665 22.742 12.4996 23.1611 11.0125 23.102C16.3937 26.0916 22.9708 23.102 22.9708 16.2259C22.9702 16.0594 22.9542 15.8933 22.923 15.7297C23.5332 15.1279 23.9638 14.368 24.1666 13.5353V13.5353Z" stroke="white" stroke-width="1.19583" stroke-linecap="round" stroke-linejoin="round"/>
</svg>
