<svg width="40" height="45" viewBox="0 0 40 45" fill="none" xmlns="http://www.w3.org/2000/svg">
<path d="M39.4741 7.52768L19.3491 19.3402C10.5988 16.2775 2.72449 12.34 7.09908 6.65248C11.4739 2.27779 20.2241 8.84037 21.0991 7.96537C21.0991 7.96537 22.412 5.34027 25.9116 0.527676C32.037 0.0900657 36.9949 4.90268 39.4741 7.52768Z" fill="#42B4EE"/>
<path d="M0.602621 18.4373C7.16512 20.4789 19.5901 26.1373 16.7901 32.4373C10.6654 38.9998 -2.02196 33.3123 0.602621 18.4373Z" fill="#42B4EE"/>
<path d="M25.9779 31.1248C23.8779 37.7748 14.3112 40.3123 9.79041 40.7498C20.9904 49.4999 33.4154 42.6456 38.2279 38.1248C35.0196 33.0206 32.9779 35.4998 25.9779 31.1248Z" fill="#42B4EE"/>
</svg>
