<svg width="132" height="133" viewBox="0 0 132 133" fill="none" xmlns="http://www.w3.org/2000/svg">
<circle cx="66.25" cy="66.5" r="65.625" fill="#9314A8" fill-opacity="0.1"/>
<path d="M74.6066 58.7665H58.2582C56.9794 58.7665 55.7531 59.2745 54.8488 60.1787C53.9446 61.0829 53.4366 62.3093 53.4366 63.588V71.5216C53.4366 72.8003 53.9446 74.0267 54.8488 74.9309C55.7531 75.8351 56.9794 76.3431 58.2582 76.3431H74.6066C75.8854 76.3431 77.1117 75.8351 78.016 74.9309C78.9202 74.0267 79.4282 72.8003 79.4282 71.5216V63.588C79.4282 62.3093 78.9202 61.0829 78.016 60.1787C77.1117 59.2745 75.8854 58.7665 74.6066 58.7665ZM77.229 71.5216C77.2268 72.2164 76.9498 72.8821 76.4585 73.3735C75.9672 73.8648 75.3014 74.1418 74.6066 74.144H58.2582C57.5634 74.1418 56.8976 73.8648 56.4063 73.3735C55.915 72.8821 55.638 72.2164 55.6358 71.5216V63.588C55.6353 63.2373 55.7059 62.89 55.8433 62.5673L65.7436 68.8909C65.9505 69.0232 66.191 69.0935 66.4366 69.0935C66.6821 69.0935 66.9226 69.0232 67.1295 68.8909L77.0215 62.559C77.16 62.8843 77.2306 63.2345 77.229 63.588V71.5216Z" fill="#C231DA"/>
<path d="M42.9887 59.9783C41.0577 65.7909 41.394 72.1184 43.93 77.6936C46.4661 83.2688 51.0148 87.6802 56.6651 90.0442C62.3154 92.4082 68.6502 92.5503 74.4009 90.4421C80.1516 88.334 84.8936 84.1311 87.6772 78.6752C89.1739 75.7156 90.0547 72.4831 90.2664 69.1732H86.7643C86.5025 72.6926 85.3504 76.0877 83.4163 79.0397C81.4821 81.9916 78.8294 84.4035 75.7073 86.0488C72.5851 87.694 69.096 88.5187 65.5676 88.4454C62.0393 88.3721 58.5874 87.4031 55.5363 85.6295C53.0266 84.1945 50.8579 82.2324 49.1795 79.8785C46.1478 75.6852 44.7862 70.5132 45.36 65.3706C45.9338 60.228 48.4019 55.4833 52.2832 52.0613C53.8133 50.7197 55.5261 49.602 57.3703 48.7418L59.2624 47.8622V50.4016C59.2627 50.5504 59.303 50.6965 59.3791 50.8244C59.4551 50.9523 59.5642 51.0575 59.6949 51.1287C59.8256 51.2 59.973 51.2348 60.1218 51.2295C60.2706 51.2242 60.4152 51.179 60.5404 51.0987L66.7562 47.0821C66.8674 47.0059 66.9584 46.9037 67.0213 46.7844C67.0842 46.6651 67.117 46.5323 67.117 46.3975C67.117 46.2626 67.0842 46.1298 67.0213 46.0105C66.9584 45.8912 66.8674 45.789 66.7562 45.7128L60.557 41.273C60.4326 41.1867 60.287 41.1361 60.1359 41.1266C59.9848 41.1172 59.834 41.1492 59.6998 41.2193C59.5656 41.2894 59.4532 41.3948 59.3746 41.5243C59.296 41.6537 59.2544 41.8021 59.2541 41.9535V44.3186L58.7811 44.4763C55.1339 45.6717 51.8116 47.6923 49.0726 50.381C46.3335 53.0696 44.2516 56.3539 42.9887 59.9783Z" fill="#C231DA"/>
</svg>
