<svg width="21" height="18" viewBox="0 0 21 18" fill="none" xmlns="http://www.w3.org/2000/svg">
<path opacity="0.05" d="M6.76042 8.30095C6.26904 8.15948 5.77765 8.08769 5.29966 8.08769C4.56154 8.08769 3.94564 8.25637 3.46806 8.46293C3.92848 6.77741 5.03451 3.86907 7.23778 3.54155C7.44183 3.51121 7.60904 3.36367 7.66471 3.16506L8.14626 1.44271C8.18686 1.29705 8.16279 1.14114 8.07971 1.01474C7.99662 0.888333 7.8631 0.803994 7.71347 0.783484C7.55086 0.761301 7.38511 0.75 7.22083 0.75C4.57619 0.75 1.95708 3.51037 0.851885 7.46279C0.203124 9.78159 0.0128909 13.2677 1.61093 15.462C2.50518 16.6898 3.80981 17.3455 5.48864 17.411C5.49555 17.4112 5.50224 17.4114 5.50915 17.4114C7.58058 17.4114 9.41741 16.0164 9.97618 14.0192C10.31 12.8253 10.1591 11.5732 9.55093 10.4927C8.94925 9.42435 7.95833 8.64563 6.76042 8.30095Z" fill="#051114"/>
<path opacity="0.05" d="M19.7269 10.4929C19.1252 9.42435 18.1343 8.64563 16.9364 8.30095C16.445 8.15947 15.9536 8.08769 15.4758 8.08769C14.7377 8.08769 14.1216 8.25637 13.644 8.46293C14.1044 6.77741 15.2105 3.86907 17.414 3.54155C17.618 3.51121 17.785 3.36367 17.8409 3.16506L18.3224 1.44271C18.363 1.29705 18.339 1.14114 18.2559 1.01474C18.173 0.888333 18.0395 0.803994 17.8896 0.783484C17.7272 0.761301 17.5615 0.75 17.397 0.75C14.7524 0.75 12.1332 3.51037 11.0278 7.46279C10.3793 9.78158 10.1891 13.2677 11.7873 15.4624C12.6813 16.69 13.9862 17.3459 15.6648 17.4112C15.6717 17.4114 15.6784 17.4116 15.6855 17.4116C17.7567 17.4116 19.5938 16.0166 20.1526 14.0195C20.4859 12.8255 20.3348 11.5732 19.7269 10.4929Z" fill="#051114"/>
</svg>
