<svg width="132" height="133" viewBox="0 0 132 133" fill="none" xmlns="http://www.w3.org/2000/svg">
<circle cx="66.25" cy="66.5" r="65.625" fill="#BF7C16" fill-opacity="0.1"/>
<path d="M65.2266 62.9993H59.0328C58.5915 62.9993 58.2336 63.3571 58.2336 63.7985V81.181C58.2336 81.6224 58.5915 81.9802 59.0328 81.9802H65.2266C65.668 81.9802 66.0258 81.6224 66.0258 81.181V63.7985C66.0258 63.3571 65.668 62.9993 65.2266 62.9993Z" fill="#9B6717"/>
<path d="M53.6377 72.2902H47.444C47.0026 72.2902 46.6448 72.648 46.6448 73.0894V81.1812C46.6448 81.6226 47.0026 81.9804 47.444 81.9804H53.6377C54.0791 81.9804 54.4369 81.6226 54.4369 81.1812V73.0894C54.4369 72.648 54.0791 72.2902 53.6377 72.2902Z" fill="#9B6717"/>
<path d="M76.8148 68.7938H70.621C70.1796 68.7938 69.8218 69.1516 69.8218 69.593V81.1814C69.8218 81.6228 70.1796 81.9806 70.621 81.9806H76.8148C77.2561 81.9806 77.6139 81.6228 77.6139 81.1814V69.593C77.6139 69.1516 77.2561 68.7938 76.8148 68.7938Z" fill="#9B6717"/>
<path d="M86.1294 47.2504C85.3779 47.2499 84.6389 47.4422 83.983 47.809C83.3271 48.1758 82.7763 48.7048 82.3832 49.3453C81.9902 49.9858 81.7681 50.7164 81.7382 51.4673C81.7083 52.2182 81.8715 52.9642 82.2124 53.634L77.9619 57.1965C77.5333 56.6889 76.9951 56.2853 76.3877 56.016C75.7804 55.7468 75.1199 55.6189 74.456 55.6422C73.792 55.6654 73.142 55.839 72.555 56.1501C71.968 56.4611 71.4592 56.9014 71.0672 57.4377L66.212 54.3086C66.2174 54.2201 66.2209 54.1311 66.2209 54.0413C66.2214 53.3745 66.0702 52.7163 65.7787 52.1166C65.4872 51.5169 65.0631 50.9914 64.5384 50.5798C64.0138 50.1683 63.4023 49.8816 62.7505 49.7413C62.0986 49.601 61.4233 49.611 60.7758 49.7703C60.1284 49.9296 59.5256 50.2342 59.0133 50.661C58.5009 51.0877 58.0924 51.6255 57.8186 52.2335C57.5449 52.8415 57.4131 53.5038 57.4332 54.1703C57.4533 54.8368 57.6247 55.49 57.9347 56.0804L52.9035 60.9984C51.9227 60.5073 50.7938 60.4002 49.7381 60.6981C48.6825 60.996 47.7761 61.6774 47.1967 62.6088C46.6173 63.5402 46.4066 64.6544 46.6059 65.733C46.8052 66.8116 47.4001 67.777 48.2741 68.4398C49.1481 69.1026 50.2381 69.4151 51.3305 69.3161C52.423 69.2171 53.439 68.7137 54.1796 67.9045C54.9202 67.0953 55.3318 66.0388 55.334 64.9419C55.3361 63.845 54.9285 62.7868 54.191 61.9748L58.9299 57.3428C59.4394 57.7909 60.0458 58.1147 60.7016 58.289C61.3573 58.4632 62.0446 58.483 62.7093 58.3469C63.374 58.2108 63.9982 57.9225 64.5327 57.5046C65.0672 57.0866 65.4976 56.5505 65.79 55.9382L70.368 58.8884C70.1879 59.5522 70.1661 60.2489 70.3043 60.9227C70.4426 61.5964 70.737 62.2283 71.1639 62.7675C71.5908 63.3068 72.1382 63.7383 72.7623 64.0275C73.3863 64.3166 74.0695 64.4553 74.7569 64.4323C75.4442 64.4094 76.1166 64.2255 76.72 63.8954C77.3234 63.5652 77.8409 63.0982 78.2308 62.5317C78.6208 61.9651 78.8724 61.315 78.9654 60.6336C79.0584 59.9521 78.9902 59.2584 78.7663 58.6081L83.1853 54.9045C83.7145 55.3826 84.3522 55.7247 85.0432 55.9012C85.7342 56.0778 86.4578 56.0834 87.1515 55.9178C87.8452 55.7521 88.4882 55.42 89.0248 54.9503C89.5615 54.4805 89.9757 53.8872 90.2318 53.2216C90.4879 52.5559 90.5781 51.8379 90.4946 51.1296C90.4111 50.4213 90.1564 49.744 89.7526 49.1561C89.3488 48.5682 88.8079 48.0875 88.1767 47.7554C87.5456 47.4233 86.843 47.2498 86.1298 47.25L86.1294 47.2504Z" fill="#9B6717"/>
<path d="M81.4866 84.1783H43.3484V51.9756C43.3484 51.7636 43.2642 51.5603 43.1143 51.4105C42.9644 51.2606 42.7612 51.1764 42.5492 51.1764C42.3372 51.1764 42.134 51.2606 41.9841 51.4105C41.8342 51.5603 41.75 51.7636 41.75 51.9756V84.9425C41.75 85.3838 42.0844 85.7767 42.5257 85.7767H81.4866C81.6985 85.7767 81.9018 85.6925 82.0517 85.5426C82.2016 85.3928 82.2858 85.1895 82.2858 84.9775C82.2858 84.7656 82.2016 84.5623 82.0517 84.4124C81.9018 84.2625 81.6985 84.1783 81.4866 84.1783Z" fill="#9B6717"/>
</svg>
