<svg width="24" height="24" viewBox="0 0 24 24" fill="none" xmlns="http://www.w3.org/2000/svg">
<path d="M12.0558 5.04053C7.19466 5.04053 3.04327 8.06414 1.36133 12.3322C3.04327 16.6003 7.19466 19.6239 12.0558 19.6239C16.9169 19.6239 21.0683 16.6003 22.7502 12.3322C21.0683 8.06414 16.9169 5.04053 12.0558 5.04053ZM12.0558 17.1933C9.37244 17.1933 7.19466 15.0155 7.19466 12.3322C7.19466 9.64886 9.37244 7.47108 12.0558 7.47108C14.7391 7.47108 16.9169 9.64886 16.9169 12.3322C16.9169 15.0155 14.7391 17.1933 12.0558 17.1933ZM12.0558 9.41553C10.4419 9.41553 9.1391 10.7183 9.1391 12.3322C9.1391 13.9461 10.4419 15.2489 12.0558 15.2489C13.6697 15.2489 14.9724 13.9461 14.9724 12.3322C14.9724 10.7183 13.6697 9.41553 12.0558 9.41553Z" fill="#2DA884"/>
</svg>
