<svg width="64" height="63" viewBox="0 0 64 63" fill="none" xmlns="http://www.w3.org/2000/svg">
<g clip-path="url(#clip0_4_1911)">
<path d="M31.9443 47.4445C27.6665 47.4445 24.1665 43.9445 24.1665 39.6667V34.8056C24.1665 34.2222 24.5554 33.8333 25.1387 33.8333C25.7221 33.8333 26.1109 34.2222 26.1109 34.8056V39.6667C26.1109 42.9722 28.6387 45.5 31.9443 45.5C35.2498 45.5 37.7776 42.9722 37.7776 39.6667V34.8056C37.7776 34.2222 38.1665 33.8333 38.7498 33.8333C39.3332 33.8333 39.7221 34.2222 39.7221 34.8056V39.6667C39.7221 43.9445 36.2221 47.4445 31.9443 47.4445Z" fill="#2DA884"/>
<path d="M31.9448 37.7227C24.3614 37.7227 18.3337 31.695 18.3337 24.1116V19.2505C18.3337 18.6672 18.7225 18.2783 19.3059 18.2783C19.8892 18.2783 20.2781 18.6672 20.2781 19.2505V24.1116C20.2781 30.5283 25.5281 35.7783 31.9448 35.7783C38.3614 35.7783 43.6114 30.5283 43.6114 24.1116V19.2505C43.6114 18.6672 44.0003 18.2783 44.5837 18.2783C45.167 18.2783 45.5559 18.6672 45.5559 19.2505V24.1116C45.5559 31.695 39.5281 37.7227 31.9448 37.7227ZM56.2503 63.0005H7.63921C7.05588 63.0005 6.66699 62.6116 6.66699 62.0283V53.4727C6.66699 48.8061 9.58366 44.7227 14.0559 43.3616L24.9448 39.6672H25.7225C25.917 39.8616 26.1114 40.0561 26.1114 40.445C26.5003 43.3616 29.0281 45.3061 31.9448 45.3061C34.8614 45.3061 37.1948 43.1672 37.7781 40.445C37.7781 40.2505 37.9726 39.8616 38.167 39.6672C38.3614 39.4727 38.7503 39.4727 38.9448 39.6672L49.8337 43.3616C54.3059 44.7227 57.2225 48.8061 57.2225 53.4727V62.0283C57.2225 62.6116 56.8337 63.0005 56.2503 63.0005ZM8.61144 61.0561H55.2781V53.4727C55.2781 49.7783 52.9448 46.2783 49.2503 45.1116L39.3337 41.8061C38.3614 45.1116 35.4448 47.2505 31.9448 47.2505C28.4448 47.2505 25.5281 44.9172 24.5559 41.8061L14.6392 45.1116C10.9448 46.2783 8.61144 49.7783 8.61144 53.4727V61.0561Z" fill="#2DA884"/>
<path d="M56.2503 63.0003H44.5837C44.0003 63.0003 43.6114 62.6115 43.6114 62.0281V60.0837C43.6114 53.667 48.4725 48.2226 54.6948 47.6392C55.0837 47.6392 55.4726 47.8337 55.667 48.0281C56.6392 49.7781 57.2225 51.5281 57.2225 53.4726V62.0281C57.2225 62.6115 56.8337 63.0003 56.2503 63.0003ZM45.5559 61.0559H55.2781V53.4726C55.2781 52.1115 54.8892 50.7503 54.3059 49.5837C49.2503 50.5559 45.5559 54.8337 45.5559 60.0837V61.0559ZM19.3059 63.0003H7.63921C7.05588 63.0003 6.66699 62.6115 6.66699 62.0281V53.4726C6.66699 51.5281 7.25033 49.5837 8.22255 48.0281C8.41699 47.6392 8.80588 47.4448 9.19477 47.4448C15.6114 48.2226 20.2781 53.667 20.2781 59.8892V61.8337C20.2781 62.6115 19.8892 63.0003 19.3059 63.0003ZM8.61144 61.0559H18.3337V60.0837C18.3337 54.8337 14.6392 50.5559 9.58366 49.5837C9.00033 50.7503 8.61144 52.1115 8.61144 53.4726V61.0559ZM44.5837 20.2226H43.6114C42.0559 20.2226 40.6948 18.8614 40.6948 17.3059V13.417C40.6948 12.8337 40.3059 12.4448 39.7225 12.4448H24.167C23.5837 12.4448 23.1948 12.8337 23.1948 13.417V17.3059C23.1948 18.8614 21.8337 20.2226 20.2781 20.2226H19.3059C18.7225 20.2226 18.3337 19.8337 18.3337 19.2503C18.3337 18.667 18.7225 18.2781 19.3059 18.2781H20.2781C20.8614 18.2781 21.2503 17.8892 21.2503 17.3059V13.417C21.2503 11.8614 22.6114 10.5003 24.167 10.5003H39.7225C41.2781 10.5003 42.6392 11.8614 42.6392 13.417V17.3059C42.6392 17.8892 43.0281 18.2781 43.6114 18.2781H44.5837C45.167 18.2781 45.5559 18.667 45.5559 19.2503C45.5559 19.8337 45.167 20.2226 44.5837 20.2226Z" fill="#2DA884"/>
<path d="M44.5832 20.2225H44.3887C43.8054 20.028 43.6109 19.6392 43.6109 19.0558L45.3609 11.0836C45.7498 9.13916 45.3609 7.00027 43.9998 5.44471C42.8332 3.69471 40.8887 2.72249 38.7498 2.72249H29.0276C27.4721 2.72249 26.1109 4.0836 26.1109 5.63916C26.1109 6.22249 25.7221 6.61138 25.1387 6.61138C24.5554 6.61138 24.1665 6.22249 24.1665 5.63916C24.1665 2.91693 26.3054 0.778046 29.0276 0.778046H38.7498C41.4721 0.778046 43.9998 1.94471 45.5554 4.0836C47.1109 6.22249 47.8887 8.94471 47.3054 11.4725L45.5554 19.4447C45.3609 19.8336 44.9721 20.2225 44.5832 20.2225Z" fill="#2DA884"/>
<path d="M20.2775 20.2223H19.3053C18.9164 20.2223 18.5275 19.8334 18.3331 19.4445L16.1942 11.2778C15.6108 9.13893 16.1942 7.19448 17.3608 5.44448C18.5275 3.69448 20.8608 2.72226 22.8053 2.72226H23.1942C24.7497 2.72226 26.1108 4.08337 26.1108 5.63893C26.1108 6.22226 25.7219 6.61115 25.1386 6.61115C24.5553 6.61115 24.1664 6.22226 24.1664 5.63893C24.1664 5.05559 23.7775 4.6667 23.1942 4.6667H22.8053C21.2497 4.6667 19.8886 5.44448 18.9164 6.61115C17.9442 7.77781 17.7497 9.33337 18.1386 10.6945L20.0831 18.2778H20.2775C20.8608 18.2778 21.2497 18.6667 21.2497 19.25C21.2497 19.8334 20.8608 20.2223 20.2775 20.2223ZM48.4719 26.0556H44.583C43.9997 26.0556 43.6108 25.6667 43.6108 25.0834V19.25C43.6108 18.6667 43.9997 18.2778 44.583 18.2778H46.5275C48.083 18.2778 49.4442 19.6389 49.4442 21.1945V25.0834C49.4442 25.6667 49.0553 26.0556 48.4719 26.0556ZM45.5553 24.1111H47.4997V21.1945C47.4997 20.6111 47.1108 20.2223 46.5275 20.2223H45.5553V24.1111Z" fill="#2DA884"/>
<path d="M42.6388 31.8889H36.8054C36.2221 31.8889 35.8332 31.5 35.8332 30.9167C35.8332 30.3334 36.2221 29.9445 36.8054 29.9445H42.6388C45.361 29.9445 47.4999 27.8056 47.4999 25.0834V21.1945C47.4999 20.6111 47.8888 20.2222 48.4721 20.2222C49.0554 20.2222 49.4443 20.6111 49.4443 21.1945V25.0834C49.4443 28.7778 46.3332 31.8889 42.6388 31.8889ZM19.3054 26.0556H17.361C15.8054 26.0556 14.4443 24.6945 14.4443 23.1389V21.1945C14.4443 19.6389 15.8054 18.2778 17.361 18.2778H19.3054C19.8888 18.2778 20.2777 18.6667 20.2777 19.25V25.0834C20.2777 25.6667 19.8888 26.0556 19.3054 26.0556ZM17.361 20.2222C16.7777 20.2222 16.3888 20.6111 16.3888 21.1945V23.1389C16.3888 23.7222 16.7777 24.1111 17.361 24.1111H18.3332V20.2222H17.361Z" fill="#2DA884"/>
<path d="M34.8621 33.834H32.9176C31.3621 33.834 30.001 32.4729 30.001 30.9174C30.001 29.3618 31.3621 28.0007 32.9176 28.0007H34.8621C36.4176 28.0007 37.7788 29.3618 37.7788 30.9174C37.7788 32.4729 36.4176 33.834 34.8621 33.834ZM32.9176 29.9451C32.3343 29.9451 31.9454 30.334 31.9454 30.9174C31.9454 31.5007 32.3343 31.8896 32.9176 31.8896H34.8621C35.4454 31.8896 35.8343 31.5007 35.8343 30.9174C35.8343 30.334 35.4454 29.9451 34.8621 29.9451H32.9176Z" fill="#2DA884"/>
</g>
<defs>
<clipPath id="clip0_4_1911">
<rect width="62.2222" height="62.2222" fill="white" transform="translate(0.833496 0.778046)"/>
</clipPath>
</defs>
</svg>
