<svg width="64" height="63" viewBox="0 0 64 63" fill="none" xmlns="http://www.w3.org/2000/svg">
<path d="M33.6273 18.4627C33.6273 15.6241 31.2627 13.3133 28.3547 13.3133C25.4484 13.3133 23.084 15.6241 23.084 18.4627C23.0838 25.2762 33.6273 25.2728 33.6273 18.4627ZM28.3547 20.0564C27.4086 20.0564 26.6395 19.3412 26.6395 18.4627C26.6395 17.5841 27.4086 16.8689 28.3547 16.8689C29.3009 16.8689 30.0717 17.5841 30.0717 18.4627C30.0717 19.3412 29.3009 20.0564 28.3547 20.0564Z" fill="#2DA884"/>
<path d="M3.53516 58.5647C3.53516 59.5473 4.33036 60.3425 5.31293 60.3425H58.5768C59.5593 60.3425 60.3545 59.5473 60.3545 58.5647C60.3545 57.5821 59.5593 56.7869 58.5768 56.7869H49.304C49.3298 56.6659 49.3771 56.553 49.3771 56.4241C49.3771 52.5075 46.3094 49.3217 42.5403 49.3217C41.5385 49.3217 40.5734 49.5421 39.6879 49.9658C37.6774 48.4693 34.9396 48.0943 32.6619 48.9763C32.4761 48.7139 32.2683 48.4725 32.0504 48.2415C32.0998 48.1039 32.1579 47.9693 32.1723 47.8184C32.1759 47.8045 32.1775 47.7889 32.1792 47.7733C32.3529 46.8184 32.509 45.8636 32.6324 44.9244C32.6584 44.8271 32.6776 44.7299 32.688 44.631C32.6968 44.5841 32.7176 44.4853 32.7227 44.4627C32.7332 44.4054 32.7401 44.3341 32.7453 44.263C32.7561 44.1875 32.7636 44.1112 32.7741 44.0353C33.9592 44.4145 35.1702 44.5997 36.3686 44.5997C40.9519 44.598 45.3339 41.9436 47.2852 37.5061C47.4761 37.0737 47.4866 36.5841 47.3147 36.145C47.1428 35.7059 46.8043 35.3516 46.372 35.1624C41.8413 33.1789 36.8333 34.1834 33.4744 37.3587C33.5999 35.5158 33.6658 33.6677 33.6792 31.8182C33.9213 31.497 34.101 31.1663 34.2242 30.8481C38.3867 32.8566 44.6224 27.6949 42.8544 23.7647C47.2662 22.34 47.2649 14.743 42.8509 13.3238C44.6223 9.42429 38.4347 4.19834 34.2242 6.23354C32.6594 2.209 24.0475 2.20776 22.4777 6.23176C18.2815 4.2058 12.0884 9.42767 13.8582 13.3235C9.44431 14.7427 9.44147 22.3436 13.8564 23.7644C12.0278 27.8294 18.4294 32.8001 22.4779 30.8495C23.0091 32.2175 24.4623 33.8269 28.3547 33.8269C29.007 33.8269 29.5679 33.7681 30.0904 33.6863C29.9924 37.0721 29.7049 40.4741 29.2141 43.8357C29.2105 43.8565 29.2072 43.8808 29.2054 43.9085C29.1915 43.9711 29.1759 44.0492 29.1638 44.1395C29.143 44.2141 29.1291 44.2888 29.1186 44.3653C29.0358 45.0168 28.9181 45.6817 28.8057 46.3445C28.3151 46.2259 27.807 46.1605 27.2872 46.1605C24.1881 46.1605 21.5753 48.3637 20.8288 51.3393C18.1136 51.5928 15.9174 53.8741 15.7298 56.7386C15.7288 56.7555 15.7369 56.7702 15.7364 56.7871H5.31329C4.33036 56.7869 3.53516 57.5821 3.53516 58.5647ZM42.9865 37.8252C41.1151 40.228 38.0351 41.4293 35.023 40.9327C36.9033 38.4849 39.9657 37.3061 42.9865 37.8252ZM25.2747 24.8426C22.9711 23.6988 22.2288 27.7836 20.3528 27.7836C19.0342 27.7836 17.0784 25.905 17.0784 25.2957C17.0784 24.8353 19.4162 23.598 19.8267 23.3861C21.6539 22.4422 20.6662 19.6414 18.6445 20.0666C15.2788 20.7742 14.1323 20.859 14.1323 18.5406C14.1323 16.271 15.1616 16.3043 18.6376 17.0163C19.4918 17.19 20.372 16.7073 20.6688 15.8721C20.9675 15.0387 20.6063 14.1118 19.8216 13.7002C19.4274 13.4938 17.0784 12.2353 17.0784 11.7887C17.0784 11.143 19.7405 8.35833 21.3232 9.69149C22.7641 10.9119 23.4214 13.1605 25.2747 12.2401C27.1519 11.3119 25.7366 9.50713 25.7366 7.81131C25.7366 6.46376 30.964 6.45842 30.964 7.81131C30.964 9.47371 29.575 11.3304 31.4397 12.2419C33.7656 13.3891 34.474 9.29736 36.3529 9.29736C37.6712 9.29736 39.6308 11.175 39.6308 11.7887C39.6308 12.2405 37.2852 13.4895 36.8843 13.6984C35.0685 14.6465 36.0514 17.422 38.0649 17.0161C41.4153 16.329 42.5771 16.2206 42.5771 18.5404C42.5771 23.0746 37.2015 17.9706 36.0336 21.2053C35.1211 23.7475 39.6308 24.1473 39.6308 25.2956C39.6308 25.9096 37.6752 27.7834 36.3529 27.7834C35.3664 27.7834 34.2911 26.2534 33.6688 25.398C32.5096 23.8003 29.9855 25.023 30.5195 26.924C30.8477 28.089 30.964 28.9171 30.964 29.2712C30.964 30.174 29.1392 30.2712 28.3545 30.2712C22.6553 30.2714 28.394 26.3811 25.2747 24.8426ZM21.3339 54.8703C21.5197 54.8703 21.688 54.8947 21.8253 54.9414C22.4068 55.1411 23.0596 55.0561 23.5353 54.6636C24.0111 54.271 24.2541 53.6931 24.1689 53.0821C24.1689 51.2262 25.5682 49.7157 27.287 49.7157C28.6116 49.7157 29.7922 50.6184 30.2244 51.9638C30.4015 52.5142 30.8356 52.943 31.3876 53.1165C31.9432 53.2902 32.5421 53.1807 32.9988 52.8284C34.5561 51.6339 36.82 51.8717 38.1672 53.3665C38.7938 54.0662 39.8616 54.1512 40.5977 53.5661C41.162 53.1148 41.8338 52.8769 42.5405 52.8769C44.3496 52.8769 45.8217 54.4671 45.8217 56.4237C45.8217 56.5526 45.869 56.6655 45.8952 56.7866H19.3234C19.4806 55.7029 20.3174 54.8703 21.3339 54.8703Z" fill="#2DA884"/>
</svg>
