<svg width="63" height="63" viewBox="0 0 63 63" fill="none" xmlns="http://www.w3.org/2000/svg">
<path d="M38.2731 33.2734H33.4754C33.4784 33.2301 33.5006 33.1927 33.5006 33.1485V29.6658C33.5006 29.6558 33.4949 29.6475 33.4949 29.6381H35.2281C36.1257 29.6381 36.8809 28.9696 36.992 28.0807L39.4816 8.10846C39.9044 4.41388 35.7435 2.11362 31.7229 2.11362C27.7044 2.11362 23.5453 4.43219 23.9659 8.10846L23.9677 8.11362C23.968 8.11842 23.9673 8.12268 23.9677 8.12748L26.4555 28.0805C26.5666 28.9694 27.3218 29.6379 28.2194 29.6379H29.9508C29.9508 29.6475 29.9451 29.6557 29.9451 29.6656V33.1483C29.9451 33.1925 29.9673 33.2299 29.9703 33.2733H25.1742C22.9261 33.2733 21.0962 35.0805 21.0962 37.3028V53.0736C21.0962 53.6361 21.3618 54.1639 21.8114 54.499L30.6603 61.0892C30.9762 61.3236 31.3495 61.4416 31.7229 61.4416C32.0962 61.4416 32.4693 61.3236 32.7854 61.0892L41.6361 54.499C42.0857 54.1639 42.3513 53.6361 42.3513 53.0736V37.3028C42.3511 35.0807 40.5213 33.2734 38.2731 33.2734ZM27.4971 7.70579C27.3845 6.70828 29.557 5.66935 31.7229 5.66935C33.3374 5.66935 36.0781 6.52873 35.9499 7.70366L33.6587 26.0825H29.7888L27.4971 7.70579ZM38.7956 52.1815L31.7227 57.4471L24.6516 52.1815V37.3031C24.6516 37.0409 24.8859 36.8292 25.1741 36.8292H38.2731C38.5613 36.8292 38.7956 37.0409 38.7956 37.3031V52.1815Z" fill="#2DA884"/>
</svg>
