<svg width="63" height="63" viewBox="0 0 63 63" fill="none" xmlns="http://www.w3.org/2000/svg">
<path d="M31.7221 20.7399C25.9925 20.7399 21.3518 25.3807 21.3518 31.1103C21.3518 36.8399 25.9925 41.4807 31.7221 41.4807C37.4518 41.4807 42.0925 36.8399 42.0925 31.1103C42.0925 25.3807 37.4518 20.7399 31.7221 20.7399ZM54.8999 28.5177C53.7073 17.7066 45.1258 9.12513 34.3147 7.93254V5.18439C34.3147 3.75846 33.1481 2.5918 31.7221 2.5918C30.2962 2.5918 29.1295 3.75846 29.1295 5.18439V7.93254C18.3184 9.12513 9.73695 17.7066 8.54435 28.5177H5.79621C4.37028 28.5177 3.20361 29.6844 3.20361 31.1103C3.20361 32.5362 4.37028 33.7029 5.79621 33.7029H8.54435C9.73695 44.514 18.3184 53.0955 29.1295 54.2881V57.0362C29.1295 58.4622 30.2962 59.6288 31.7221 59.6288C33.1481 59.6288 34.3147 58.4622 34.3147 57.0362V54.2881C45.1258 53.0955 53.7073 44.514 54.8999 33.7029H57.648C59.074 33.7029 60.2406 32.5362 60.2406 31.1103C60.2406 29.6844 59.074 28.5177 57.648 28.5177H54.8999ZM31.7221 49.2585C21.6888 49.2585 13.574 41.1436 13.574 31.1103C13.574 21.077 21.6888 12.9622 31.7221 12.9622C41.7555 12.9622 49.8703 21.077 49.8703 31.1103C49.8703 41.1436 41.7555 49.2585 31.7221 49.2585Z" fill="#2DA884"/>
</svg>
