<svg width="25" height="25" viewBox="0 0 25 25" fill="none" xmlns="http://www.w3.org/2000/svg">
<path fill-rule="evenodd" clip-rule="evenodd" d="M3.37356 9.90797C3.65832 9.62321 4.12 9.62321 4.40476 9.90797L5.86309 11.3663C6.14785 11.6511 6.14785 12.1127 5.86309 12.3975C5.57833 12.6823 5.11665 12.6823 4.83189 12.3975L3.88916 11.4548L2.94643 12.3975C2.66167 12.6823 2.19999 12.6823 1.91523 12.3975C1.63047 12.1127 1.63047 11.6511 1.91523 11.3663L3.37356 9.90797Z" fill="white" fill-opacity="0.9"/>
<path fill-rule="evenodd" clip-rule="evenodd" d="M19.4152 12.8246C19.7 12.5399 20.1617 12.5399 20.4464 12.8246L21.3892 13.7674L22.3319 12.8246C22.6167 12.5399 23.0783 12.5399 23.3631 12.8246C23.6478 13.1094 23.6478 13.5711 23.3631 13.8558L21.9048 15.3142C21.62 15.5989 21.1583 15.5989 20.8736 15.3142L19.4152 13.8558C19.1305 13.5711 19.1305 13.1094 19.4152 12.8246Z" fill="white" fill-opacity="0.9"/>
<path fill-rule="evenodd" clip-rule="evenodd" d="M12.6392 4.59023C9.94632 4.59023 7.57147 5.92525 6.11426 7.96909C5.88048 8.29699 5.42514 8.37329 5.09724 8.1395C4.76934 7.90572 4.69305 7.45038 4.92683 7.12248C6.64296 4.71548 9.45006 3.1319 12.6392 3.1319C17.8738 3.1319 22.1183 7.37641 22.1183 12.6111C22.1183 13.3354 22.0304 14.0347 21.8798 14.7039C21.7914 15.0968 21.4013 15.3436 21.0084 15.2552C20.6155 15.1668 20.3687 14.7767 20.4571 14.3838C20.5865 13.8085 20.66 13.2168 20.66 12.6111C20.66 8.18183 17.0684 4.59023 12.6392 4.59023Z" fill="white" fill-opacity="0.9"/>
<path fill-rule="evenodd" clip-rule="evenodd" d="M4.8294 7.3134C4.95775 6.93169 5.37122 6.7263 5.75293 6.85464C7.92043 7.58342 10.2308 7.99301 12.6392 7.99301C15.0475 7.99301 17.3579 7.58342 19.5254 6.85464C19.9071 6.7263 20.3206 6.93169 20.4489 7.3134C20.5773 7.69511 20.3719 8.10859 19.9902 8.23693C17.6815 9.01315 15.2144 9.45134 12.6392 9.45134C10.0639 9.45134 7.59678 9.01315 5.28817 8.23693C4.90646 8.10859 4.70106 7.69511 4.8294 7.3134Z" fill="white" fill-opacity="0.9"/>
<path fill-rule="evenodd" clip-rule="evenodd" d="M4.26603 9.96301C4.65891 10.0514 4.90575 10.4416 4.81735 10.8345C4.68791 11.4097 4.61444 12.0015 4.61444 12.6072C4.61444 17.0364 8.20603 20.628 12.6353 20.628C15.3292 20.628 17.7039 19.2929 19.16 17.2493C19.3937 16.9214 19.849 16.8449 20.177 17.0786C20.505 17.3123 20.5814 17.7676 20.3477 18.0956C18.6325 20.5028 15.8253 22.0863 12.6353 22.0863C7.40062 22.0863 3.1561 17.8418 3.1561 12.6072C3.1561 11.8829 3.24402 11.1835 3.39458 10.5143C3.48298 10.1215 3.87314 9.87462 4.26603 9.96301Z" fill="white" fill-opacity="0.9"/>
<path fill-rule="evenodd" clip-rule="evenodd" d="M12.6362 17.2252C10.2279 17.2252 7.91752 17.6348 5.75002 18.3636C5.36831 18.4919 4.95483 18.2865 4.82649 17.9048C4.69815 17.5231 4.90354 17.1096 5.28525 16.9813C7.59386 16.2051 10.061 15.7669 12.6362 15.7669C15.2115 15.7669 17.6786 16.2051 19.9872 16.9813C20.3689 17.1096 20.5743 17.5231 20.446 17.9048C20.3177 18.2865 19.9042 18.4919 19.5225 18.3636C17.355 17.6348 15.0446 17.2252 12.6362 17.2252Z" fill="white" fill-opacity="0.9"/>
<path fill-rule="evenodd" clip-rule="evenodd" d="M10.7006 4.03696C11.2262 3.50338 11.8818 3.1319 12.6392 3.1319C13.3966 3.1319 14.0521 3.50338 14.5777 4.03696C15.1008 4.56798 15.5384 5.29897 15.8902 6.14343C16.5953 7.83553 17.0142 10.1226 17.0142 12.6111C17.0142 15.0995 16.5953 17.3866 15.8902 19.0787C15.5384 19.9232 15.1008 20.6541 14.5777 21.1852C14.0521 21.7188 13.3966 22.0902 12.6392 22.0902C11.8818 22.0902 11.2262 21.7188 10.7006 21.1852C10.1775 20.6541 9.73995 19.9232 9.38809 19.0787C8.68305 17.3866 8.26416 15.0995 8.26416 12.6111C8.26416 10.1226 8.68305 7.83553 9.38809 6.14343C9.73995 5.29897 10.1775 4.56798 10.7006 4.03696ZM10.7342 6.70433C10.1198 8.1791 9.72249 10.267 9.72249 12.6111C9.72249 14.9551 10.1198 17.043 10.7342 18.5178C11.0422 19.2568 11.3902 19.8072 11.7395 20.1617C12.0862 20.5137 12.3898 20.6319 12.6392 20.6319C12.8885 20.6319 13.1921 20.5137 13.5388 20.1617C13.8881 19.8072 14.2362 19.2568 14.5441 18.5178C15.1586 17.043 15.5558 14.9551 15.5558 12.6111C15.5558 10.267 15.1586 8.1791 14.5441 6.70433C14.2362 5.96535 13.8881 5.41493 13.5388 5.0604C13.1921 4.70844 12.8885 4.59023 12.6392 4.59023C12.3898 4.59023 12.0862 4.70844 11.7395 5.0604C11.3902 5.41493 11.0422 5.96535 10.7342 6.70433Z" fill="white" fill-opacity="0.9"/>
</svg>
