<svg width="63" height="63" viewBox="0 0 63 63" fill="none" xmlns="http://www.w3.org/2000/svg">
<path d="M59.9085 3.52358L53.5032 4.1641C52.7712 4.2556 52.2222 4.71312 52.0392 5.26214C50.7581 5.53665 49.6601 6.26868 48.745 7.18371L12.0522 48.3602L2.99339 41.4059C2.62738 41.1314 1.98686 41.1314 1.71235 41.5889C1.43784 41.9549 1.52934 42.504 1.89535 42.87C2.99339 43.785 -2.13079 39.6674 12.7842 51.4713C12.1437 52.3863 11.7777 53.4844 11.7777 54.6739C11.7777 57.785 14.2483 60.2556 17.3594 60.2556C20.4705 60.2556 22.9411 57.785 22.9411 54.6739C22.9411 53.3928 22.4836 52.2033 21.7516 51.2883L51.6731 23.6543C54.1437 21.3667 54.1437 17.6151 51.8562 15.236L47.7385 11.1183L50.1176 8.46475C50.6666 7.82423 51.4901 7.36671 52.3137 7.0922C52.6797 7.54972 53.1372 7.73273 53.6862 7.73273C53.8692 7.73273 53.1372 7.82423 60.2745 7.0922C61.281 7.0007 62.013 6.08567 61.9215 5.07913C61.83 4.1641 60.915 3.43207 59.9085 3.52358ZM39.5032 32.5301L33.464 27.1314L39.2287 20.6347L45.8169 26.5824L39.5032 32.5301ZM31.1764 40.2164L25.7777 35.7327L32.2745 28.504L38.1307 33.7197L31.1764 40.2164ZM24.4052 46.4386L19.7385 42.4125L24.4967 37.1053L29.8039 41.4974L24.4052 46.4386ZM17.3594 49.0922C16.0784 49.0922 14.9803 49.5497 14.0653 50.1902L13.4248 49.5497L18.549 43.785L23.1241 47.7196L20.562 50.0987C19.647 49.4582 18.549 49.0922 17.3594 49.0922ZM17.3594 58.4255C15.2548 58.4255 13.6078 56.687 13.6078 54.6739C13.6078 52.5693 15.3463 50.9223 17.3594 50.9223C19.464 50.9223 21.111 52.6608 21.111 54.6739C21.2026 56.7785 19.464 58.4255 17.3594 58.4255ZM50.5751 16.4255C52.2222 18.0726 52.1307 20.7262 50.4836 22.2817L47.1895 25.3929L40.4182 19.3536L46.549 12.4909L50.5751 16.4255Z" fill="white"/>
</svg>
