<svg width="63" height="64" viewBox="0 0 63 64" fill="none" xmlns="http://www.w3.org/2000/svg">
<path d="M34.3152 10.9227V10.9745C34.3152 12.7116 35.4818 14.1634 37.1152 14.6819C44.504 16.9893 49.8707 23.8597 49.8707 32.0004C49.8707 33.3486 49.7151 34.619 49.43 35.8634C49.067 37.5227 49.7411 39.2338 51.2189 40.1153L51.2448 40.1412C53.4744 41.4375 56.3781 40.2708 56.9744 37.7819C57.4151 35.9153 57.6485 33.9708 57.6485 32.0004C57.6485 20.3338 49.9226 10.4301 39.2929 7.18935C36.83 6.4375 34.3152 8.33009 34.3152 10.9227ZM28.9744 49.9412C21.2226 48.8264 14.9226 42.5264 13.7818 34.8004C12.3818 25.4671 18.0855 17.2486 26.304 14.6819C27.9633 14.1893 29.13 12.7116 29.13 10.9745V10.9227C29.13 8.33009 26.6152 6.4375 24.1263 7.18935C12.4337 10.7671 4.267 22.3819 6.02997 35.6042C7.5596 46.9597 16.7374 56.1375 28.0929 57.6671C36.2337 58.756 43.7522 56.0856 49.1707 51.1078C51.0892 49.3449 50.7522 46.2078 48.4966 44.9116C46.9929 44.0301 45.1263 44.3153 43.83 45.4819C40.0189 48.956 34.73 50.7967 28.9744 49.9412Z" fill="#2DA884"/>
</svg>
