<svg width="24" height="24" viewBox="0 0 24 24" fill="none" xmlns="http://www.w3.org/2000/svg">
<path d="M11.9342 2.27734C6.56751 2.27734 2.22168 6.6329 2.22168 11.9996C2.22168 17.3662 6.56751 21.7218 11.9342 21.7218C17.3106 21.7218 21.6661 17.3662 21.6661 11.9996C21.6661 6.6329 17.3106 2.27734 11.9342 2.27734ZM11.9439 19.7773C7.64668 19.7773 4.16612 16.2968 4.16612 11.9996C4.16612 7.70234 7.64668 4.22179 11.9439 4.22179C16.2411 4.22179 19.7217 7.70234 19.7217 11.9996C19.7217 16.2968 16.2411 19.7773 11.9439 19.7773ZM11.73 7.13845H11.6717C11.2828 7.13845 10.9717 7.44957 10.9717 7.83845V12.4273C10.9717 12.7676 11.1467 13.0885 11.4481 13.2635L15.4828 15.6843C15.8133 15.8787 16.2411 15.7815 16.4356 15.451C16.6397 15.1204 16.5328 14.6829 16.1925 14.4885L12.43 12.2523V7.83845C12.43 7.44957 12.1189 7.13845 11.73 7.13845Z" fill="#2DA884"/>
</svg>
