<svg width="24" height="24" viewBox="0 0 24 24" fill="none" xmlns="http://www.w3.org/2000/svg">
<path d="M11.8228 2.27734C6.45618 2.27734 2.11035 6.6329 2.11035 11.9996C2.11035 17.3662 6.45618 21.7218 11.8228 21.7218C17.1992 21.7218 21.5548 17.3662 21.5548 11.9996C21.5548 6.6329 17.1992 2.27734 11.8228 2.27734ZM11.8326 19.7773C7.53535 19.7773 4.0548 16.2968 4.0548 11.9996C4.0548 7.70234 7.53535 4.22179 11.8326 4.22179C16.1298 4.22179 19.6103 7.70234 19.6103 11.9996C19.6103 16.2968 16.1298 19.7773 11.8326 19.7773ZM11.6187 7.13845H11.5603C11.1715 7.13845 10.8603 7.44957 10.8603 7.83845V12.4273C10.8603 12.7676 11.0353 13.0885 11.3367 13.2635L15.3715 15.6843C15.702 15.8787 16.1298 15.7815 16.3242 15.451C16.5284 15.1204 16.4215 14.6829 16.0812 14.4885L12.3187 12.2523V7.83845C12.3187 7.44957 12.0076 7.13845 11.6187 7.13845Z" fill="#2DA884"/>
</svg>
