<svg width="63" height="63" viewBox="0 0 63 63" fill="none" xmlns="http://www.w3.org/2000/svg">
<g clip-path="url(#clip0_4_1898)">
<path d="M29.8221 41.6798C29.8221 40.2158 28.6325 38.9347 27.077 38.9347H18.7502C19.0247 38.2942 19.2077 37.3792 19.3907 36.2811C20.3057 36.4642 21.2208 36.3727 22.2273 36.0066C23.3253 35.5491 24.2404 34.8171 25.0639 33.9936C26.528 34.3596 32.3842 33.6276 32.7502 28.9609C32.8417 27.5883 35.0378 26.8563 35.0378 26.8563C35.4038 26.7648 35.5868 26.3988 35.6783 26.1243C35.7698 25.8498 35.4953 25.3923 35.2208 25.2093C33.5737 24.2027 31.8351 23.7452 30.1881 23.7452C26.0704 23.7452 23.3253 26.8563 23.2338 31.706C23.2338 32.1635 23.3253 32.621 23.5998 32.987C22.5018 34.0851 21.0378 34.9086 19.4822 34.5426C19.4822 32.987 19.2992 31.157 18.7502 29.1439C18.2927 27.6798 18.1096 26.1243 18.0181 24.6602C18.7502 24.5687 19.4822 24.2942 19.9397 23.7452C26.9855 16.3334 23.7829 7.91514 14.4495 5.44455C14.0835 5.35304 13.7175 5.44455 13.5345 5.71906C13.3515 5.99357 13.26 6.35958 13.443 6.72559C13.443 6.72559 15.09 10.1112 13.5345 11.8498C10.6979 15.0524 11.3384 19.2615 15.273 23.7452C15.5476 24.0197 15.8221 24.2027 16.0966 24.3857C16.1881 26.1243 16.4626 27.9544 16.9201 29.6929C17.3776 31.34 17.5606 32.804 17.5606 34.0851C16.0051 34.4511 14.6325 33.6276 13.5345 32.5295C13.809 32.1635 13.9005 31.706 13.9005 31.2485C13.809 26.3988 11.0639 23.2877 6.94625 23.2877C5.29919 23.2877 3.56063 23.8367 1.91357 24.7517C1.63906 24.9347 1.45605 25.3008 1.45605 25.6668C1.45605 26.0328 1.73056 26.3073 2.09658 26.3988C2.6456 26.5818 4.38416 27.4053 4.38416 28.5034C4.56717 31.523 7.12926 33.4445 11.2469 33.6276C11.2469 33.6276 11.3384 33.6276 11.4299 33.6276C11.6129 33.6276 11.8874 33.6276 12.0704 33.536C13.5345 35.0916 15.3646 36.1896 17.4691 35.9151C17.2861 37.3792 16.9201 38.4772 16.6456 39.0262H7.49527C6.03122 39.0262 4.75017 40.2158 4.75017 41.7713C4.75017 43.0524 5.66521 44.2419 6.94625 44.4249L9.50834 61.353C9.59985 61.8106 9.96586 62.1766 10.4234 62.1766C10.6064 62.1766 24.6979 62.1766 24.1489 62.1766C24.6064 62.1766 24.9724 61.8106 25.0639 61.353L27.626 44.4249C28.907 44.1504 29.8221 43.0524 29.8221 41.6798ZM30.2796 25.5753C31.1031 25.5753 31.9266 25.7583 32.7502 26.0328C31.9266 26.6733 31.0116 27.5883 30.9201 28.8694C30.7371 31.157 28.6325 31.9805 26.528 32.255C27.5345 30.791 28.175 29.4184 28.175 29.3269C28.358 28.8694 28.175 28.3204 27.7175 28.1374C27.26 27.9544 26.711 28.1374 26.528 28.5949C26.528 28.5949 25.9789 29.7844 25.1554 31.157C25.4299 27.6798 27.3515 25.5753 30.2796 25.5753ZM6.39723 28.3204C6.30573 27.0393 5.3907 26.0328 4.56717 25.4838C5.3907 25.2093 6.30573 25.0262 7.03775 25.0262C9.96586 25.0262 11.8874 27.1308 12.1619 30.6079C11.2469 29.3269 10.7894 28.1374 10.7894 28.1374C10.6064 27.6798 10.0574 27.4968 9.59984 27.6798C9.14233 27.8628 8.95932 28.4119 9.14233 28.8694C9.23383 28.9609 9.78285 30.3334 10.7894 31.7975C8.68481 31.523 6.58024 30.6994 6.39723 28.3204ZM14.9985 12.9478C16.3711 11.3923 16.1881 9.19618 15.8221 7.73213C22.4103 10.2942 24.3319 16.6079 18.7502 22.4642C18.5672 22.6472 18.2927 22.7387 18.1096 22.8302C18.1096 18.8955 18.9332 15.7844 18.9332 15.7844C19.2077 14.5949 17.4691 14.1374 17.1946 15.3269C17.1031 15.5099 16.4626 18.255 16.3711 21.8236C14.175 19.2615 12.528 15.8759 14.9985 12.9478ZM6.58024 41.6798C6.58024 41.2223 6.94625 40.7648 7.49527 40.7648H27.077C27.5345 40.7648 27.992 41.1308 27.992 41.6798C27.992 42.2289 27.626 42.5949 27.077 42.5949C18.2927 42.5949 16.2796 42.5949 7.49527 42.5949C7.03775 42.5949 6.58024 42.2289 6.58024 41.6798ZM8.86782 44.4249H13.3515L14.0835 60.255H11.2469L8.86782 44.4249ZM15.9136 60.255L15.09 44.4249H19.3907L18.7502 60.255H15.9136ZM23.4168 60.255H20.5802L21.4038 44.4249H25.8874L23.4168 60.255ZM58.7371 48.0851C58.8286 47.0785 58.7371 47.17 58.7371 40.3073C58.7371 39.7583 58.3711 39.3923 57.8221 39.3923C55.626 39.3923 53.8874 39.0262 52.4234 38.2942C52.6064 37.2877 52.7894 36.2811 52.7894 35.3661C52.7894 34.9086 52.4234 34.4511 51.7829 34.4511V11.3008L54.4364 8.73866C55.7175 7.54912 55.5345 6.26808 55.5345 4.98703C55.5345 3.15697 53.9789 1.60141 51.9659 1.60141H46.4757C44.5541 1.60141 42.907 3.06546 42.907 4.98703C42.907 6.17657 42.724 7.45762 44.0051 8.64716L46.6587 11.3008V34.3596C45.9266 34.3596 45.6521 34.8171 45.6521 35.2746C45.6521 36.0981 45.7436 37.0132 46.0181 38.0197C44.5541 38.7517 42.8155 39.1177 40.6195 39.3008C40.1619 39.3008 39.7959 39.7583 39.7959 40.2158V46.987C39.7959 48.2681 39.9789 49.5491 40.3449 50.8302C38.0574 52.0197 37.8744 53.2093 34.8547 53.5753C31.5606 54.0328 30.9201 53.8498 29.6391 55.8628L29.5476 55.9543C28.8155 57.1439 27.9005 58.1504 26.894 58.974C26.528 59.2485 26.4364 59.706 26.711 60.1635C26.894 60.5295 27.3515 60.7125 27.809 60.5295C29.09 60.072 31.0116 61.536 33.0247 61.2615C34.4887 61.0785 35.4038 60.1635 36.4103 59.9805C36.7763 59.889 37.0508 59.889 37.7829 59.889C38.7894 59.889 39.7044 59.706 40.3449 59.7975C41.26 60.072 42.175 61.17 43.5476 61.6276C46.7502 62.7256 49.5868 59.2485 51.1423 59.523C51.6913 59.6145 53.8874 61.4445 57.8221 61.6276C59.6521 61.7191 60.6587 61.0785 60.8417 59.2485C60.8417 58.1504 64.5933 52.0197 58.7371 48.0851ZM50.9593 36.2811C50.7763 38.2027 49.8613 41.1308 49.2208 43.0524C48.6717 41.2223 47.6652 38.1112 47.4822 36.2811C48.3057 36.2811 50.9593 36.2811 50.9593 36.2811ZM48.2142 10.3857L45.2861 7.45762C44.6456 6.8171 44.7371 6.08507 44.7371 5.07853C44.7371 4.1635 45.5606 3.52298 46.4757 3.52298H52.0574C52.9724 3.52298 53.7959 4.1635 53.7959 5.07853C53.7959 6.08507 53.9789 6.8171 53.2469 7.45762L50.3188 10.2942C50.1358 10.4772 50.0443 10.6602 50.0443 10.9347V34.5426H48.5802V11.0262C48.4887 10.7517 48.3972 10.5687 48.2142 10.3857ZM41.5345 47.0785V41.2223C43.4561 41.0393 45.0116 40.6733 46.3842 40.0328C46.9332 42.2289 48.0312 45.523 48.3057 46.5295C48.5802 47.353 49.7698 47.353 50.0443 46.5295C50.4103 45.4315 51.4168 42.2289 51.9659 40.2158C53.3384 40.8563 54.9855 41.2223 56.907 41.3138V46.987C56.2665 46.987 55.7175 47.4445 55.443 47.6276C54.2534 48.8171 54.711 47.9021 53.1554 47.536C51.6913 47.17 49.7698 48.3596 48.5802 49.1831C44.8286 51.6537 45.0116 50.1896 42.4495 50.2811C42.358 50.2811 42.2665 50.2811 42.0835 50.2811C41.7175 49.2746 41.5345 48.1766 41.5345 47.0785ZM59.1031 58.3334C58.5541 59.6145 59.3776 60.255 57.7306 60.1635C51.5083 59.7975 52.9724 56.2289 47.6652 59.2485C44.7371 60.8955 44.0966 60.438 42.724 59.4315C40.3449 57.6929 39.7959 58.3334 37.6914 58.3334C36.1358 58.3334 35.8613 58.3334 34.1227 59.157C32.0181 60.1635 32.1096 59.706 29.5476 59.0655C31.6521 56.5949 31.0116 56.2289 32.6587 55.9543C36.6848 55.4053 36.9593 55.4968 39.5214 53.6668C44.4626 50.0981 43.3646 54.8563 49.4038 50.8302C53.7959 47.9021 52.3319 50.4642 54.8025 50.1896C55.809 50.0981 56.358 49.2746 56.724 49.0001C57.4561 50.0066 62.3057 51.0132 59.1031 58.3334Z" fill="#2DA884"/>
</g>
<defs>
<clipPath id="clip0_4_1898">
<rect width="62.2222" height="62.2222" fill="white" transform="translate(0.722168 0.778046)"/>
</clipPath>
</defs>
</svg>
