<svg width="63" height="63" viewBox="0 0 63 63" fill="none" xmlns="http://www.w3.org/2000/svg">
<path d="M53.2706 21.801V21.5303V7.13101C53.2706 5.00941 51.597 3.28372 49.5414 3.28372H47.6994C45.7897 3.28372 44.196 4.76283 43.9876 6.72994L43.976 6.84283H39.3225C38.8624 6.84283 38.4216 7.02168 38.0898 7.33936L17.4599 27.1934C17.0571 27.5198 16.7984 28.0181 16.7984 28.577V30.2663C15.3113 30.8249 14.2447 32.2503 14.2447 33.9312V45.9833C14.2447 46.9658 15.0399 47.761 16.0224 47.761H21.2411C22.2237 47.761 23.0189 46.9658 23.0189 45.9833V33.9314C23.0189 32.2098 21.8987 30.7603 20.354 30.2322V29.3429L40.0397 10.3984H43.6152L42.7919 18.5095C40.0793 19.3145 37.9229 21.1497 37.1474 23.5182L34.1218 32.7431C34.052 32.878 34.0139 33.0234 33.9801 33.1758C31.516 42.3952 28.4009 45.5383 31.0728 49.7961C32.287 51.734 34.4624 53.158 37.0041 53.728C37.7024 57.3713 40.9042 60.1363 44.7481 60.1363C49.1005 60.1363 52.6422 56.5946 52.6422 52.2423C52.6422 51.3817 52.469 50.5676 52.2134 49.7913C52.9 48.704 53.2706 47.4995 53.2706 46.2492V21.801ZM19.4633 44.2057H17.8002V33.9314C17.8002 33.7282 17.9652 33.5616 18.1682 33.5616H19.0935C19.2967 33.5616 19.4633 33.7283 19.4633 33.9314V44.2057ZM37.0155 35.3289H49.7152V38.8844H35.8498L37.0155 35.3289ZM47.6994 6.83928H49.5414C49.6125 6.83928 49.7151 6.95216 49.7151 7.13101V18.0949C49.5791 18.083 49.4473 18.0597 49.3071 18.0597H46.412L47.3451 8.8631C47.357 8.78025 47.394 8.70647 47.394 8.62043C47.394 8.59199 47.3792 8.56834 47.378 8.54043L47.5243 7.09794C47.5416 6.9383 47.6388 6.83928 47.6994 6.83928ZM40.5259 24.6258C41.0971 22.881 43.3419 21.6153 45.8644 21.6153H49.3071C49.5033 21.6153 49.6404 21.6638 49.7151 21.7038V21.801V31.7733H38.1817L40.5259 24.6258ZM33.7359 45.3289L34.6834 42.44H49.7151V46.1575C48.354 45.0442 46.6393 44.3481 44.7481 44.3481C41.1444 44.3481 38.13 46.7904 37.188 50.0963C34.951 49.4032 33.0157 47.5315 33.7359 45.3289ZM44.7481 56.5806C42.3558 56.5806 40.4096 54.6345 40.4096 52.2421C40.4096 49.8497 42.3558 47.9036 44.7481 47.9036C47.1405 47.9036 49.0866 49.8497 49.0866 52.2421C49.0866 54.6345 47.1405 56.5806 44.7481 56.5806ZM15.578 50.0284L14.6006 51.5129C14.0607 52.3322 14.288 53.4348 15.1076 53.9747C15.9241 54.5129 17.0269 54.2913 17.5695 53.4677L18.5469 51.9833C19.0868 51.1639 18.8594 50.0613 18.0399 49.5214C17.2221 48.9834 16.1197 49.209 15.578 50.0284ZM11.6699 55.9694L10.6925 57.4538C10.1526 58.2732 10.3799 59.3758 11.1995 59.9157C12.016 60.4538 13.1188 60.2323 13.6614 59.4087L14.6388 57.9242C15.1787 57.1049 14.9513 56.0023 14.1318 55.4624C13.314 54.9244 12.2098 55.1518 11.6699 55.9694ZM24.2029 59.3896C24.6953 60.2373 25.7823 60.5258 26.6335 60.032C27.4824 59.5372 27.7689 58.4504 27.2758 57.6014L26.9129 56.9781C26.42 56.1274 25.3296 55.8426 24.4824 56.3358C23.6335 56.8305 23.3469 57.9173 23.84 58.7664L24.2029 59.3896Z" fill="#2DA884"/>
<path d="M24.2278 52.37L23.3337 50.8335C22.839 49.9828 21.7504 49.698 20.9031 50.1912C20.0543 50.6842 19.7677 51.7727 20.2608 52.6218L21.1549 54.1583C21.6473 55.0059 22.7343 55.2945 23.5855 54.8006C24.4343 54.3076 24.7209 53.2191 24.2278 52.37Z" fill="#2DA884"/>
</svg>
