<svg width="24" height="24" viewBox="0 0 24 24" fill="none" xmlns="http://www.w3.org/2000/svg">
<path d="M12.2761 15.6689C13.3075 15.6689 14.2966 15.2592 15.026 14.5299C15.7553 13.8006 16.165 12.8114 16.165 11.78C16.165 10.7486 15.7553 9.75945 15.026 9.03014C14.2966 8.30083 13.3075 7.89111 12.2761 7.89111C11.2447 7.89111 10.2555 8.30083 9.52624 9.03014C8.79693 9.75945 8.38721 10.7486 8.38721 11.78C8.38721 12.8114 8.79693 13.8006 9.52624 14.5299C10.2555 15.2592 11.2447 15.6689 12.2761 15.6689V15.6689Z" stroke="#2DA884" stroke-width="1.45833" stroke-linecap="round" stroke-linejoin="round"/>
<path d="M3.5249 15.6697V7.89187C3.5249 6.60263 4.03705 5.36618 4.94869 4.45455C5.86032 3.54291 7.09677 3.03076 8.38601 3.03076H16.1638C17.453 3.03076 18.6895 3.54291 19.6011 4.45455C20.5127 5.36618 21.0249 6.60263 21.0249 7.89187V15.6697C21.0249 16.9589 20.5127 18.1953 19.6011 19.107C18.6895 20.0186 17.453 20.5308 16.1638 20.5308H8.38601C7.09677 20.5308 5.86032 20.0186 4.94869 19.107C4.03705 18.1953 3.5249 16.9589 3.5249 15.6697Z" stroke="#2DA884" stroke-width="1.45833"/>
<path d="M17.6221 6.44362L17.6321 6.43262" stroke="#2DA884" stroke-width="1.45833" stroke-linecap="round" stroke-linejoin="round"/>
</svg>
