<svg width="19" height="19" viewBox="0 0 19 19" fill="none" xmlns="http://www.w3.org/2000/svg">
<path fill-rule="evenodd" clip-rule="evenodd" d="M14.5832 2.09717C15.2278 2.09717 15.846 2.35324 16.3019 2.80906C16.7577 3.26488 17.0138 3.8831 17.0138 4.52772V14.2499C17.0138 14.8946 16.7577 15.5128 16.3019 15.9686C15.846 16.4244 15.2278 16.6805 14.5832 16.6805H4.86098C4.21635 16.6805 3.59813 16.4244 3.14231 15.9686C2.6865 15.5128 2.43042 14.8946 2.43042 14.2499V4.52772C2.43042 3.8831 2.6865 3.26488 3.14231 2.80906C3.59813 2.35324 4.21635 2.09717 4.86098 2.09717H14.5832ZM6.48135 7.76846C6.26647 7.76846 6.0604 7.85382 5.90846 8.00576C5.75652 8.1577 5.67116 8.36378 5.67116 8.57865V12.6296C5.67116 12.8444 5.75652 13.0505 5.90846 13.2025C6.0604 13.3544 6.26647 13.4398 6.48135 13.4398C6.69622 13.4398 6.90229 13.3544 7.05423 13.2025C7.20617 13.0505 7.29153 12.8444 7.29153 12.6296V8.57865C7.29153 8.36378 7.20617 8.1577 7.05423 8.00576C6.90229 7.85382 6.69622 7.76846 6.48135 7.76846ZM8.9119 6.95828C8.69703 6.95828 8.49095 7.04364 8.33901 7.19558C8.18707 7.34752 8.10172 7.55359 8.10172 7.76846V12.6296C8.10172 12.8444 8.18707 13.0505 8.33901 13.2025C8.49095 13.3544 8.69703 13.4398 8.9119 13.4398C9.12678 13.4398 9.33285 13.3544 9.48479 13.2025C9.63673 13.0505 9.72209 12.8444 9.72209 12.6296V9.6643C10.0382 9.32048 10.4226 9.04646 10.8507 8.85978C11.1205 8.74474 11.5264 8.69775 11.8083 8.78687C11.9018 8.8106 11.9851 8.86405 12.0457 8.93918C12.0878 8.99589 12.1526 9.12228 12.1526 9.38883V12.6296C12.1526 12.8444 12.238 13.0505 12.3899 13.2025C12.5419 13.3544 12.748 13.4398 12.9628 13.4398C13.1777 13.4398 13.3838 13.3544 13.5357 13.2025C13.6877 13.0505 13.773 12.8444 13.773 12.6296V9.38883C13.773 8.84601 13.6353 8.36314 13.3485 7.97587C13.0846 7.6247 12.7152 7.3672 12.2944 7.24103C11.5636 7.01175 10.7543 7.13895 10.2139 7.37066C10.0407 7.44477 9.87217 7.52918 9.70912 7.62344C9.67516 7.43676 9.57675 7.26793 9.43106 7.14637C9.28537 7.02482 9.10164 6.95825 8.9119 6.95828ZM6.48135 5.33791C6.26647 5.33791 6.0604 5.42327 5.90846 5.57521C5.75652 5.72715 5.67116 5.93322 5.67116 6.14809C5.67116 6.36297 5.75652 6.56904 5.90846 6.72098C6.0604 6.87292 6.26647 6.95828 6.48135 6.95828C6.69622 6.95828 6.90229 6.87292 7.05423 6.72098C7.20617 6.56904 7.29153 6.36297 7.29153 6.14809C7.29153 5.93322 7.20617 5.72715 7.05423 5.57521C6.90229 5.42327 6.69622 5.33791 6.48135 5.33791Z" fill="#343844"/>
</svg>
