<svg width="24" height="25" viewBox="0 0 24 25" fill="none" xmlns="http://www.w3.org/2000/svg">
<path fill-rule="evenodd" clip-rule="evenodd" d="M12.2015 18.7328C11.9686 18.6222 11.698 18.6222 11.4652 18.7328L6.46309 21.1096C5.82952 21.4106 5.12169 20.8649 5.25701 20.1797L6.27715 15.014C6.33115 14.7406 6.24684 14.4582 6.05156 14.2584L2.35371 10.475C1.86247 9.97243 2.16039 9.1278 2.8597 9.04051L8.03389 8.39467C8.31728 8.3593 8.56413 8.18536 8.69165 7.9312L11.0692 3.19223C11.3837 2.56544 12.283 2.56544 12.5974 3.19223L14.975 7.9312C15.1025 8.18536 15.3493 8.3593 15.6327 8.39467L20.8069 9.04051C21.5062 9.1278 21.8041 9.97243 21.3129 10.475L17.6151 14.2584C17.4198 14.4582 17.3355 14.7406 17.3895 15.014L18.4096 20.1797C18.5449 20.8649 17.8371 21.4106 17.2035 21.1096L12.2015 18.7328Z" fill="white"/>
</svg>
