<svg width="20" height="20" viewBox="0 0 20 20" fill="none" xmlns="http://www.w3.org/2000/svg">
<path fill-rule="evenodd" clip-rule="evenodd" d="M10.3068 15.518C10.1128 15.4258 9.88728 15.4258 9.69326 15.518L5.52486 17.4987C4.99689 17.7495 4.40704 17.2947 4.5198 16.7237L5.36992 12.419C5.41491 12.1911 5.34466 11.9558 5.18192 11.7893L2.10038 8.63653C1.69101 8.21769 1.93928 7.51383 2.52204 7.44109L6.83386 6.9029C7.07003 6.87342 7.27574 6.72847 7.382 6.51666L9.36329 2.56752C9.62534 2.0452 10.3748 2.0452 10.6368 2.56752L12.6181 6.51666C12.7244 6.72847 12.9301 6.87342 13.1662 6.9029L17.478 7.44109C18.0608 7.51383 18.3091 8.21769 17.8997 8.63653L14.8182 11.7893C14.6554 11.9558 14.5852 12.1911 14.6302 12.419L15.4803 16.7237C15.5931 17.2947 15.0032 17.7495 14.4752 17.4987L10.3068 15.518Z" fill="#343844"/>
</svg>
