<svg width="21" height="20" viewBox="0 0 21 20" fill="none" xmlns="http://www.w3.org/2000/svg">
<path fill-rule="evenodd" clip-rule="evenodd" d="M10.7512 15.518C10.5571 15.4258 10.3316 15.4258 10.1376 15.518L5.9692 17.4987C5.44123 17.7495 4.85137 17.2947 4.96414 16.7237L5.81425 12.419C5.85925 12.1911 5.78899 11.9558 5.62626 11.7893L2.54472 8.63653C2.13535 8.21769 2.38362 7.51383 2.96638 7.44109L7.2782 6.9029C7.51436 6.87342 7.72007 6.72847 7.82634 6.51666L9.80762 2.56752C10.0697 2.0452 10.8191 2.0452 11.0811 2.56752L13.0624 6.51666C13.1687 6.72847 13.3744 6.87342 13.6106 6.9029L17.9224 7.44109C18.5051 7.51383 18.7534 8.21769 18.344 8.63653L15.2625 11.7893C15.0998 11.9558 15.0295 12.1911 15.0745 12.419L15.9246 16.7237C16.0374 17.2947 15.4475 17.7495 14.9196 17.4987L10.7512 15.518Z" fill="white"/>
</svg>
