<svg width="60" height="70" viewBox="0 0 60 70" fill="none" xmlns="http://www.w3.org/2000/svg">
<g clip-path="url(#clip0_4_6515)">
<path d="M18.6563 0.639679C18.3223 0.64183 17.9942 0.727112 17.7015 0.887824C16.7404 1.42057 16.3879 2.65537 16.9204 3.61582L19.0903 7.53418C13.8622 10.7687 10.398 16.294 10.398 22.6001V23.7718C9.3938 22.6165 7.91792 21.8871 6.26886 21.8871C3.24738 21.8871 0.794189 24.3403 0.794189 27.3616V44.2256C0.794189 47.2467 3.24761 49.7001 6.26886 49.7001C7.91792 49.7001 9.3938 48.9705 10.3978 47.8152V50.1774C10.3978 53.3623 13.0039 55.9682 16.1887 55.9682H17.658V63.4702C17.658 66.4916 20.1114 68.9448 23.1327 68.9448C26.1539 68.9448 28.6071 66.4914 28.6071 63.4702V55.9682H31.1492V63.4702C31.1492 66.4916 33.6026 68.9448 36.6238 68.9448C39.6451 68.9448 42.0983 66.4914 42.0983 63.4702V55.9682H43.5678C46.7524 55.9682 49.3585 53.3623 49.3585 50.1774V47.8152C50.3625 48.9705 51.8386 49.7001 53.4876 49.7001C56.5089 49.7001 58.9621 47.2467 58.9621 44.2256V27.3616C58.9621 24.3403 56.5089 21.8871 53.4876 21.8871C51.8386 21.8871 50.3625 22.6165 49.3585 23.7718V22.7984V22.7425C49.359 22.6833 49.3585 22.6359 49.3585 22.6001C49.3585 16.2951 45.8863 10.7753 40.66 7.54056L42.8361 3.61582C43.3684 2.65537 43.0161 1.42057 42.055 0.887824C41.7623 0.727112 41.4342 0.64183 41.1002 0.639679C40.3904 0.632844 39.6939 1.007 39.327 1.66894L37.0515 5.77962C34.8267 4.95863 32.4058 4.50859 29.8784 4.50859C27.3532 4.50859 24.9278 4.95384 22.7047 5.77324L20.4295 1.66894C20.0624 1.007 19.3661 0.633299 18.6563 0.639679Z" fill="white"/>
<path d="M6.26893 23.3131C4.01444 23.3131 2.22046 25.1071 2.22046 27.3616V44.2256C2.22046 46.4801 4.01444 48.2741 6.26893 48.2741C8.52342 48.2741 10.3176 46.4801 10.3176 44.2256V27.3616C10.3176 25.1071 8.52342 23.3131 6.26893 23.3131ZM53.4879 23.3131C51.2332 23.3131 49.4392 25.1071 49.4392 27.3616V44.2256C49.4392 46.4801 51.2332 48.2741 53.4879 48.2741C55.7424 48.2741 57.5364 46.4801 57.5364 44.2256V27.3616C57.5364 25.1071 55.7424 23.3131 53.4879 23.3131Z" fill="#A4C639"/>
<path d="M23.1329 42.5576C20.8784 42.5576 19.0842 44.3516 19.0842 46.6063V63.4701C19.0842 65.7246 20.8784 67.5186 23.1329 67.5186C25.3874 67.5186 27.1814 65.7246 27.1814 63.4701V46.6063C27.1814 44.3516 25.3874 42.5576 23.1329 42.5576ZM36.6241 42.5576C34.3694 42.5576 32.5754 44.3516 32.5754 46.6063V63.4701C32.5754 65.7246 34.3694 67.5186 36.6241 67.5186C38.8786 67.5186 40.6726 65.7246 40.6726 63.4701V46.6063C40.6726 44.3516 38.8786 42.5576 36.6241 42.5576Z" fill="#A4C639"/>
<path d="M18.6686 2.06591C18.5728 2.06706 18.4789 2.09263 18.3958 2.14019C18.1071 2.30015 18.0123 2.63192 18.1725 2.92131L21.0247 8.07355C15.5377 10.9287 11.8313 16.3544 11.824 22.5815H47.9325C47.925 16.3544 44.2188 10.9285 38.7318 8.07355L41.5838 2.92154C41.7442 2.63215 41.6492 2.30015 41.3605 2.14019C41.2774 2.0926 41.1835 2.06703 41.0877 2.06591C40.8826 2.06363 40.6887 2.16617 40.5794 2.3635L37.69 7.57134C35.3266 6.52316 32.6756 5.93459 29.8782 5.93459C27.0807 5.93459 24.4299 6.52294 22.0663 7.57134L19.1769 2.3635C19.1277 2.27208 19.0542 2.19597 18.9646 2.14349C18.875 2.091 18.7726 2.06416 18.6688 2.06591H18.6686ZM11.824 24.0074V50.1777C11.8228 50.7512 11.9348 51.3193 12.1537 51.8494C12.3726 52.3795 12.6941 52.8612 13.0997 53.2667C13.5052 53.6722 13.9869 53.9937 14.517 54.2125C15.0471 54.4314 15.6152 54.5435 16.1887 54.5422H43.5678C44.1413 54.5435 44.7095 54.4314 45.2396 54.2125C45.7697 53.9936 46.2514 53.6722 46.657 53.2666C47.0625 52.861 47.384 52.3794 47.6029 51.8493C47.8218 51.3191 47.9338 50.751 47.9325 50.1774V24.0077H11.824V24.0074Z" fill="#A4C639"/>
<path d="M21.5452 12.9592C20.721 12.9592 20.0386 13.6414 20.0386 14.4656C20.0386 15.29 20.721 15.9722 21.5452 15.9722C22.3696 15.9722 23.0519 15.29 23.0519 14.4656C23.0519 13.6414 22.3696 12.9592 21.5452 12.9592ZM38.2108 12.9592C37.3864 12.9592 36.7041 13.6414 36.7041 14.4656C36.7041 15.29 37.3864 15.9722 38.2108 15.9722C39.035 15.9722 39.7174 15.29 39.7174 14.4656C39.7174 13.6414 39.035 12.9592 38.2108 12.9592Z" fill="white"/>
</g>
<defs>
<clipPath id="clip0_4_6515">
<rect width="58.3333" height="68.5872" fill="white" transform="translate(0.794189 0.444183)"/>
</clipPath>
</defs>
</svg>
