<svg width="147" height="59" viewBox="0 0 147 59" fill="none" xmlns="http://www.w3.org/2000/svg">
<g clip-path="url(#clip0_4_6534)">
<path d="M0.459229 0.571136V4.55829H28.8178V0.571136H0.459229ZM32.8357 0.571136V4.55829H73.2478C73.2478 4.55829 69.1198 0.571136 63.6527 0.571136H32.8357ZM81.1755 0.571136V4.55829H105.624L104.173 0.571136H81.1755ZM123.153 0.571136L121.701 4.55829H145.928V0.571136H123.153ZM0.459229 8.3252V12.3124H28.8178V8.3252H0.459229ZM32.8357 8.33089V12.3124H77.9373C77.9373 12.3124 77.4106 9.24374 76.4918 8.33089H32.8357ZM81.1755 8.33089V12.3124H108.305L106.962 8.33089H81.1755ZM120.25 8.33089L118.907 12.3124H145.928V8.33089H120.25ZM8.60882 16.0793V20.0715H20.8901V16.0793H8.60882ZM40.9852 16.0793V20.0715H53.2665V16.0793H40.9852ZM65.2121 16.0793V20.0715H77.4934C77.4934 20.0715 78.273 17.963 78.273 16.079H65.2121V16.0793ZM89.3251 16.0793V20.0715H111.099L109.648 16.079H89.3251V16.0793ZM117.575 16.0793L116.119 20.0718H138.001V16.0793H117.575ZM8.60882 23.839V27.8256H20.8901V23.839H8.60882ZM40.9852 23.839V27.8256H72.3543C72.3543 27.8256 74.9785 25.7797 75.8145 23.8385H40.9852V23.839ZM89.3251 23.839V27.8256H101.606V25.6061L102.386 27.8256H124.883L125.719 25.6061V27.8256H138.001V23.839H114.946L113.723 27.2164L112.493 23.839H89.3251ZM8.60882 31.5925V35.5797H20.8901V31.5925H8.60882ZM40.9852 31.5925V35.5797H75.8145C74.9782 33.6447 72.3543 31.5925 72.3543 31.5925H40.9852ZM89.3251 31.5925V35.5797H101.606V31.5925H89.3251ZM103.837 31.5925L105.323 35.5797H122.191L123.602 31.5925H103.837ZM125.719 31.5925V35.5797H138.001V31.5925H125.719ZM8.60882 39.3466V43.3337H20.8901V39.3466H8.60882ZM40.9852 39.3466V43.3337H53.2665V39.3466H40.9852ZM65.2121 39.3466V43.3337H78.273C78.273 41.452 77.4934 39.3466 77.4934 39.3466H65.2121ZM89.3251 39.3466V43.3337H101.606V39.3466H89.3251ZM106.626 39.3466L108.066 43.3337H119.374L120.825 39.3466H106.626ZM125.719 39.3466V43.3337H138.001V39.3466H125.719ZM0.68118 47.1009V51.0935H29.0397V47.1007H0.68118V47.1009ZM32.8357 47.1009V51.0935H76.4918C77.4106 50.1792 77.9373 47.1007 77.9373 47.1007H32.8357V47.1009ZM81.3974 47.1009V51.0935H101.606V47.1007H81.3974V47.1009ZM109.42 47.1009L110.9 51.0935H116.654L118.042 47.1007H109.42V47.1009ZM125.719 47.1009V51.0935H146.15V47.1007H125.719V47.1009ZM0.68118 54.8604V58.8476H29.0397V54.8604H0.68118ZM32.8357 54.8604V58.8416H63.6527C69.1198 58.8416 73.2478 54.8601 73.2478 54.8601H32.8357V54.8604ZM81.3974 54.8604V58.8476H101.606V54.8604H81.3974ZM112.226 54.8604L113.649 58.8359L113.893 58.8416L115.339 54.8601H112.226V54.8604ZM125.719 54.8604V58.8476H146.15V54.8604H125.719Z" fill="#1F70C1"/>
</g>
<defs>
<clipPath id="clip0_4_6534">
<rect width="145.691" height="58.3333" fill="white" transform="translate(0.459229 0.571136)"/>
</clipPath>
</defs>
</svg>
