<svg width="54" height="54" viewBox="0 0 54 54" fill="none" xmlns="http://www.w3.org/2000/svg">
<g clip-path="url(#clip0_4_4017)">
<path d="M11.8243 0.415161H41.7217C48.1562 0.415161 53.3721 5.63108 53.3721 12.0656V41.963C53.3721 48.3975 48.1562 53.6134 41.7217 53.6134H11.8243C5.38982 53.6134 0.173904 48.3975 0.173904 41.963V12.0656C0.173904 5.63108 5.38982 0.415161 11.8243 0.415161Z" fill="url(#paint0_linear_4_4017)"/>
<path d="M17.2227 39.0275L17.2277 39.0292L15.4088 42.1795C14.7448 43.3295 13.2744 43.7235 12.1244 43.0596C10.9746 42.3956 10.5804 40.9252 11.2443 39.7752L12.5843 37.4544L12.7129 37.2317C12.9425 36.9017 13.5092 36.3319 14.6428 36.4391C14.6428 36.4391 17.3104 36.7286 17.5034 38.115C17.5034 38.115 17.5296 38.5712 17.2227 39.0275ZM43.0203 30.9813H37.3485C36.9622 30.9553 36.7936 30.8173 36.7271 30.7371L36.723 30.7298L30.6515 20.2136L30.6436 20.2188L30.2795 19.6968C29.6827 18.7841 28.7351 21.1182 28.7351 21.1182C27.6036 23.7191 28.8958 26.676 29.3461 27.5697L37.7792 42.1764C38.443 43.3262 39.9134 43.7204 41.0636 43.0562C42.2134 42.3923 42.6076 40.9219 41.9435 39.7719L39.8349 36.1195C39.7939 36.031 39.7229 35.7907 40.1553 35.7897H43.0203C44.3482 35.7897 45.4246 34.7133 45.4246 33.3854C45.4246 32.0575 44.3482 30.9811 43.0203 30.9811V30.9813ZM32.0037 34.2496C32.0037 34.2496 32.3065 35.7897 31.1351 35.7897H10.1677C8.83982 35.7897 7.76338 34.7133 7.76338 33.3854C7.76338 32.0575 8.83982 30.9811 10.1677 30.9811H15.5582C16.4285 30.9308 16.6346 30.4283 16.6346 30.4283L16.6396 30.4308L23.6759 18.2434L23.6738 18.243C23.802 18.0076 23.6952 17.785 23.6767 17.7499L21.3528 13.7249C20.6889 12.5751 21.0829 11.1045 22.2329 10.4407C23.3829 9.7768 24.8533 10.1706 25.5173 11.3206L26.5949 13.1873L27.6707 11.3239C28.3347 10.1741 29.8051 9.77992 30.9551 10.4441C32.1051 11.108 32.4991 12.5782 31.8352 13.7282L22.0438 30.6872C22.001 30.7905 21.9879 30.9526 22.3065 30.9811H28.1591L28.1603 31.0382C28.1603 31.0382 31.543 31.0908 32.0037 34.2496Z" fill="white"/>
</g>
<defs>
<linearGradient id="paint0_linear_4_4017" x1="26.773" y1="0.415161" x2="26.773" y2="53.6134" gradientUnits="userSpaceOnUse">
<stop stop-color="#17C9FB"/>
<stop offset="1" stop-color="#1A74E8"/>
</linearGradient>
<clipPath id="clip0_4_4017">
<rect width="53.1982" height="53.1982" fill="white" transform="translate(0.173904 0.415161)"/>
</clipPath>
</defs>
</svg>
