<svg width="134" height="54" viewBox="0 0 134 54" fill="none" xmlns="http://www.w3.org/2000/svg">
<g clip-path="url(#clip0_4_4042)">
<path d="M0.960327 0.415161V4.05132H26.8225V0.415161H0.960327ZM30.4866 0.415161V4.05132H67.3413C67.3413 4.05132 63.5767 0.415161 58.5909 0.415161H30.4866ZM74.5711 0.415161V4.05132H96.8676L95.5442 0.415161H74.5711ZM112.853 0.415161L111.53 4.05132H133.624V0.415161H112.853ZM0.960327 7.48663V11.1228H26.8225V7.48663H0.960327ZM30.4866 7.49182V11.1228H71.618C71.618 11.1228 71.1376 8.32431 70.2997 7.49182H30.4866ZM74.5711 7.49182V11.1228H99.3122L98.0873 7.49182H74.5711ZM110.206 7.49182L108.981 11.1228H133.624V7.49182H110.206ZM8.39251 14.5581V18.1989H19.5927V14.5581H8.39251ZM37.9188 14.5581V18.1989H49.119V14.5581H37.9188ZM60.013 14.5581V18.1989H71.2131C71.2131 18.1989 71.9242 16.276 71.9242 14.5578H60.013V14.5581ZM82.0033 14.5581V18.1989H101.86L100.537 14.5578H82.0033V14.5581ZM107.767 14.5581L106.438 18.1992H126.394V14.5581H107.767ZM8.39251 21.6348V25.2704H19.5927V21.6348H8.39251ZM37.9188 21.6348V25.2704H66.5265C66.5265 25.2704 68.9196 23.4046 69.6821 21.6342H37.9188V21.6348ZM82.0033 21.6348V25.2704H93.2035V23.2463L93.9145 25.2704H114.431L115.194 23.2463V25.2704H126.394V21.6348H105.369L104.253 24.7148L103.132 21.6348H82.0033ZM8.39251 28.7057V32.3419H19.5927V28.7057H8.39251ZM37.9188 28.7057V32.3419H69.6821C68.9194 30.5773 66.5265 28.7057 66.5265 28.7057H37.9188ZM82.0033 28.7057V32.3419H93.2035V28.7057H82.0033ZM95.238 28.7057L96.5926 32.3419H111.976L113.263 28.7057H95.238ZM115.194 28.7057V32.3419H126.394V28.7057H115.194ZM8.39251 35.7772V39.4134H19.5927V35.7772H8.39251ZM37.9188 35.7772V39.4134H49.119V35.7772H37.9188ZM60.013 35.7772V39.4134H71.9242C71.9242 37.6973 71.2131 35.7772 71.2131 35.7772H60.013ZM82.0033 35.7772V39.4134H93.2035V35.7772H82.0033ZM97.7811 35.7772L99.0942 39.4134H109.407L110.73 35.7772H97.7811ZM115.194 35.7772V39.4134H126.394V35.7772H115.194ZM1.16274 42.8489V46.49H27.0249V42.8487H1.16274V42.8489ZM30.4866 42.8489V46.49H70.2997C71.1376 45.6562 71.618 42.8487 71.618 42.8487H30.4866V42.8489ZM74.7735 42.8489V46.49H93.2035V42.8487H74.7735V42.8489ZM100.329 42.8489L101.679 46.49H106.926L108.192 42.8487H100.329V42.8489ZM115.194 42.8489V46.49H133.826V42.8487H115.194V42.8489ZM1.16274 49.9253V53.5615H27.0249V49.9253H1.16274ZM30.4866 49.9253V53.556H58.5909C63.5767 53.556 67.3413 49.9251 67.3413 49.9251H30.4866V49.9253ZM74.7735 49.9253V53.5615H93.2035V49.9253H74.7735ZM102.888 49.9253L104.186 53.5508L104.409 53.556L105.727 49.9251H102.888V49.9253ZM115.194 49.9253V53.5615H133.826V49.9253H115.194Z" fill="#1F70C1"/>
</g>
<defs>
<clipPath id="clip0_4_4042">
<rect width="132.866" height="53.1982" fill="white" transform="translate(0.960327 0.415161)"/>
</clipPath>
</defs>
</svg>
