<svg width="59" height="64" viewBox="0 0 59 64" fill="none" xmlns="http://www.w3.org/2000/svg">
<g clip-path="url(#clip0_4_6527)">
<path d="M54.7553 51.1343C54.3155 54.4028 52.116 57.2311 49.0366 58.488C47.5281 59.1157 45.8944 59.3048 44.2601 59.1157C42.6892 58.9275 41.1179 58.4246 39.4841 57.4828C37.2214 56.2246 34.9589 54.2772 32.3195 51.3861C36.4676 46.2956 38.9807 41.6449 39.9238 37.4978C40.3639 35.5493 40.4265 33.7895 40.2383 32.1552C39.9872 30.5843 39.4214 29.1383 38.5412 27.8816C36.5929 25.0538 33.3253 23.4196 29.6802 23.4196C26.035 23.4196 22.7672 25.1167 20.819 27.8816C19.9388 29.1385 19.3739 30.5843 19.1221 32.1552C18.871 33.7895 18.9336 35.6119 19.4365 37.498C20.379 41.6447 22.9555 46.3585 27.0408 51.4481C24.4641 54.3399 22.1388 56.2879 19.8761 57.5451C18.2423 58.488 16.6709 58.9908 15.1001 59.1786C13.4806 59.3595 11.8415 59.1441 10.3238 58.5508C7.24419 57.2939 5.04507 54.4648 4.60484 51.197C4.41662 49.6263 4.54217 48.0554 5.17062 46.2956C5.35884 45.6667 5.67352 45.0394 5.98729 44.2847C6.42752 43.2796 6.93042 42.2104 7.43264 41.1418L7.49598 41.0169C11.8318 31.6523 16.4827 22.1 21.3219 12.7993L21.5103 12.4215C22.0132 11.4797 22.5154 10.4746 23.0188 9.53148C23.5212 8.52568 24.0868 7.58278 24.7779 6.7652C26.0977 5.25674 27.8575 4.43984 29.8057 4.43984C31.754 4.43984 33.5136 5.25674 34.8334 6.76543C35.5247 7.58278 36.0903 8.52568 36.5931 9.53171C37.096 10.4746 37.5983 11.4797 38.1012 12.4215L38.2903 12.7993C43.0661 22.1627 47.717 31.715 52.0533 41.0796V41.1418C52.5562 42.1476 52.9958 43.2796 53.4986 44.2847C53.8131 45.0394 54.1271 45.6665 54.3153 46.2956C54.8182 47.9294 55.0067 49.5012 54.7556 51.1343H54.7553ZM29.6802 48.1803C26.2868 43.9074 24.0868 39.8849 23.3328 36.4922C23.019 35.0464 22.9555 33.7895 23.1446 32.6581C23.2699 31.6523 23.6475 30.7721 24.1495 30.0174C25.3437 28.3221 27.3546 27.2518 29.6802 27.2518C32.0056 27.2518 34.0793 28.2583 35.2105 30.0174C35.7129 30.7721 36.0903 31.6523 36.2158 32.6581C36.4042 33.7895 36.3414 35.1091 36.0274 36.4922C35.2734 39.8227 33.0736 43.8447 29.6802 48.1803ZM58.0234 44.9127C57.7094 44.1585 57.3949 43.3418 57.0809 42.6505C56.578 41.5198 56.0751 40.4506 55.6351 39.4449L55.5722 39.3826C51.2364 29.9552 46.5855 20.4029 41.6834 10.9775L41.4952 10.5993C40.9923 9.65658 40.4894 8.65078 39.9872 7.64544C39.3583 6.51364 38.7296 5.32077 37.7245 4.18874C35.7127 1.67494 32.8224 0.29248 29.7426 0.29248C26.6004 0.29248 23.7726 1.67493 21.6983 4.06364C20.7561 5.19453 20.0648 6.38854 19.4363 7.52057C18.9334 8.52568 18.4305 9.53148 17.9278 10.4746L17.7394 10.8506C12.9007 20.2773 8.18709 29.8303 3.8506 39.2571L3.78794 39.3826C3.34771 40.3878 2.84481 41.4558 2.34191 42.5878C2.00571 43.3326 1.6915 44.0872 1.39969 44.8505C0.582343 47.1752 0.331236 49.3752 0.645233 51.6372C1.33703 56.3508 4.47928 60.3106 8.81555 62.0698C10.4491 62.7616 12.146 63.0756 13.906 63.0756C14.4087 63.0756 15.0372 63.0127 15.5401 62.9493C17.6136 62.6975 19.7503 62.0075 21.8239 60.8129C24.401 59.3675 26.8522 57.2939 29.6171 54.2772C32.382 57.2939 34.896 59.3677 37.4098 60.8129C39.4841 62.0075 41.6205 62.6975 43.6943 62.9493C44.1972 63.0127 44.8257 63.0756 45.3283 63.0756C47.0881 63.0756 48.8475 62.7616 50.4188 62.0698C54.818 60.3106 57.8974 56.2882 58.5887 51.6372C59.0916 49.4372 58.8398 47.2387 58.0231 44.9125L58.0234 44.9127Z" fill="#E0565B"/>
</g>
<defs>
<clipPath id="clip0_4_6527">
<rect width="58.3333" height="62.8906" fill="white" transform="translate(0.514648 0.29248)"/>
</clipPath>
</defs>
</svg>
