<svg width="65" height="54" viewBox="0 0 65 54" fill="none" xmlns="http://www.w3.org/2000/svg">
<g clip-path="url(#clip0_4_4036)">
<path d="M32.646 0.415161C15.5027 0.415161 2.07173 22.2264 0.800964 40.6485C6.18073 49.9852 19.1539 53.4948 32.6465 53.4948C46.1381 53.4948 59.112 49.9852 64.489 40.6483C63.218 22.2264 49.7888 0.415161 32.6462 0.415161" fill="#B6DEFF"/>
<path d="M60.0091 36.2603C60.0091 36.2603 56.2228 28.0743 52.3743 23.2984C48.5231 18.5206 43.8199 13.3181 41.0391 13.3181C38.2598 13.3181 30.4904 27.0742 26.9261 27.0742C23.361 27.0742 21.5083 20.8383 17.1254 20.8383C12.7406 20.8383 5.77441 35.8759 5.77441 35.8759L5.30237 38.4252C5.30237 38.4252 7.72251 49.155 33.0414 49.155C58.3612 49.155 60.3848 38.6013 60.3848 38.6013L60.0094 36.26" fill="#66CC66"/>
<path d="M27.3229 32.9448C23.3908 32.9448 21.375 29.065 20.2821 26.6701C19.2993 24.5127 19.1292 21.1065 16.3406 21.0111C16.6146 20.9025 16.8784 20.8383 17.1256 20.8383C21.5086 20.8383 23.3613 27.0742 26.9263 27.0742C30.4906 27.0742 38.2601 13.3179 41.0393 13.3179C41.5631 13.3179 42.153 13.5027 42.7931 13.8314C42.3196 13.7689 41.7124 13.8124 41.2446 14.2817C40.3463 15.1803 32.191 32.9448 27.3229 32.9448Z" fill="#17AD49"/>
</g>
<defs>
<clipPath id="clip0_4_4036">
<rect width="63.9378" height="53.1982" fill="white" transform="translate(0.602051 0.415161)"/>
</clipPath>
</defs>
</svg>
