<svg width="59" height="60" viewBox="0 0 59 60" fill="none" xmlns="http://www.w3.org/2000/svg">
<g clip-path="url(#clip0_4_6504)">
<path opacity="0.5" d="M29.4185 8.63002V25.3963L43.9669 16.9958V0.22934L29.4185 8.63002Z" fill="#13A049"/>
<path opacity="0.5" d="M29.4186 8.63002L14.8704 0.22934V17.0307L29.4186 25.4314V8.63002Z" fill="#A2CC39"/>
<path opacity="0.9" d="M43.967 0.22934L29.4185 8.63002L14.8702 0.22934L0.321777 8.63002L29.4185 25.4314L58.4979 8.63002L43.967 0.22934Z" fill="url(#paint0_linear_4_6504)"/>
<path d="M29.4185 25.4314L0.321777 8.63004V25.4314L14.8702 33.8321V50.6161L29.4185 59.0168L43.967 50.6161V33.8321L58.4979 25.4314V8.63004L29.4185 25.4314Z" fill="url(#paint1_linear_4_6504)"/>
<path d="M29.4185 25.4314V59.0168L43.9669 50.6161V33.8321L58.4978 25.4314V8.63004L29.4185 25.4314Z" fill="url(#paint2_linear_4_6504)"/>
<path opacity="0.05" d="M29.4185 42.2155V59.0168L43.9669 50.6161L29.4185 42.2155Z" fill="#231F20"/>
<path opacity="0.1" d="M29.4186 59.0517V42.2503L14.8704 50.651L29.4186 59.0517Z" fill="#231F20"/>
<path opacity="0.05" d="M14.8702 17.0307L0.321777 25.4314L14.8702 33.8321L29.4185 25.4314L14.8702 17.0307Z" fill="#231F20"/>
<path opacity="0.05" d="M43.9669 17.0307L29.4185 25.4314L43.9669 33.8321L58.4978 25.4314L43.9669 17.0307Z" fill="#231F20"/>
</g>
<defs>
<linearGradient id="paint0_linear_4_6504" x1="58.5049" y1="12.8281" x2="0.321777" y2="12.8281" gradientUnits="userSpaceOnUse">
<stop stop-color="#37BDA6"/>
<stop offset="1" stop-color="#8AD3B8"/>
</linearGradient>
<linearGradient id="paint1_linear_4_6504" x1="58.5049" y1="33.8224" x2="0.321777" y2="33.8224" gradientUnits="userSpaceOnUse">
<stop offset="0.5" stop-color="#4BB6AD"/>
<stop offset="1" stop-color="#78BBC1"/>
</linearGradient>
<linearGradient id="paint2_linear_4_6504" x1="29.4132" y1="33.8224" x2="58.5045" y2="33.8224" gradientUnits="userSpaceOnUse">
<stop stop-color="#4379A7"/>
<stop offset="1" stop-color="#7CC9B8"/>
</linearGradient>
<clipPath id="clip0_4_6504">
<rect width="58.3333" height="59.0169" fill="white" transform="translate(0.321777 0.22934)"/>
</clipPath>
</defs>
</svg>
