<svg width="54" height="64" viewBox="0 0 54 64" fill="none" xmlns="http://www.w3.org/2000/svg">
<g clip-path="url(#clip0_4_4030)">
<path d="M17.0823 0.917931C16.7778 0.919892 16.4786 0.997666 16.2116 1.14423C15.3351 1.63008 15.0136 2.75618 15.4993 3.63208L17.4782 7.2055C12.7103 10.1553 9.55105 15.1942 9.55105 20.9452V22.0137C8.63525 20.9602 7.28929 20.295 5.7854 20.295C3.0299 20.295 0.792664 22.5322 0.792664 25.2875V40.667C0.792664 43.4221 3.03011 45.6595 5.7854 45.6595C7.28929 45.6595 8.63525 44.9941 9.55084 43.9406V46.0949C9.55084 48.9994 11.9275 51.3758 14.832 51.3758H16.1719V58.2174C16.1719 60.9729 18.4094 63.2102 21.1647 63.2102C23.92 63.2102 26.1572 60.9727 26.1572 58.2174V51.3758H28.4755V58.2174C28.4755 60.9729 30.7129 63.2102 33.4682 63.2102C36.2235 63.2102 38.4608 60.9727 38.4608 58.2174V51.3758H39.8009C42.7052 51.3758 45.0819 48.9994 45.0819 46.0949V43.9406C45.9974 44.9941 47.3436 45.6595 48.8475 45.6595C51.6028 45.6595 53.84 43.4221 53.84 40.667V25.2875C53.84 22.5322 51.6028 20.295 48.8475 20.295C47.3436 20.295 45.9974 20.9602 45.0819 22.0137V21.126V21.0751C45.0823 21.021 45.0819 20.9778 45.0819 20.9452C45.0819 15.1952 41.9153 10.1613 37.1491 7.21132L39.1336 3.63208C39.6191 2.75618 39.2978 1.63008 38.4213 1.14423C38.1543 0.997666 37.8551 0.919892 37.5506 0.917931C36.9032 0.911696 36.268 1.25291 35.9334 1.85659L33.8583 5.6054C31.8293 4.85668 29.6215 4.44626 27.3166 4.44626C25.0137 4.44626 22.8018 4.85231 20.7744 5.59958L18.6995 1.85659C18.3647 1.25291 17.7296 0.912112 17.0823 0.917931Z" fill="white"/>
<path d="M5.7855 21.5953C3.72947 21.5953 2.09341 23.2314 2.09341 25.2874V40.6669C2.09341 42.7229 3.72947 44.359 5.7855 44.359C7.84152 44.359 9.47779 42.7229 9.47779 40.6669V25.2874C9.47779 23.2314 7.84152 21.5953 5.7855 21.5953ZM48.8478 21.5953C46.7916 21.5953 45.1555 23.2314 45.1555 25.2874V40.6669C45.1555 42.7229 46.7916 44.359 48.8478 44.359C50.9038 44.359 52.5399 42.7229 52.5399 40.6669V25.2874C52.5399 23.2314 50.9038 21.5953 48.8478 21.5953Z" fill="#A4C639"/>
<path d="M21.1649 39.1458C19.1089 39.1458 17.4726 40.7818 17.4726 42.838V58.2173C17.4726 60.2733 19.1089 61.9094 21.1649 61.9094C23.2209 61.9094 24.857 60.2733 24.857 58.2173V42.838C24.857 40.7818 23.2209 39.1458 21.1649 39.1458ZM33.4685 39.1458C31.4122 39.1458 29.7762 40.7818 29.7762 42.838V58.2173C29.7762 60.2733 31.4122 61.9094 33.4685 61.9094C35.5245 61.9094 37.1605 60.2733 37.1605 58.2173V42.838C37.1605 40.7818 35.5245 39.1458 33.4685 39.1458Z" fill="#A4C639"/>
<path d="M17.0935 2.21846C17.0062 2.21951 16.9205 2.24283 16.8447 2.2862C16.5815 2.43208 16.495 2.73465 16.6411 2.99856L19.2422 7.69725C14.2382 10.3011 10.8581 15.2491 10.8514 20.928H43.7813C43.7745 15.2491 40.3945 10.3008 35.3906 7.69725L37.9914 2.99877C38.1377 2.73485 38.0511 2.43208 37.7878 2.2862C37.712 2.2428 37.6264 2.21948 37.5391 2.21846C37.352 2.21638 37.1752 2.30989 37.0754 2.48985L34.4405 7.23925C32.2851 6.28334 29.8675 5.74658 27.3163 5.74658C24.765 5.74658 22.3476 6.28313 20.1921 7.23925L17.5571 2.48985C17.5122 2.40648 17.4452 2.33707 17.3634 2.28921C17.2817 2.24134 17.1884 2.21687 17.0937 2.21846H17.0935ZM10.8514 22.2285V46.0949C10.8503 46.618 10.9525 47.1361 11.1521 47.6195C11.3518 48.1029 11.6449 48.5422 12.0148 48.912C12.3846 49.2818 12.8239 49.575 13.3073 49.7746C13.7908 49.9742 14.3089 50.0764 14.8319 50.0752H39.8008C40.3239 50.0764 40.842 49.9742 41.3255 49.7746C41.8089 49.575 42.2482 49.2818 42.618 48.9119C42.9879 48.5421 43.281 48.1028 43.4807 47.6194C43.6803 47.1359 43.7825 46.6178 43.7813 46.0947V22.2287H10.8514V22.2285Z" fill="#A4C639"/>
<path d="M19.717 12.1528C18.9654 12.1528 18.343 12.775 18.343 13.5266C18.343 14.2785 18.9654 14.9007 19.717 14.9007C20.4689 14.9007 21.091 14.2785 21.091 13.5266C21.091 12.775 20.4689 12.1528 19.717 12.1528ZM34.9155 12.1528C34.1637 12.1528 33.5415 12.775 33.5415 13.5266C33.5415 14.2785 34.1637 14.9007 34.9155 14.9007C35.6671 14.9007 36.2895 14.2785 36.2895 13.5266C36.2895 12.775 35.6671 12.1528 34.9155 12.1528Z" fill="white"/>
</g>
<defs>
<clipPath id="clip0_4_4030">
<rect width="53.1982" height="62.5495" fill="white" transform="translate(0.792664 0.739502)"/>
</clipPath>
</defs>
</svg>
