<svg width="71" height="59" viewBox="0 0 71 59" fill="none" xmlns="http://www.w3.org/2000/svg">
<g clip-path="url(#clip0_4_6522)">
<path d="M35.4033 0.571136C16.6052 0.571136 1.8778 24.4878 0.484375 44.6881C6.38344 54.926 20.6088 58.7744 35.4039 58.7744C50.1978 58.7744 64.424 54.926 70.32 44.6878C68.9263 24.4878 54.2009 0.571136 35.4036 0.571136" fill="#B6DEFF"/>
<path d="M65.4079 39.8763C65.4079 39.8763 61.2561 30.9001 57.0361 25.6632C52.8131 20.4242 47.6559 14.7196 44.6067 14.7196C41.5591 14.7196 33.0397 29.8035 29.1314 29.8035C25.2222 29.8035 23.1907 22.9657 18.3847 22.9657C13.5767 22.9657 5.93802 39.4548 5.93802 39.4548L5.42041 42.2502C5.42041 42.2502 8.07417 54.0157 35.837 54.0157C63.6009 54.0157 65.8198 42.4432 65.8198 42.4432L65.4082 39.876" fill="#66CC66"/>
<path d="M29.5666 36.2407C25.2548 36.2407 23.0445 31.9865 21.846 29.3604C20.7684 26.9948 20.5819 23.2598 17.5242 23.1552C17.8246 23.036 18.1138 22.9657 18.3849 22.9657C23.191 22.9657 25.2225 29.8035 29.1317 29.8035C33.04 29.8035 41.5594 14.7193 44.607 14.7193C45.1813 14.7193 45.8282 14.922 46.5301 15.2824C46.0108 15.2139 45.3451 15.2616 44.8321 15.7761C43.847 16.7615 34.9045 36.2407 29.5666 36.2407Z" fill="#17AD49"/>
</g>
<defs>
<clipPath id="clip0_4_6522">
<rect width="70.1096" height="58.3333" fill="white" transform="translate(0.266357 0.571136)"/>
</clipPath>
</defs>
</svg>
