<svg width="1400" height="807" viewBox="0 0 1400 807" fill="none" xmlns="http://www.w3.org/2000/svg">
<mask id="mask0_4_3373" style="mask-type:alpha" maskUnits="userSpaceOnUse" x="0" y="0" width="1400" height="807">
<path d="M0 0H1400V806.328H0V0Z" fill="url(#paint0_linear_4_3373)"/>
</mask>
<g mask="url(#mask0_4_3373)">
<rect x="603.75" y="159.75" width="386.391" height="386.391" rx="42.875" transform="rotate(-30 603.75 159.75)" fill="url(#paint1_linear_4_3373)"/>
<rect x="-64.75" y="724.999" width="386.391" height="386.391" rx="42.875" transform="rotate(-30 -64.75 724.999)" fill="url(#paint2_linear_4_3373)"/>
<rect x="974.719" y="-54.4294" width="386.391" height="386.391" rx="42.875" transform="rotate(-30 974.719 -54.4294)" fill="url(#paint3_linear_4_3373)"/>
<rect x="306.22" y="510.821" width="386.391" height="386.391" rx="42.875" transform="rotate(-30 306.22 510.821)" fill="url(#paint4_linear_4_3373)"/>
</g>
<defs>
<linearGradient id="paint0_linear_4_3373" x1="15.75" y1="-8.75006" x2="1400" y2="805.437" gradientUnits="userSpaceOnUse">
<stop stop-color="#461096"/>
<stop offset="1" stop-color="#7F3CE0"/>
</linearGradient>
<linearGradient id="paint1_linear_4_3373" x1="796.945" y1="159.75" x2="796.945" y2="546.141" gradientUnits="userSpaceOnUse">
<stop stop-color="white" stop-opacity="0.05"/>
<stop offset="1" stop-color="#C4C4C4" stop-opacity="0"/>
</linearGradient>
<linearGradient id="paint2_linear_4_3373" x1="128.445" y1="724.999" x2="128.445" y2="1111.39" gradientUnits="userSpaceOnUse">
<stop stop-color="#C4C4C4" stop-opacity="0"/>
<stop offset="1" stop-color="white" stop-opacity="0.07"/>
</linearGradient>
<linearGradient id="paint3_linear_4_3373" x1="1167.91" y1="-54.4294" x2="1167.91" y2="331.962" gradientUnits="userSpaceOnUse">
<stop stop-color="white" stop-opacity="0.05"/>
<stop offset="1" stop-color="#C4C4C4" stop-opacity="0"/>
</linearGradient>
<linearGradient id="paint4_linear_4_3373" x1="499.416" y1="510.821" x2="499.416" y2="897.212" gradientUnits="userSpaceOnUse">
<stop stop-color="#C4C4C4" stop-opacity="0"/>
<stop offset="1" stop-color="white" stop-opacity="0.07"/>
</linearGradient>
</defs>
</svg>
