<svg width="92" height="22" viewBox="0 0 92 22" fill="none" xmlns="http://www.w3.org/2000/svg">
<path d="M86.0228 12.6254C86.6951 12.7716 87.2797 12.9469 87.7766 13.0931C88.4488 13.3269 89.0042 13.59 89.4426 13.9115C90.5825 14.7007 91.1671 15.8114 91.1379 17.1851C91.1379 18.5881 90.5825 19.6988 89.5011 20.488C88.4196 21.2772 87.0458 21.6864 85.4383 21.6864C82.4569 21.6864 80.4694 20.5464 79.4756 18.2666L82.1939 16.6882C82.6908 18.0912 83.7722 18.7927 85.4383 18.7927C87.1043 18.7927 87.9227 18.2374 87.9227 17.1559C87.9227 16.3667 86.9874 15.7237 85.146 15.2853C84.4445 15.1099 83.8599 14.9345 83.4215 14.7884C82.7492 14.5545 82.1939 14.2915 81.7554 13.97C80.6155 13.1808 80.0309 12.1285 80.0602 10.784C80.0602 9.43949 80.5571 8.35803 81.5801 7.53962C82.6031 6.72121 83.8891 6.31201 85.409 6.31201C87.9227 6.31201 89.7349 7.33502 90.8164 9.35181L88.1565 10.8425C87.6596 9.73178 86.7536 9.17643 85.409 9.17643C83.9768 9.17643 83.2753 9.70255 83.2753 10.7256C83.2753 11.4563 84.1814 12.0993 86.0228 12.6254Z" fill="#1C1F25"/>
<path d="M64.6891 19.465C63.1984 17.9743 62.4385 16.1329 62.4385 13.9992C62.4385 11.8655 63.1984 10.0241 64.6891 8.5334C66.1798 7.04273 67.9919 6.31201 70.1549 6.31201C72.3178 6.31201 74.13 7.04273 75.6207 8.5334C77.1113 10.0241 77.8713 11.8655 77.8713 13.9992C77.8713 16.1329 77.1113 17.9743 75.6207 19.465C74.13 20.9556 72.3178 21.6864 70.1549 21.6864C67.9919 21.6864 66.1798 20.9556 64.6891 19.465ZM70.1549 18.6173C71.4409 18.6173 72.5224 18.1789 73.3993 17.302C74.2761 16.4252 74.7146 15.3145 74.7146 13.9992C74.7146 12.6839 74.2761 11.5732 73.3993 10.6963C72.5224 9.81947 71.4409 9.38103 70.1549 9.38103C68.8688 9.38103 67.7873 9.81947 66.9105 10.6963C66.0336 11.5732 65.5952 12.6839 65.5952 13.9992C65.5952 15.3145 66.0336 16.4252 66.9105 17.302C67.7873 18.1789 68.8688 18.6173 70.1549 18.6173Z" fill="#1C1F25"/>
<path d="M57.1084 6.69201V9.14723C57.8975 7.33505 59.4174 6.42896 61.6096 6.42896V9.84872C60.4112 9.76104 59.359 10.0533 58.4529 10.7256C57.5468 11.3686 57.1084 12.4501 57.1084 13.9408V21.3064H53.9517V6.69201H57.1084Z" fill="#1C1F25"/>
<path d="M47.1031 14.5255V6.69214H50.2598V21.3065H47.1031V19.4359C46.1385 20.9266 44.6186 21.6865 42.5726 21.6865C40.8774 21.6865 39.5328 21.1604 38.5098 20.0789C37.4868 18.9975 36.9607 17.5068 36.9607 15.6654V6.69214H40.1174V15.3439C40.1174 16.4253 40.4097 17.273 40.9943 17.8575C41.5788 18.4421 42.368 18.7344 43.391 18.7344C44.5309 18.7344 45.437 18.3837 46.0801 17.6822C46.7523 16.9514 47.1031 15.8992 47.1031 14.5255Z" fill="#1C1F25"/>
<path d="M34.359 15.3437H22.7259C22.9598 16.4252 23.4859 17.2728 24.3335 17.8866C25.1519 18.5004 26.1749 18.7927 27.4026 18.7927C29.0686 18.7927 30.3254 18.1789 31.1731 16.9805L33.7744 18.5004C32.3422 20.6341 30.2085 21.6864 27.3733 21.6864C25.0058 21.6864 23.1059 20.9556 21.6153 19.5234C20.1538 18.062 19.4231 16.2206 19.4231 13.9992C19.4231 11.8363 20.1538 10.0241 21.586 8.5334C23.0182 7.04273 24.8596 6.31201 27.1395 6.31201C29.2732 6.31201 31.0269 7.07196 32.4007 8.56263C33.7744 10.0533 34.4759 11.8947 34.4759 14.0284C34.4759 14.4084 34.4467 14.8468 34.359 15.3437ZM22.6967 12.7716H31.29C31.0854 11.6317 30.5885 10.7256 29.8285 10.0825C29.0978 9.46872 28.1917 9.17643 27.1103 9.17643C25.9411 9.17643 24.9766 9.49795 24.1874 10.141C23.3982 10.784 22.9013 11.6609 22.6967 12.7716Z" fill="#1C1F25"/>
<path d="M12.9983 14.7301V0.846436H16.3596V21.3066H13.729L4.08348 7.42291V21.3066H0.722168V0.846436H3.35276L12.9983 14.7301Z" fill="#1C1F25"/>
</svg>
