<svg width="91" height="22" viewBox="0 0 91 22" fill="none" xmlns="http://www.w3.org/2000/svg">
<path d="M85.8568 12.4592C86.5277 12.6053 87.1111 12.7807 87.6071 12.9268C88.278 13.1607 88.8323 13.4237 89.2699 13.7452C90.4076 14.5344 90.991 15.6451 90.9618 17.0189C90.9618 18.4218 90.4076 19.5325 89.3282 20.3217C88.2488 21.1109 86.8778 21.5201 85.2733 21.5201C82.2978 21.5201 80.3141 20.3802 79.3223 18.1003L82.0352 16.522C82.5312 17.925 83.6105 18.6264 85.2733 18.6264C86.9361 18.6264 87.7529 18.0711 87.7529 16.9896C87.7529 16.2005 86.8194 15.5574 84.9816 15.119C84.2815 14.9436 83.698 14.7682 83.2605 14.6221C82.5895 14.3883 82.0352 14.1252 81.5977 13.8037C80.46 13.0145 79.8765 11.9623 79.9057 10.6178C79.9057 9.27323 80.4016 8.19177 81.4226 7.37336C82.4437 6.55496 83.7272 6.14575 85.2441 6.14575C87.7529 6.14575 89.5616 7.16876 90.6409 9.18555L87.9863 10.6762C87.4904 9.56552 86.5861 9.01017 85.2441 9.01017C83.8147 9.01017 83.1146 9.53629 83.1146 10.5593C83.1146 11.29 84.0189 11.9331 85.8568 12.4592Z" fill="#1C1F25"/>
<path d="M64.5643 19.2987C63.0766 17.808 62.3181 15.9666 62.3181 13.8329C62.3181 11.6992 63.0766 9.85781 64.5643 8.36714C66.0521 6.87647 67.8608 6.14575 70.0195 6.14575C72.1782 6.14575 73.9868 6.87647 75.4746 8.36714C76.9624 9.85781 77.7208 11.6992 77.7208 13.8329C77.7208 15.9666 76.9624 17.808 75.4746 19.2987C73.9868 20.7894 72.1782 21.5201 70.0195 21.5201C67.8608 21.5201 66.0521 20.7894 64.5643 19.2987ZM70.0195 18.4511C71.303 18.4511 72.3824 18.0126 73.2575 17.1358C74.1327 16.2589 74.5703 15.1482 74.5703 13.8329C74.5703 12.5176 74.1327 11.4069 73.2575 10.5301C72.3824 9.65321 71.303 9.21477 70.0195 9.21477C68.7359 9.21477 67.6566 9.65321 66.7814 10.5301C65.9062 11.4069 65.4687 12.5176 65.4687 13.8329C65.4687 15.1482 65.9062 16.2589 66.7814 17.1358C67.6566 18.0126 68.7359 18.4511 70.0195 18.4511Z" fill="#1C1F25"/>
<path d="M56.9985 6.526V8.98122C57.7861 7.16903 59.303 6.26294 61.4909 6.26294V9.68271C60.2949 9.59502 59.2447 9.88731 58.3404 10.5596C57.436 11.2026 56.9985 12.2841 56.9985 13.7747V21.1404H53.8479V6.526H56.9985Z" fill="#1C1F25"/>
<path d="M47.013 14.3592V6.52588H50.1636V21.1403H47.013V19.2696C46.0503 20.7603 44.5334 21.5202 42.4914 21.5202C40.7994 21.5202 39.4575 20.9941 38.4365 19.9127C37.4155 18.8312 36.8904 17.3405 36.8904 15.4991V6.52588H40.0409V15.1776C40.0409 16.2591 40.3327 17.1067 40.9161 17.6913C41.4995 18.2759 42.2872 18.5681 43.3082 18.5681C44.4459 18.5681 45.3502 18.2174 45.992 17.5159C46.6629 16.7852 47.013 15.7329 47.013 14.3592Z" fill="#1C1F25"/>
<path d="M34.2933 15.1774H22.6829C22.9163 16.2589 23.4414 17.1065 24.2873 17.7204C25.1041 18.3342 26.1252 18.6264 27.3504 18.6264C29.0132 18.6264 30.2676 18.0126 31.1135 16.8143L33.7098 18.3342C32.2804 20.4679 30.1509 21.5201 27.3212 21.5201C24.9583 21.5201 23.0621 20.7894 21.5744 19.3572C20.1158 17.8957 19.3865 16.0543 19.3865 13.8329C19.3865 11.67 20.1158 9.85781 21.5452 8.36714C22.9746 6.87647 24.8124 6.14575 27.0878 6.14575C29.2174 6.14575 30.9677 6.9057 32.3388 8.39637C33.7098 9.88704 34.41 11.7284 34.41 13.8622C34.41 14.2421 34.3808 14.6806 34.2933 15.1774ZM22.6537 12.6053H31.2302C31.026 11.4654 30.5301 10.5593 29.7716 9.91627C29.0423 9.30246 28.138 9.01017 27.0587 9.01017C25.8918 9.01017 24.9291 9.33169 24.1415 9.97472C23.3538 10.6178 22.8579 11.4946 22.6537 12.6053Z" fill="#1C1F25"/>
<path d="M12.9743 14.5636V0.679932H16.3291V21.1401H13.7036L4.07693 7.25641V21.1401H0.722168V0.679932H3.34763L12.9743 14.5636Z" fill="#1C1F25"/>
</svg>
