<svg width="17" height="17" viewBox="0 0 17 17" fill="none" xmlns="http://www.w3.org/2000/svg">
<path d="M8.52899 0.750977C9.34202 4.77357 12.2996 7.91585 16.0858 8.77965C12.2996 9.64345 9.34202 12.7857 8.52899 16.8083C7.71595 12.7857 4.75835 9.64345 0.972168 8.77965C4.75835 7.91585 7.71595 4.77357 8.52899 0.750977Z" fill="#387FF5"/>
<path d="M14.1063 0.5C14.3155 1.47422 15.0765 2.23524 16.0508 2.44444C15.0765 2.65365 14.3155 3.41467 14.1063 4.38889C13.8971 3.41467 13.1361 2.65365 12.1619 2.44444C13.1361 2.23524 13.8971 1.47422 14.1063 0.5Z" fill="#387FF5"/>
<path d="M2.92562 13.1389C3.08252 13.8696 3.65328 14.4403 4.38395 14.5972C3.65328 14.7542 3.08252 15.3249 2.92562 16.0556C2.76872 15.3249 2.19795 14.7542 1.46729 14.5972C2.19795 14.4403 2.76872 13.8696 2.92562 13.1389Z" fill="#387FF5"/>
</svg>
