<svg width="16" height="17" viewBox="0 0 16 17" fill="none" xmlns="http://www.w3.org/2000/svg">
<path d="M8.32675 0.584229C9.1382 4.60683 12.09 7.7491 15.8688 8.6129C12.09 9.4767 9.1382 12.619 8.32675 16.6416C7.5153 12.619 4.56347 9.4767 0.784668 8.6129C4.56347 7.7491 7.5153 4.60683 8.32675 0.584229Z" fill="#387FF5"/>
<path d="M13.893 0.333496C14.1018 1.30772 14.8614 2.06874 15.8337 2.27794C14.8614 2.48714 14.1018 3.24816 13.893 4.22238C13.6843 3.24816 12.9247 2.48714 11.9524 2.27794C12.9247 2.06874 13.6843 1.30772 13.893 0.333496Z" fill="#387FF5"/>
<path d="M2.7343 12.9722C2.89089 13.7028 3.46055 14.2736 4.18979 14.4305C3.46055 14.5874 2.89089 15.1582 2.7343 15.8888C2.5777 15.1582 2.00805 14.5874 1.27881 14.4305C2.00805 14.2736 2.5777 13.7028 2.7343 12.9722Z" fill="#387FF5"/>
</svg>
