<svg width="24" height="24" viewBox="0 0 24 24" fill="none" xmlns="http://www.w3.org/2000/svg">
<path fill-rule="evenodd" clip-rule="evenodd" d="M12.2015 18.5105C11.9686 18.3999 11.698 18.3999 11.4652 18.5105L6.46309 20.8873C5.82952 21.1884 5.12169 20.6426 5.25701 19.9574L6.27715 14.7917C6.33115 14.5183 6.24684 14.236 6.05156 14.0362L2.35371 10.2528C1.86247 9.75017 2.16039 8.90554 2.8597 8.81825L8.03389 8.17242C8.31728 8.13704 8.56413 7.9631 8.69165 7.70894L11.0692 2.96997C11.3837 2.34318 12.283 2.34318 12.5974 2.96997L14.975 7.70894C15.1025 7.96311 15.3493 8.13704 15.6327 8.17242L20.8069 8.81825C21.5062 8.90554 21.8041 9.75017 21.3129 10.2528L17.6151 14.0362C17.4198 14.236 17.3355 14.5183 17.3895 14.7917L18.4096 19.9574C18.5449 20.6426 17.8371 21.1884 17.2035 20.8873L12.2015 18.5105Z" fill="#79829F"/>
</svg>
