<svg width="18" height="19" viewBox="0 0 18 19" fill="none" xmlns="http://www.w3.org/2000/svg">
<path fill-rule="evenodd" clip-rule="evenodd" d="M9.0541 14.2719C8.87949 14.1889 8.6765 14.1889 8.50189 14.2719L4.75033 16.0545C4.27516 16.2803 3.74429 15.871 3.84577 15.3571L4.61088 11.4828C4.65137 11.2777 4.58815 11.066 4.44168 10.9161L1.6683 8.07859C1.29987 7.70163 1.52331 7.06816 2.04779 7.0027L5.92843 6.51832C6.14098 6.49179 6.32612 6.36134 6.42175 6.17071L8.20491 2.61648C8.44076 2.14639 9.11523 2.14639 9.35108 2.61648L11.1342 6.17071C11.2299 6.36134 11.415 6.49179 11.6276 6.51832L15.5082 7.0027C16.0327 7.06816 16.2561 7.70163 15.8877 8.07859L13.1143 10.9161C12.9678 11.066 12.9046 11.2777 12.9451 11.4828L13.7102 15.3571C13.8117 15.871 13.2808 16.2803 12.8057 16.0545L9.0541 14.2719Z" fill="#343844"/>
</svg>
