<svg width="24" height="24" viewBox="0 0 24 24" fill="none" xmlns="http://www.w3.org/2000/svg">
<path fill-rule="evenodd" clip-rule="evenodd" d="M12.2017 17.9551C11.9689 17.8445 11.6982 17.8445 11.4654 17.9551L6.46333 20.3319C5.82976 20.633 5.12194 20.0872 5.25726 19.402L6.2774 14.2363C6.33139 13.9629 6.24708 13.6805 6.0518 13.4807L2.35396 9.69736C1.86271 9.19475 2.16063 8.35012 2.85995 8.26283L8.03413 7.617C8.31753 7.58162 8.56438 7.40768 8.6919 7.15352L11.0694 2.41455C11.3839 1.78776 12.2832 1.78776 12.5977 2.41455L14.9752 7.15352C15.1027 7.40769 15.3496 7.58162 15.633 7.617L20.8072 8.26283C21.5065 8.35012 21.8044 9.19475 21.3131 9.69736L17.6153 13.4807C17.42 13.6805 17.3357 13.9629 17.3897 14.2363L18.4098 19.402C18.5452 20.0872 17.8373 20.633 17.2038 20.3319L12.2017 17.9551Z" fill="#343844"/>
</svg>
