<svg width="21" height="20" viewBox="0 0 21 20" fill="none" xmlns="http://www.w3.org/2000/svg">
<path fill-rule="evenodd" clip-rule="evenodd" d="M10.8623 15.518C10.6682 15.4258 10.4427 15.4258 10.2487 15.518L6.08028 17.4987C5.55231 17.7495 4.96246 17.2947 5.07522 16.7237L5.92534 12.419C5.97033 12.1911 5.90008 11.9558 5.73734 11.7893L2.6558 8.63653C2.24643 8.21769 2.4947 7.51383 3.07746 7.44109L7.38928 6.9029C7.62545 6.87342 7.83116 6.72847 7.93742 6.51666L9.91871 2.56752C10.1808 2.0452 10.9302 2.0452 11.1922 2.56752L13.1735 6.51666C13.2798 6.72847 13.4855 6.87342 13.7217 6.9029L18.0335 7.44109C18.6162 7.51383 18.8645 8.21769 18.4551 8.63653L15.3736 11.7893C15.2109 11.9558 15.1406 12.1911 15.1856 12.419L16.0357 16.7237C16.1485 17.2947 15.5586 17.7495 15.0306 17.4987L10.8623 15.518Z" fill="#343844"/>
</svg>
