<svg width="20" height="20" viewBox="0 0 20 20" fill="none" xmlns="http://www.w3.org/2000/svg">
<path fill-rule="evenodd" clip-rule="evenodd" d="M10.3066 15.518C10.1126 15.4258 9.88703 15.4258 9.69301 15.518L5.52462 17.4987C4.99665 17.7495 4.40679 17.2947 4.51956 16.7237L5.36967 12.419C5.41467 12.1911 5.34441 11.9558 5.18168 11.7893L2.10014 8.63653C1.69077 8.21769 1.93904 7.51383 2.5218 7.44109L6.83362 6.9029C7.06978 6.87342 7.27549 6.72847 7.38176 6.51666L9.36304 2.56752C9.62509 2.0452 10.3745 2.0452 10.6366 2.56752L12.6178 6.51666C12.7241 6.72847 12.9298 6.87342 13.166 6.9029L17.4778 7.44109C18.0606 7.51383 18.3088 8.21769 17.8995 8.63653L14.8179 11.7893C14.6552 11.9558 14.5849 12.1911 14.6299 12.419L15.48 16.7237C15.5928 17.2947 15.003 17.7495 14.475 17.4987L10.3066 15.518Z" fill="white"/>
</svg>
