<svg width="25" height="24" viewBox="0 0 25 24" fill="none" xmlns="http://www.w3.org/2000/svg">
<path fill-rule="evenodd" clip-rule="evenodd" d="M12.868 17.9552C12.6351 17.8446 12.3645 17.8446 12.1317 17.9552L7.12959 20.332C6.49602 20.6331 5.7882 20.0873 5.92352 19.4021L6.94366 14.2364C6.99765 13.963 6.91334 13.6807 6.71806 13.4809L3.02022 9.69748C2.52897 9.19487 2.82689 8.35024 3.52621 8.26295L8.70039 7.61712C8.98379 7.58174 9.23064 7.40781 9.35815 7.15364L11.7357 2.41467C12.0502 1.78788 12.9495 1.78788 13.2639 2.41467L15.6415 7.15364C15.769 7.40781 16.0158 7.58174 16.2992 7.61712L21.4734 8.26295C22.1727 8.35024 22.4706 9.19487 21.9794 9.69748L18.2816 13.4809C18.0863 13.6807 18.002 13.963 18.056 14.2364L19.0761 19.4021C19.2114 20.0873 18.5036 20.6331 17.87 20.332L12.868 17.9552Z" fill="#79829F"/>
</svg>
