<svg width="24" height="24" viewBox="0 0 24 24" fill="none" xmlns="http://www.w3.org/2000/svg">
<path fill-rule="evenodd" clip-rule="evenodd" d="M12.4236 17.9552C12.1908 17.8446 11.9202 17.8446 11.6873 17.9552L6.68525 20.332C6.05169 20.6331 5.34386 20.0873 5.47918 19.4021L6.49932 14.2364C6.55331 13.963 6.46901 13.6807 6.27373 13.4809L2.57588 9.69748C2.08464 9.19487 2.38256 8.35024 3.08187 8.26295L8.25605 7.61712C8.53945 7.58174 8.7863 7.40781 8.91382 7.15364L11.2914 2.41467C11.6058 1.78788 12.5051 1.78788 12.8196 2.41467L15.1971 7.15364C15.3246 7.40781 15.5715 7.58174 15.8549 7.61712L21.0291 8.26295C21.7284 8.35024 22.0263 9.19487 21.5351 9.69748L17.8372 13.4809C17.6419 13.6807 17.5576 13.963 17.6116 14.2364L18.6318 19.4021C18.7671 20.0873 18.0593 20.6331 17.4257 20.332L12.4236 17.9552Z" fill="white"/>
</svg>
