<svg width="24" height="24" viewBox="0 0 24 24" fill="none" xmlns="http://www.w3.org/2000/svg">
<path d="M22.9738 3.04054C22.9738 3.04054 21.0119 4.19943 19.9211 4.52804C19.3355 3.85478 18.5574 3.3776 17.6918 3.16102C16.8262 2.94444 15.915 2.99892 15.0814 3.31709C14.2478 3.63526 13.5321 4.20176 13.0309 4.93998C12.5298 5.67821 12.2674 6.55253 12.2794 7.4447V8.41692C10.5709 8.46123 8.87786 8.0823 7.35122 7.31389C5.82457 6.54547 4.51166 5.41143 3.5294 4.01276C3.5294 4.01276 -0.359483 12.7628 8.39051 16.6516C6.38825 18.0108 4.00303 18.6923 1.58496 18.5961C10.335 23.4572 21.0294 18.5961 21.0294 7.41554C21.0294 7.14526 21.0022 6.87498 20.9516 6.60859C21.9433 5.63054 22.9738 3.04054 22.9738 3.04054Z" stroke="#2DA884" stroke-width="1.45833" stroke-linecap="round" stroke-linejoin="round"/>
</svg>
