<svg width="659" height="501" viewBox="0 0 659 501" fill="none" xmlns="http://www.w3.org/2000/svg">
<g clip-path="url(#clip0_4_6480)">
<path d="M354.79 500.639C487.29 500.639 594.702 469.9 594.702 431.981C594.702 394.063 487.29 363.324 354.79 363.324C222.291 363.324 114.879 394.063 114.879 431.981C114.879 469.9 222.291 500.639 354.79 500.639Z" fill="#F5F5F5"/>
<path d="M583.049 164.898C583.049 164.898 540.551 207.465 564.542 270.63C588.533 333.795 523.414 438.84 523.414 438.84C523.414 438.84 524.1 438.737 525.409 438.511C612.696 423.077 656.065 323.084 607.527 248.804C589.506 221.19 574.666 188.79 583.049 164.898Z" fill="#2091F9"/>
<path d="M583.049 164.898C583.049 164.898 559.058 217.077 583.049 259.645C607.04 302.212 587.162 421.676 523.414 438.84" stroke="#535461" stroke-width="1.94444" stroke-miterlimit="10"/>
<path d="M658.738 337.069C658.738 337.069 610.241 329.332 605.82 372.867C601.399 416.403 512.597 422.431 512.597 422.431C512.597 422.431 513.173 422.829 514.263 423.543C587.608 471.768 657.723 454.261 647.16 390.224C643.205 366.42 643.521 342.507 658.738 337.069Z" fill="#2091F9"/>
<path opacity="0.2" d="M658.738 337.069C658.738 337.069 610.241 329.332 605.82 372.867C601.399 416.403 512.597 422.431 512.597 422.431C512.597 422.431 513.173 422.829 514.263 423.543C587.608 471.768 657.723 454.261 647.16 390.224C643.205 366.42 643.521 342.507 658.738 337.069Z" fill="#F5F5F5"/>
<path d="M658.738 337.069C658.738 337.069 621.092 345.349 624.184 379.637C627.275 413.924 568.257 455.009 512.57 422.417" stroke="#535461" stroke-width="1.94444" stroke-miterlimit="10"/>
<path opacity="0.2" d="M104.473 0.97113C98.9485 0.778889 93.2866 0.97113 88.1045 2.90727C74.0045 8.17328 67.3212 25.3994 69.4942 40.3186C71.6671 55.2379 80.6055 68.1935 89.8798 80.0644C99.1541 91.9352 109.203 103.655 114.289 117.826C116.825 124.904 118.011 132.834 115.434 139.899C111.458 150.795 99.4694 156.885 87.9605 158.148C76.4516 159.412 64.8947 156.947 53.3447 156.089C48.4984 155.745 43.5151 155.704 38.95 157.297C33.9392 159.034 29.7648 162.577 25.9262 166.27C10.9488 180.757 -1.0399 200.53 0.899961 221.292C3.09344 244.828 22.6565 263.434 44.0841 273.41C51.1786 276.72 58.6844 279.397 64.929 284.121C81.3801 296.575 85.0747 319.912 83.4365 340.516C81.7982 361.12 76.2185 381.745 79.3237 402.17C82.9772 425.926 99.1473 447.381 120.959 457.405C140.392 466.33 164.712 465.774 181.965 453.148C190.375 446.969 196.737 438.449 202.268 429.612C210.617 416.282 217.392 402.024 222.455 387.127C224.861 380.049 227.123 372.435 232.737 367.512C236.164 364.484 240.606 362.788 245 361.47C258.243 357.502 272.192 356.41 285.559 352.881C298.925 349.352 312.374 342.775 319.64 331.014C329.922 314.323 325.124 292.978 325.172 273.342C325.254 228.604 351.98 188.55 361.844 144.952C365.065 130.699 366.265 114.929 359.068 102.22C354.173 93.5487 345.927 87.3695 337.256 82.5635C318.2 71.9628 296.54 67.246 275.229 62.6529C245.61 56.2815 209.644 55.4576 186.688 34.8466C164.657 15.0733 134.517 0.97113 104.473 0.97113Z" fill="#2091F9"/>
<g opacity="0.5">
<path opacity="0.5" d="M211.913 174.132C211.911 163.349 210.225 152.632 206.916 142.371L198.69 116.824C198.69 116.398 198.69 115.979 198.69 115.56C198.944 99.1856 186.201 91.0154 181.293 91.9011C176.269 92.8074 162.326 85.8043 162.326 85.8043V85.9966C161.37 84.8944 160.508 83.7139 159.749 82.4676C162.158 80.7103 164.192 78.4884 165.731 75.9325C167.27 73.3767 168.284 70.5384 168.713 67.5845C169.141 64.6306 168.976 61.6207 168.226 58.7317C167.477 55.8427 166.158 53.1329 164.348 50.7616C165.855 49.6275 167.005 48.0831 167.659 46.3127C168.797 43.1064 167.926 39.4469 166.076 36.5908C165.289 35.3985 164.369 34.2998 163.334 33.3158C161.766 31.7602 160.054 30.3578 158.22 29.1277C153.648 25.9558 148.624 23.2301 143.14 22.262C142.191 22.0376 141.203 22.0376 140.254 22.262C139.431 22.5949 138.647 23.0186 137.917 23.5253C134.161 25.6674 129.486 24.7405 125.154 24.514C120.822 24.2874 115.557 25.5026 114.186 29.574C113.761 30.8304 113.789 32.1898 113.501 33.4806C112.815 36.6388 110.382 39.0899 108.504 41.7195C106.626 44.3491 105.22 47.8986 106.783 50.7548C107.318 51.716 108.154 52.6017 108.154 53.7002C108.154 54.4897 107.688 55.1969 107.469 55.9521C106.996 57.6686 107.887 59.385 109.258 60.6277C109.849 61.2656 110.544 61.7974 111.314 62.2C113.487 63.3122 115.989 63.6555 118.203 64.6854C119.308 65.2052 120.322 65.9008 121.205 66.7451C122.287 67.8796 123.133 69.2184 123.693 70.6836C124.253 72.1488 124.517 73.711 124.468 75.2792L124.927 75.3272C124.927 75.4646 124.927 75.595 124.927 75.7323C125.407 75.7872 125.915 75.8353 126.415 75.8559C127.135 77.0198 127.958 78.1159 128.876 79.1308C128.72 79.7167 128.544 80.3118 128.348 80.9159C126.737 82.0351 113.562 90.8232 98.5783 88.7085C82.5864 86.4497 73.4424 156.48 73.4424 156.48C72.8497 160.485 72.5609 164.529 72.5787 168.578C72.5102 178.876 74.6694 192.354 86.6992 190.369L93.0946 188.262V222.899C93.0946 222.899 94.0063 232.388 90.812 238.69C87.6177 244.993 100.868 242.755 100.868 242.755C100.868 242.755 101.375 243.284 102.307 244.183L102.012 245.014L102.403 245.412C100.661 251.379 98.3108 257.152 95.3909 262.638L95.7679 262.83C95.528 263.29 95.3909 263.517 95.3909 263.517C95.3909 263.517 100.313 266.037 107.085 269.284C112.527 287.712 124.441 330.389 120.52 338.518L120.63 338.752C121.363 340.276 125.462 349.263 124.633 357.495C123.886 364.855 134.058 398.298 137.855 410.444L136.059 410.807L142.455 433.849L141.084 448.761C141.084 448.761 133.318 469.544 151.592 465.479C169.866 461.415 164.842 444.697 164.842 444.697L165.301 410.807C165.301 410.807 163.54 409.826 161.367 408.885C159.872 404.841 156.616 395.284 156.616 388.672C156.616 380.09 150.673 343.036 150.673 343.036V342.96V342.816V342.775L150.639 342.281V342.198C150.639 341.738 150.564 341.107 150.509 340.338V340.296C149.823 330.279 147.767 296.246 149.268 278.505C150.588 277.603 151.962 276.782 153.381 276.047C157.83 287.307 169.297 317.729 168.564 330.492C167.652 346.283 168.338 333.884 168.564 331.865C168.633 331.24 168.681 331.996 168.701 333.692C168.701 334.001 168.701 334.344 168.701 334.708C168.701 335.072 168.701 335.477 168.701 335.895C168.701 336.314 168.701 336.767 168.701 337.269C168.701 337.507 168.701 337.749 168.701 337.996C168.701 338.491 168.701 339.008 168.701 339.548C168.701 339.818 168.701 340.093 168.701 340.372C168.701 341.745 168.701 343.269 168.653 344.855C168.653 345.171 168.653 345.491 168.653 345.816C168.653 346.784 168.653 347.773 168.605 348.776C168.605 350.149 168.55 351.481 168.523 352.861C168.454 355.95 168.365 359.074 168.256 361.999C168.256 362.324 168.244 362.647 168.221 362.967C168.198 363.608 168.173 364.235 168.146 364.848C168.118 365.462 168.091 366.061 168.064 366.647C168.036 367.228 168.006 367.794 167.974 368.343C167.94 368.988 167.899 369.606 167.865 370.197L165.383 369.84L164.856 375.552C164.024 384.621 165.194 393.762 168.283 402.328C169.133 404.676 169.791 406.619 169.935 407.313C170.394 409.572 169.935 425.85 169.935 425.85C169.935 425.85 172.677 447.086 185.474 443.015C191.232 441.181 194.029 435.606 195.366 430.018C196.849 423.539 196.296 416.76 193.782 410.608C191.966 406.036 190.108 399.623 191.417 394.666C193.7 386.084 193.7 373.884 193.7 373.884L192.288 373.684C192.64 373.014 192.958 372.327 193.241 371.625C193.241 371.625 192.781 340.447 196.894 336.383C199.156 334.145 198.951 328.769 198.265 324.375C197.286 318.016 197.056 311.564 197.58 305.151C197.861 301.848 198.265 298.972 198.738 297.949C199.944 295.559 201.151 271.474 195.811 259.885L196.908 259.542L196.736 258.69L196.908 258.635C197.713 260.789 198.628 262.899 199.65 264.959C199.919 265.171 200.23 265.325 200.561 265.412C215.36 262.81 215.957 248.975 215.134 241.423C215.758 241.725 216.101 241.917 216.101 241.917L217.472 222.007C218.877 218.828 219.398 214.77 219.364 210.383C219.425 194.702 211.913 174.132 211.913 174.132ZM195.599 230.726C194.584 222.055 193.179 213.891 193.179 213.891L186.324 189.491V180.606L197.196 221.251L195.599 230.726Z" fill="url(#paint0_linear_4_6480)"/>
</g>
<path d="M164.78 364.011L164.273 369.592C163.473 378.461 164.607 387.399 167.597 395.785C168.413 398.085 169.051 399.98 169.188 400.66C169.626 402.871 169.188 418.765 169.188 418.765C169.188 418.765 171.834 439.52 184.179 435.545C189.731 433.759 192.404 428.301 193.72 422.843C195.147 416.513 194.612 409.897 192.185 403.88C190.43 399.41 188.634 393.128 189.902 388.301C192.11 379.912 192.11 367.993 192.11 367.993L164.78 364.011Z" fill="#5A5773"/>
<path d="M151.558 268.192C151.558 268.192 168.749 310.142 167.865 325.59C166.981 341.038 167.646 328.899 167.865 326.915C168.256 323.379 167.865 365.363 166.542 370.169C166.542 370.169 184.618 383.413 191.671 365.755C191.671 365.755 191.232 335.291 195.194 331.316C197.374 329.133 197.162 323.874 196.517 319.582C195.566 313.375 195.336 307.079 195.832 300.818C196.099 297.592 196.469 294.749 196.949 293.781C198.272 291.131 199.595 261.107 191.657 252.717L151.558 268.192Z" fill="#605D82"/>
<path opacity="0.1" d="M168.749 370.19C170.072 365.336 170.463 323.379 170.072 326.936C169.853 328.92 169.188 341.065 170.072 325.611C170.956 310.156 153.765 268.213 153.765 268.213L192.226 253.397C192.048 253.17 191.863 252.957 191.678 252.758L151.565 268.213C151.565 268.213 168.756 310.163 167.872 325.611C166.987 341.058 167.652 328.92 167.872 326.936C168.262 323.4 167.872 365.384 166.549 370.19C166.549 370.19 173.767 375.476 180.861 374.913C174.548 374.44 168.749 370.19 168.749 370.19Z" fill="black"/>
<path d="M136.567 404.189L142.736 426.708L141.413 441.277C141.413 441.277 133.921 461.586 151.551 457.611C169.181 453.636 164.335 437.302 164.335 437.302L164.773 404.189C164.773 404.189 157.72 400.213 154.635 400.66C151.551 401.106 136.567 404.189 136.567 404.189Z" fill="#5A5773"/>
<path d="M106.153 257.599C106.153 257.599 126.429 323.386 121.582 333.541C121.582 333.541 126.429 343.256 125.551 352.078C124.674 360.901 139.658 408.15 139.658 408.15L161.703 404.175C161.703 404.175 156.411 390.931 156.411 382.541C156.411 374.151 150.68 337.914 150.68 337.914C150.68 337.914 145.834 271.68 151.565 264.616L106.153 257.599Z" fill="#605D82"/>
<g opacity="0.1">
<path opacity="0.1" d="M149.851 269.998C146.197 284.993 150.235 340.173 150.235 340.173C150.235 340.173 155.965 376.376 155.965 384.8C155.965 391.206 159.043 400.433 160.503 404.443L161.696 404.23C161.696 404.23 156.404 390.986 156.404 382.596C156.404 374.206 150.673 337.969 150.673 337.969C150.673 337.969 146.986 287.54 149.851 269.998Z" fill="black"/>
<path opacity="0.1" d="M121.582 333.541L121.692 333.767C121.726 333.541 121.761 333.3 121.781 333.081C121.723 333.237 121.656 333.391 121.582 333.541Z" fill="black"/>
<path opacity="0.1" d="M150.564 266.785C150.764 266.023 151.101 265.305 151.558 264.664L106.153 257.599C106.153 257.599 106.42 258.457 106.879 259.988L150.564 266.785Z" fill="black"/>
</g>
<path d="M211.947 233.754C211.947 233.754 218.562 258.471 198.724 262.013C198.402 261.929 198.101 261.78 197.84 261.574C197.84 261.574 186.379 239.054 195.194 230.225L211.947 233.754Z" fill="#FAC3CA"/>
<path d="M130.836 69.5187C130.836 69.5187 132.159 88.0562 117.614 96.8924C103.068 105.729 148.459 130.006 148.459 130.006L172.265 92.0315C172.265 92.0315 162.134 93.3428 155.965 75.6979L130.836 69.5187Z" fill="#FAC3CA"/>
<path opacity="0.1" d="M121.137 98.2038C121.137 98.2038 143.62 145.007 163.896 100.854L195.194 256.267C195.194 256.267 146.698 271.282 146.266 278.347C145.834 285.412 97.3445 260.249 97.3445 260.249C97.3445 260.249 107.921 240.819 105.282 228.9C102.643 216.981 121.137 98.2038 121.137 98.2038Z" fill="black"/>
<path d="M121.137 97.3181C121.137 97.3181 143.62 144.122 163.896 99.9683L195.194 255.388C195.194 255.388 146.698 270.403 146.266 277.468C145.834 284.533 97.3445 259.363 97.3445 259.363C97.3445 259.363 107.921 239.933 105.282 228.014C102.643 216.095 121.137 97.3181 121.137 97.3181Z" fill="#E1E7EF"/>
<path d="M143.181 416.554C143.181 416.554 137.451 403.749 150.673 403.749C163.896 403.749 161.696 415.229 161.696 415.229L143.181 416.554Z" fill="#5A5773"/>
<path d="M173.157 383.434C173.157 383.434 167.865 369.743 181.094 369.304C194.324 368.865 187.709 381.662 187.709 381.662L173.157 383.434Z" fill="#5A5773"/>
<path opacity="0.1" d="M161.915 87.3697C161.915 87.3697 175.357 94.2354 180.21 93.3291C185.063 92.4228 197.84 100.833 196.963 117.613L204.928 142.646C208.114 152.683 209.733 163.153 209.726 173.686C209.726 173.686 221.187 205.474 215.018 219.604L213.695 239.034C213.695 239.034 203.557 233.294 192.973 235.058L195.64 219.192L183.713 174.146L163.875 126.017L161.915 87.3697Z" fill="black"/>
<path d="M161.915 86.4977C161.915 86.4977 175.357 93.3634 180.21 92.4572C185.063 91.5509 197.84 99.9614 196.963 116.741L204.928 141.774C208.114 151.811 209.733 162.281 209.726 172.814C209.726 172.814 221.187 204.602 215.018 218.732L213.695 238.162C213.695 238.162 203.557 232.422 192.973 234.186L195.619 218.292L183.713 173.26L163.896 125.131L161.915 86.4977Z" fill="#67647E"/>
<path opacity="0.1" d="M184.179 140.147V190.04L190.794 213.884C190.794 213.884 195.201 239.933 193.878 247.884C192.555 255.834 171.395 257.599 165.665 250.973C159.934 244.348 163.019 187.808 163.019 187.808L161.915 105.042L162.799 102.392L184.179 140.147Z" fill="black"/>
<path d="M185.084 137.943V187.836L191.698 211.681C191.698 211.681 196.106 237.729 194.783 245.68C193.46 253.63 172.3 255.395 166.569 248.769C160.839 242.144 163.923 185.605 163.923 185.605L162.82 102.818L185.084 137.943Z" fill="#67647E"/>
<path opacity="0.1" d="M96.234 179.446L110.341 223.387L103.726 242.151C103.726 242.151 135.024 275.264 154.862 259.37C154.862 259.37 157.069 191.811 152.654 175.917C148.24 160.023 127.087 106.573 127.087 106.573L122.707 92.4641L99.346 105.708L96.234 179.446Z" fill="black"/>
<path d="M95.1305 177.235V220.489C95.1305 220.489 96.0147 229.765 92.9233 235.944C89.8318 242.123 102.623 239.919 102.623 239.919C102.623 239.919 133.921 273.033 153.758 257.139C153.758 257.139 155.965 189.58 151.551 173.686C147.136 157.791 125.983 104.342 125.983 104.342L121.576 90.212L98.215 103.456L95.1305 177.235Z" fill="#67647E"/>
<path opacity="0.1" d="M129.294 82.5293C129.294 82.5293 115.852 92.464 100.422 90.2533C84.9925 88.0425 76.1774 156.487 76.1774 156.487C76.1774 156.487 70.447 191.811 88.9613 188.722L129.959 175.031C129.959 175.031 121.144 165.756 122.467 153.837L102.623 161.78L103.514 123.813L129.294 82.5293Z" fill="black"/>
<path opacity="0.1" d="M77.0548 155.601C77.0548 155.601 71.3243 190.926 89.8386 187.836L130.836 174.146C130.836 174.146 122.021 164.877 123.344 152.951L103.514 160.902L77.0548 155.601Z" fill="black"/>
<path d="M122.371 157.606C122.371 157.606 136.128 139.487 146.259 148.186C156.39 156.885 126.004 172.827 126.004 172.827L122.371 157.606Z" fill="#FAC3CA"/>
<path d="M129.294 81.6437C129.294 81.6437 115.852 91.5785 100.422 89.3677C84.9925 87.1569 76.1774 155.601 76.1774 155.601C76.1774 155.601 70.447 190.926 88.9613 187.836L129.959 174.146C129.959 174.146 121.144 164.87 122.467 152.951L102.623 160.902L103.514 122.927L125.997 104.39L129.294 81.6437Z" fill="#67647E"/>
<path opacity="0.1" d="M156.404 76.5631L131.275 70.3839C131.275 70.3839 132.584 71.8669 131.056 77.6685C135.1 82.3166 140.069 88.4889 146.705 88.4889C151.453 88.4978 156.076 86.9631 159.879 84.1154C158.46 81.7267 157.295 79.1954 156.404 76.5631Z" fill="black"/>
<path d="M146.266 87.61C158.441 87.61 168.31 77.7243 168.31 65.5298C168.31 53.3352 158.441 43.4496 146.266 43.4496C134.091 43.4496 124.221 53.3352 124.221 65.5298C124.221 77.7243 134.091 87.61 146.266 87.61Z" fill="#FAC3CA"/>
<path opacity="0.1" d="M154.622 55.9452C159.735 55.0733 165.356 52.8007 167.07 47.8986C168.166 44.761 167.33 41.1908 165.541 38.3964C163.752 35.6021 161.12 33.4531 158.405 31.5307C153.998 28.4274 149.138 25.7635 143.833 24.8298C142.918 24.6107 141.964 24.6107 141.05 24.8298C140.254 25.1559 139.498 25.5704 138.794 26.0656C135.168 28.1596 130.658 27.2534 126.456 27.0337C122.254 26.814 117.216 28.0017 115.893 31.977C115.482 33.206 115.509 34.531 115.208 35.7943C114.522 38.8839 112.198 41.2869 110.409 43.8616C108.62 46.4362 107.243 49.9171 108.751 52.6909C109.265 53.6315 110.122 54.4966 110.122 55.5676C109.989 56.3289 109.759 57.0697 109.436 57.7715C108.812 60.051 110.629 62.351 112.726 63.4358C114.824 64.5205 117.237 64.857 119.375 65.8662C121.377 66.8556 123.053 68.4 124.204 70.3158C125.354 72.2316 125.932 74.4381 125.867 76.6729C127.813 76.8995 130.082 77.0162 131.398 75.5606C131.988 74.9084 132.276 74.0365 132.81 73.343C133.496 72.4367 134.565 71.9012 135.442 71.1734C140.056 67.3767 136.779 62.1313 139.391 58.0393C140.762 55.9315 142.941 56.5769 145.149 56.6112C148.32 56.6856 151.492 56.4626 154.622 55.9452Z" fill="black"/>
<path d="M154.183 55.5058C159.297 54.6339 164.917 52.3613 166.631 47.4592C167.728 44.3215 166.891 40.7514 165.102 37.957C163.313 35.1626 160.681 33.0137 157.967 31.0913C153.559 27.988 148.699 25.324 143.394 24.3903C142.479 24.1712 141.526 24.1712 140.611 24.3903C139.815 24.7165 139.059 25.131 138.356 25.6261C134.73 27.7202 130.219 26.8139 126.017 26.5942C121.815 26.3745 116.777 27.5623 115.454 31.5375C115.043 32.7665 115.071 34.0916 114.769 35.3549C114.083 38.4445 111.76 40.8475 109.971 43.4221C108.182 45.9968 106.804 49.4777 108.312 52.2515C108.826 53.1921 109.683 54.0571 109.683 55.1282C109.55 55.8894 109.32 56.6303 108.997 57.3321C108.374 59.6115 110.19 61.9115 112.288 62.9963C114.385 64.0811 116.798 64.4175 118.937 65.4268C120.946 66.4152 122.629 67.9626 123.784 69.884C124.939 71.8053 125.517 74.0193 125.448 76.2609C127.395 76.4875 129.664 76.6042 130.98 75.1487C131.57 74.4964 131.857 73.6245 132.392 72.931C133.078 72.0248 134.147 71.4892 135.024 70.7615C139.637 66.9647 136.361 61.7193 138.973 57.6273C140.344 55.5195 142.523 56.1649 144.73 56.1993C147.896 56.2632 151.061 56.0311 154.183 55.5058Z" fill="#4A4347"/>
<path opacity="0.1" d="M180.868 129.772C180.868 129.772 185.714 154.942 183.514 164.657C182.17 170.309 182.368 176.219 184.09 181.767" fill="black"/>
<path opacity="0.1" d="M102.527 140.366C102.527 140.366 100.415 157.146 103.932 160.675L102.527 140.366Z" fill="black"/>
<path d="M225.615 347.155C225.888 347.155 226.149 347.047 226.342 346.854C226.535 346.66 226.643 346.399 226.643 346.125C226.643 345.852 226.535 345.59 226.342 345.397C226.149 345.204 225.888 345.096 225.615 345.096C225.342 345.096 225.081 345.204 224.888 345.397C224.695 345.59 224.587 345.852 224.587 346.125C224.587 346.399 224.695 346.66 224.888 346.854C225.081 347.047 225.342 347.155 225.615 347.155Z" fill="black"/>
<g opacity="0.5">
<path opacity="0.5" d="M542.209 227.177V226.607L355.188 82.5637C355.07 82.4762 354.927 82.4289 354.78 82.4289C354.633 82.4289 354.49 82.4762 354.372 82.5637L167.344 226.607V449.88H167.7V450.237H542.573V226.964L542.209 227.177Z" fill="url(#paint1_linear_4_6480)"/>
</g>
<path d="M535.752 443.653H173.828V228.069L354.79 88.6948L535.752 228.069V443.653Z" fill="white"/>
<path d="M522.729 430.876H186.852V230.809L354.79 101.465L522.729 230.809V430.876Z" fill="#E0E0E0"/>
<path d="M411.764 98.4757L206.88 152.275L275.193 413.278L480.078 359.479L411.764 98.4757Z" fill="#2091F9"/>
<path d="M461.722 138.128H249.915V407.951H461.722V138.128Z" fill="#F5F5F5"/>
<path opacity="0.05" d="M175.542 228.412L356.504 336.204L175.542 443.996V228.412Z" fill="black"/>
<path d="M174.171 228.412L355.133 336.204L174.171 443.996V228.412Z" fill="white"/>
<path opacity="0.05" d="M534.724 228.412L353.762 336.204L534.724 443.996V228.412Z" fill="black"/>
<path d="M536.095 228.412L355.133 336.204L536.095 443.996V228.412Z" fill="white"/>
<path opacity="0.05" d="M174.171 440.563L355.133 299.129L536.095 440.563H174.171Z" fill="black"/>
<path d="M174.171 443.996L355.133 302.562L536.095 443.996H174.171Z" fill="white"/>
<path d="M210.946 460.371C210.946 460.371 201.857 429.475 212.653 406.722C217.24 397.211 218.623 386.467 216.594 376.101C215.594 371.189 214.146 366.379 212.269 361.731" stroke="#535461" stroke-width="1.94444" stroke-miterlimit="10"/>
<path d="M218.98 347.354C218.98 351.144 212.125 362.122 212.125 362.122C212.125 362.122 205.271 351.137 205.271 347.354C205.271 345.533 205.993 343.787 207.278 342.499C208.564 341.212 210.307 340.489 212.125 340.489C213.943 340.489 215.687 341.212 216.972 342.499C218.258 343.787 218.98 345.533 218.98 347.354Z" fill="#6C63FF"/>
<path d="M230.324 368.336C228.268 371.515 216.56 377.007 216.56 377.007C216.56 377.007 216.773 364.059 218.829 360.88C219.854 359.442 221.393 358.455 223.126 358.125C224.859 357.795 226.652 358.147 228.133 359.107C229.614 360.068 230.668 361.563 231.076 363.282C231.484 365.001 231.215 366.811 230.324 368.336Z" fill="#6C63FF"/>
<path d="M229.803 404.182C226.424 405.885 213.551 404.711 213.551 404.711C213.551 404.711 220.261 393.643 223.634 391.94C224.441 391.488 225.331 391.204 226.251 391.105C227.171 391.007 228.101 391.096 228.985 391.366C229.87 391.637 230.69 392.085 231.397 392.682C232.105 393.278 232.684 394.013 233.101 394.84C233.517 395.667 233.762 396.57 233.821 397.494C233.88 398.419 233.752 399.346 233.444 400.219C233.136 401.093 232.654 401.895 232.029 402.577C231.403 403.259 230.646 403.807 229.803 404.189V404.182Z" fill="#6C63FF"/>
<path d="M223.332 431.226C220.289 433.478 207.402 434.494 207.402 434.494C207.402 434.494 212.146 422.452 215.189 420.2C216.654 419.221 218.438 418.844 220.172 419.148C221.906 419.451 223.457 420.41 224.504 421.828C225.551 423.246 226.013 425.012 225.795 426.762C225.577 428.511 224.695 430.11 223.332 431.226Z" fill="#6C63FF"/>
<path d="M202.158 377.735C204.9 380.371 217.506 383.111 217.506 383.111C217.506 383.111 214.415 370.54 211.7 367.903C210.38 366.734 208.661 366.12 206.9 366.187C205.139 366.254 203.472 366.998 202.244 368.264C201.016 369.53 200.322 371.221 200.306 372.986C200.29 374.751 200.954 376.454 202.158 377.742V377.735Z" fill="#6C63FF"/>
<path d="M194.989 409.462C198.368 411.164 211.241 409.99 211.241 409.99C211.241 409.99 204.53 398.923 201.158 397.22C199.547 396.491 197.718 396.414 196.052 397.003C194.386 397.593 193.011 398.804 192.215 400.384C191.419 401.965 191.264 403.792 191.78 405.484C192.297 407.177 193.446 408.604 194.989 409.469V409.462Z" fill="#6C63FF"/>
<path d="M192.247 441.25C195.29 443.502 208.177 444.518 208.177 444.518C208.177 444.518 203.433 432.476 200.39 430.224C199.671 429.635 198.841 429.199 197.949 428.942C197.057 428.684 196.123 428.611 195.202 428.726C194.281 428.841 193.392 429.143 192.591 429.612C191.79 430.081 191.092 430.708 190.54 431.456C189.988 432.203 189.593 433.055 189.38 433.96C189.167 434.865 189.139 435.803 189.298 436.719C189.458 437.635 189.802 438.509 190.308 439.288C190.815 440.067 191.475 440.734 192.247 441.25Z" fill="#6C63FF"/>
<path opacity="0.5" d="M347.25 150.486H262.253V157.352H347.25V150.486Z" fill="#6C63FF"/>
<path opacity="0.5" d="M445.957 177.949H262.253V184.815H445.957V177.949Z" fill="#6C63FF"/>
<path opacity="0.5" d="M445.957 195.8H262.253V202.666H445.957V195.8Z" fill="#6C63FF"/>
<path opacity="0.4" d="M445.957 213.651H262.253V220.517H445.957V213.651Z" fill="#6C63FF"/>
<path opacity="0.4" d="M445.957 231.502H262.253V238.368H445.957V231.502Z" fill="#6C63FF"/>
<path opacity="0.3" d="M367.129 249.353H262.253V256.219H367.129V249.353Z" fill="#6C63FF"/>
<path opacity="0.3" d="M405.514 267.204H262.253V274.07H405.514V267.204Z" fill="#6C63FF"/>
</g>
<defs>
<linearGradient id="paint0_linear_4_6480" x1="72.5856" y1="244.087" x2="219.288" y2="244.087" gradientUnits="userSpaceOnUse">
<stop stop-color="#808080" stop-opacity="0.25"/>
<stop offset="0.54" stop-color="#808080" stop-opacity="0.12"/>
<stop offset="1" stop-color="#808080" stop-opacity="0.1"/>
</linearGradient>
<linearGradient id="paint1_linear_4_6480" x1="239124" y1="272463" x2="239124" y2="75409.6" gradientUnits="userSpaceOnUse">
<stop stop-color="#808080" stop-opacity="0.25"/>
<stop offset="0.54" stop-color="#808080" stop-opacity="0.12"/>
<stop offset="1" stop-color="#808080" stop-opacity="0.1"/>
</linearGradient>
<clipPath id="clip0_4_6480">
<rect width="658.194" height="499.722" fill="white" transform="translate(0.694336 0.916412)"/>
</clipPath>
</defs>
</svg>
