<svg width="159" height="35" viewBox="0 0 159 35" fill="none" xmlns="http://www.w3.org/2000/svg">
<path fill-rule="evenodd" clip-rule="evenodd" d="M50.1474 2.96324C50.1474 1.77718 51.1194 0.815674 52.3185 0.815674H56.1007C56.9541 0.815674 57.7812 1.10822 58.4411 1.64352L59.5917 2.57681L59.6204 2.60277C59.647 2.5939 59.6735 2.58525 59.7002 2.57681C61.7759 1.91916 64.2944 1.79409 66.8648 1.79409C69.4353 1.79409 71.9537 1.91916 74.0295 2.57681C74.0561 2.58525 74.0827 2.5939 74.1092 2.60277L74.138 2.57681L75.2886 1.64352C75.9484 1.10822 76.7755 0.815674 77.6289 0.815674H81.4112C82.6103 0.815674 83.5823 1.77718 83.5823 2.96324V4.29083C83.5823 5.318 83.1449 6.29765 82.3773 6.98945L81.4491 7.82603C80.9959 8.23444 80.4521 8.53166 79.8614 8.6937L79.6418 8.75394C80.5018 10.7839 80.977 12.9537 80.977 14.709C80.977 21.77 76.5602 24.8195 72.6686 27.5064L72.6684 27.5066C69.6037 29.6226 66.8648 31.5137 66.8648 34.962C66.8648 31.5137 64.1259 29.6226 61.0613 27.5066L61.0611 27.5064C57.1694 24.8195 52.7527 21.77 52.7527 14.709C52.7527 12.9537 53.2278 10.7839 54.0879 8.75394L53.8683 8.6937C53.2776 8.53166 52.7337 8.23444 52.2806 7.82603L51.3524 6.98945C50.5848 6.29765 50.1474 5.318 50.1474 4.29083V2.96324ZM69.6873 20.4816C69.6873 20.819 69.5386 21.1424 69.2739 21.381C69.0093 21.6195 68.6503 21.7536 68.276 21.7536C67.9529 21.7536 67.6411 21.6536 67.3917 21.4728C67.8163 22.5971 68.9029 23.6623 70.5557 21.9492C72.0148 20.3574 70.4908 17 69.0061 15.0078C68.5113 14.3437 67.6988 14.0241 66.8648 14.0241C66.0308 14.0241 65.2184 14.3437 64.7235 15.0078C63.2388 17 61.7149 20.3574 63.1739 21.9492C64.8267 23.6623 65.9133 22.5971 66.338 21.4728C66.0885 21.6536 65.7767 21.7536 65.4536 21.7536C65.0793 21.7536 64.7204 21.6195 64.4557 21.381C64.1911 21.1424 64.0424 20.819 64.0424 20.4816H69.6873ZM61.4606 10.5432H57.5291L60.6275 12.9972C61.3093 13.5372 62.3059 13.3646 62.7277 12.6334C63.2604 11.7103 62.5529 10.5432 61.4606 10.5432ZM72.2691 10.5432H76.2005L73.1022 12.9972C72.4203 13.5372 71.4238 13.3646 71.0019 12.6334C70.4692 11.7103 71.1767 10.5432 72.2691 10.5432ZM88.2656 25.0025H91.7485V11.8647H88.2656V25.0025ZM88.2656 9.81589H91.7485V6.69149H88.2656V9.81589ZM97.4757 29.3051H93.9928V11.8649H97.3477V13.5039H97.4245C98.2696 12.3514 99.4989 11.5063 101.292 11.5063C104.775 11.5063 107.003 14.349 107.003 18.4466C107.003 22.6978 104.698 25.3868 101.317 25.3868C99.4733 25.3868 98.2697 24.6441 97.527 23.5173H97.4757V29.3051ZM97.3989 18.549C97.3989 20.9307 98.5001 22.4929 100.575 22.4929C102.342 22.4929 103.468 21.0331 103.468 18.549C103.468 16.0649 102.598 14.3234 100.446 14.3234C98.2696 14.3234 97.3989 16.1929 97.3989 18.549ZM113.95 25.3868C117.229 25.3868 119.482 23.799 119.482 21.1612C119.482 18.088 117.049 17.4734 114.847 17.0124C114.545 16.9505 114.247 16.8959 113.959 16.8431C112.461 16.5686 111.236 16.3441 111.236 15.399C111.236 14.4514 112.132 13.9392 113.49 13.9392C114.975 13.9392 115.871 14.4514 116.025 15.86H119.175C118.919 13.2222 116.998 11.5063 113.541 11.5063C110.544 11.5063 108.188 12.8636 108.188 15.7063C108.188 18.5746 110.493 19.2149 112.849 19.6758C113.075 19.721 113.299 19.7624 113.517 19.803C115.035 20.0845 116.307 20.3204 116.307 21.4173C116.307 22.3392 115.436 22.9283 113.899 22.9283C112.337 22.9283 111.261 22.2624 111.031 20.7514H107.804C108.009 23.5429 110.135 25.3868 113.95 25.3868ZM132.706 11.865V25.0028H129.351V23.4662H129.275C128.378 24.6698 127.354 25.3613 125.51 25.3613C122.59 25.3613 120.951 23.4918 120.951 20.6235V11.865H124.409V20.0345C124.409 21.5711 125.1 22.4162 126.586 22.4162C128.225 22.4162 129.223 21.1869 129.223 19.4455V11.865H132.706ZM134.959 25.0027H138.442V17.371C138.442 15.6295 139.39 14.5027 140.798 14.5027C142.079 14.5027 142.821 15.271 142.821 16.7563V25.0027H146.304V17.371C146.304 15.6295 147.201 14.5027 148.66 14.5027C149.941 14.5027 150.683 15.271 150.683 16.7563V25.0027H154.166V16.1673C154.166 13.299 152.604 11.5063 149.838 11.5063C148.174 11.5063 146.791 12.3771 145.894 13.8112H145.843C145.203 12.4283 143.871 11.5063 142.207 11.5063C140.388 11.5063 139.108 12.4283 138.391 13.6319H138.314V11.8649H134.959V25.0027ZM3.81667 25.0025H0.33374V6.69149H3.81667V25.0025ZM12.3329 25.3868C16.4049 25.3868 19.1963 22.3649 19.1963 18.4466C19.1963 14.5283 16.4049 11.5063 12.3329 11.5063C8.26094 11.5063 5.46948 14.5283 5.46948 18.4466C5.46948 22.3649 8.26094 25.3868 12.3329 25.3868ZM12.3329 22.7234C10.1817 22.7234 9.00366 21.0075 9.00366 18.4466C9.00366 15.8856 10.1817 14.1441 12.3329 14.1441C14.4585 14.1441 15.6622 15.8856 15.6622 18.4466C15.6622 21.0075 14.4585 22.7234 12.3329 22.7234ZM31.3409 27.999C30.2397 29.0234 28.5495 29.4844 26.6031 29.4844C23.0178 29.4844 20.8153 27.9478 20.4568 25.3868H23.9141C24.1958 26.2063 24.9385 26.8466 26.5519 26.8466C28.5239 26.8466 29.4714 25.899 29.4714 24.1063V22.6722H29.3946C28.6263 23.5429 27.6275 24.2088 25.9629 24.2088C23.0434 24.2088 20.1751 21.9039 20.1751 17.9344C20.1751 14.0161 22.5312 11.5063 25.8604 11.5063C27.4995 11.5063 28.7031 12.1466 29.497 13.2478H29.5483V11.8649H32.9031V24.0039C32.9031 25.8478 32.3141 27.1027 31.3409 27.999ZM23.5812 17.8832C23.5812 20.1112 24.7592 21.4173 26.5519 21.4173C28.7543 21.4173 29.6507 19.8039 29.6507 17.8575C29.6507 15.9368 28.6263 14.2978 26.5263 14.2978C24.7592 14.2978 23.5812 15.6807 23.5812 17.8832ZM41.3689 25.3868C45.4409 25.3868 48.2324 22.3649 48.2324 18.4466C48.2324 14.5283 45.4409 11.5063 41.3689 11.5063C37.297 11.5063 34.5055 14.5283 34.5055 18.4466C34.5055 22.3649 37.297 25.3868 41.3689 25.3868ZM41.3689 22.7234C39.2177 22.7234 38.0397 21.0075 38.0397 18.4466C38.0397 15.8856 39.2177 14.1441 41.3689 14.1441C43.4946 14.1441 44.6982 15.8856 44.6982 18.4466C44.6982 21.0075 43.4946 22.7234 41.3689 22.7234ZM155.076 7.92956C154.486 7.92956 154.009 8.4073 154.009 8.99663C154.009 9.58592 154.486 10.0637 155.076 10.0637H157.21C157.8 10.0637 158.278 9.58592 158.278 8.99663C158.278 8.4073 157.8 7.92956 157.21 7.92956H155.076Z" fill="#626981"/>
</svg>
