<svg width="146" height="35" viewBox="0 0 146 35" fill="none" xmlns="http://www.w3.org/2000/svg">
<path fill-rule="evenodd" clip-rule="evenodd" d="M34.9495 17.8888C34.9495 27.3181 27.3057 34.962 17.8764 34.962C8.44713 34.962 0.803223 27.3181 0.803223 17.8888C0.803223 8.45959 8.44713 0.815674 17.8764 0.815674C27.3057 0.815674 34.9495 8.45959 34.9495 17.8888ZM20.5116 8.73648C21.9669 10.1919 21.9669 12.5515 20.5116 14.0069L17.8764 16.642L15.2412 14.0069C13.7859 12.5515 13.7859 10.1919 15.2412 8.73648C16.6966 7.28109 19.0562 7.28109 20.5116 8.73648ZM27.0288 20.5241C25.5734 21.9795 23.2138 21.9795 21.7584 20.5241L19.1232 17.8889L21.7584 15.2536C23.2138 13.7983 25.5734 13.7983 27.0288 15.2536C28.4841 16.7091 28.4841 19.0686 27.0288 20.5241ZM20.5116 21.7708C21.9669 23.2262 21.9669 25.5858 20.5116 27.0412C19.0562 28.4966 16.6966 28.4966 15.2412 27.0412C13.7859 25.5858 13.7859 23.2262 15.2412 21.7708L17.8764 19.1357L20.5116 21.7708ZM8.724 15.2536C7.26865 16.7091 7.26865 19.0686 8.724 20.5241C10.1794 21.9795 12.539 21.9795 13.9944 20.5241L16.6296 17.8889L13.9944 15.2536C12.539 13.7983 10.1794 13.7983 8.724 15.2536ZM54.693 25.5719H44.4901V10.9231H48.1164V22.4987H54.693V25.5719ZM58.5252 20.3473C58.5252 22.2527 59.2832 23.523 60.7379 23.523C62.1925 23.523 62.971 22.2527 62.971 20.3473C62.971 18.442 62.1925 17.1512 60.7379 17.1512C59.2832 17.1512 58.5252 18.442 58.5252 20.3473ZM66.3515 20.3473C66.3515 23.5025 64.1389 25.8995 60.7584 25.8995C57.3984 25.8995 55.1447 23.5025 55.1447 20.3473C55.1447 17.1922 57.3984 14.7952 60.7584 14.7952C64.1389 14.7952 66.3515 17.1922 66.3515 20.3473ZM72.2029 29.1979C73.7599 29.1979 75.1326 28.8496 76.0546 28.0301C76.8946 27.2721 77.4477 26.1247 77.4477 24.5472V15.0818H74.2516V16.2086H74.2107C73.596 15.3277 72.6536 14.7745 71.2604 14.7745C68.6585 14.7745 66.8555 16.9462 66.8555 20.0194C66.8555 23.236 69.0477 24.9979 71.4038 24.9979C72.6741 24.9979 73.4731 24.4857 74.0877 23.7891H74.1697V24.834C74.1697 26.1043 73.5755 26.8418 72.1619 26.8418C71.0555 26.8418 70.5024 26.3706 70.318 25.8174H67.0809C67.4087 28.0096 69.3141 29.1979 72.2029 29.1979ZM72.1824 22.5189C70.9326 22.5189 70.1131 21.4945 70.1131 19.9169C70.1131 18.3189 70.9326 17.2945 72.1824 17.2945C73.5755 17.2945 74.3131 18.4828 74.3131 19.8965C74.3131 21.3716 73.637 22.5189 72.1824 22.5189ZM81.8068 20.3473C81.8068 22.2527 82.5649 23.523 84.0195 23.523C85.4742 23.523 86.2524 22.2527 86.2524 20.3473C86.2524 18.442 85.4742 17.1512 84.0195 17.1512C82.5649 17.1512 81.8068 18.442 81.8068 20.3473ZM89.6328 20.3473C89.6328 23.5025 87.4202 25.8995 84.04 25.8995C80.68 25.8995 78.4264 23.5025 78.4264 20.3473C78.4264 17.1922 80.68 14.7952 84.04 14.7952C87.4202 14.7952 89.6328 17.1922 89.6328 20.3473ZM90.6086 25.5719H93.9481V15.0821H90.6086V25.5719ZM90.6086 13.6275H93.9481V10.9231H90.6086V13.6275ZM98.7363 29.034H95.3968V15.0818H98.5928V16.3521H98.6543C99.3714 15.4096 100.396 14.7745 101.83 14.7745C104.616 14.7745 106.317 17.1716 106.317 20.3267C106.317 23.7277 104.493 25.8994 101.748 25.8994C100.396 25.8994 99.4329 25.3667 98.7772 24.4857H98.7363V29.034ZM98.6338 20.4496C98.6338 22.1501 99.4533 23.3179 100.887 23.3179C102.158 23.3179 102.936 22.2321 102.936 20.4496C102.936 18.6467 102.26 17.4584 100.826 17.4584C99.3714 17.4584 98.6338 18.7491 98.6338 20.4496ZM111.754 25.8994C114.499 25.8994 116.527 24.7111 116.527 22.4165C116.527 19.7325 114.356 19.2613 112.512 18.954C112.347 18.9237 112.185 18.8955 112.027 18.868C110.905 18.6732 109.992 18.5147 109.992 17.8682C109.992 17.2125 110.627 16.9052 111.446 16.9052C112.368 16.9052 113.003 17.1921 113.126 18.1345H116.2C116.036 16.0652 114.438 14.7745 111.467 14.7745C108.988 14.7745 106.939 15.9218 106.939 18.1345C106.939 20.593 108.885 21.0847 110.709 21.3921C110.854 21.4177 110.998 21.4418 111.14 21.4655L111.14 21.4656C112.354 21.6685 113.372 21.8389 113.372 22.6828C113.372 23.3589 112.737 23.7277 111.733 23.7277C110.627 23.7277 109.93 23.2155 109.807 22.1706H106.652C106.755 24.4857 108.681 25.8994 111.754 25.8994ZM124.198 24.2811C123.44 25.3055 122.518 25.8792 121.064 25.8792C118.646 25.8792 117.376 24.3016 117.376 21.966V15.0821H120.695V21.2694C120.695 22.4168 121.207 23.0519 122.272 23.0519C123.42 23.0519 124.116 22.1914 124.116 20.9416V15.0821H127.456V25.5719H124.26V24.2811H124.198ZM128.909 25.5716H132.248V19.6916C132.248 18.4418 132.863 17.5608 133.908 17.5608C134.912 17.5608 135.383 18.2165 135.383 19.3433V25.5716H138.722V19.6916C138.722 18.4418 139.317 17.5608 140.382 17.5608C141.386 17.5608 141.857 18.2165 141.857 19.3433V25.5716H145.197V18.7491C145.197 16.393 144.008 14.7745 141.632 14.7745C140.28 14.7745 139.153 15.3482 138.333 16.6184H138.292C137.76 15.4916 136.715 14.7745 135.342 14.7745C133.826 14.7745 132.822 15.4916 132.166 16.5774H132.105V15.0818H128.909V25.5716Z" fill="#626981"/>
</svg>
