<svg width="18" height="17" viewBox="0 0 18 17" fill="none" xmlns="http://www.w3.org/2000/svg">
<path d="M5.02039 9.91226L7.57851 7.35414L1.98319 1.76785C1.5493 1.33396 0.799039 1.45148 0.52786 2.01191C-0.11393 3.35877 0.121092 5.01296 1.23293 6.13383L5.02039 9.91226ZM11.149 8.27614C12.532 8.91793 14.4755 8.46597 15.9127 7.02872C17.6393 5.30222 17.9737 2.82545 16.6449 1.49667C15.3252 0.176934 12.8484 0.502349 11.1129 2.22885C9.67563 3.6661 9.22367 5.60955 9.86546 6.99256L1.67585 15.1822C1.50684 15.3512 1.41188 15.5804 1.41188 15.8194C1.41188 16.0585 1.50684 16.2877 1.67585 16.4567C1.84487 16.6257 2.0741 16.7207 2.31312 16.7207C2.55214 16.7207 2.78138 16.6257 2.95039 16.4567L8.54572 10.8795L14.132 16.4657C14.2157 16.5494 14.315 16.6158 14.4244 16.6611C14.5337 16.7064 14.6509 16.7297 14.7693 16.7297C14.8876 16.7297 15.0048 16.7064 15.1142 16.6611C15.2235 16.6158 15.3229 16.5494 15.4065 16.4657C15.4902 16.3821 15.5566 16.2827 15.6019 16.1734C15.6472 16.064 15.6705 15.9468 15.6705 15.8285C15.6705 15.7101 15.6472 15.5929 15.6019 15.4836C15.5566 15.3742 15.4902 15.2749 15.4065 15.1912L9.82026 9.60492L11.149 8.27614Z" fill="white"/>
</svg>
