<svg width="27" height="28" viewBox="0 0 27 28" fill="none" xmlns="http://www.w3.org/2000/svg">
<path d="M11.5493 12.5286C12.8606 14.7097 12.6677 17.2765 11.0993 18.3139C9.53083 19.3247 7.19099 18.3804 5.8668 16.1993C4.55546 14.0182 4.76116 11.4247 6.32962 10.414C7.89808 9.40321 10.2379 10.3475 11.5493 12.5286ZM13.722 21.5989C16.2932 21.5989 16.936 20.6014 16.936 20.6014C16.936 20.6014 16.2932 23.2613 13.722 23.2613C11.1507 23.2613 10.5079 20.6413 10.5079 20.6014C10.5079 20.6014 11.1507 21.5989 13.722 21.5989ZM21.1143 10.414C22.6828 11.4247 22.8885 14.0182 21.5771 16.1993C20.2529 18.3804 17.9131 19.3247 16.3446 18.3139C14.7762 17.2765 14.5833 14.7097 15.8947 12.5286C17.206 10.3475 19.5458 9.40321 21.1143 10.414ZM13.722 24.5913C16.936 24.5913 24.007 17.7553 24.007 12.6217C24.007 7.48807 19.3916 3.31201 13.722 3.31201C8.05236 3.31201 3.43697 7.48807 3.43697 12.6217C3.43697 17.7553 10.5079 24.5913 13.722 24.5913ZM13.722 0.6521C20.7929 0.6521 26.5782 6.02512 26.5782 12.6217C26.5782 18.0479 19.2759 27.2512 13.722 27.2512C8.16807 27.2512 0.865723 18.0479 0.865723 12.6217C0.865723 6.02512 6.65103 0.6521 13.722 0.6521Z" fill="#02E4C0"/>
</svg>
