<svg width="158" height="29" viewBox="0 0 158 29" fill="none" xmlns="http://www.w3.org/2000/svg">
<path fill-rule="evenodd" clip-rule="evenodd" d="M7.79319 14.8518C7.60189 15.3871 7.29459 15.8736 6.89321 16.2767H6.89532C6.43353 16.7396 5.8622 17.0786 5.23426 17.2623C4.60631 17.446 3.94208 17.4685 3.30311 17.3278C2.66413 17.1869 2.0711 16.8874 1.57895 16.4568C1.0868 16.0262 0.711464 15.4786 0.48773 14.8646C0.263996 14.2508 0.19909 13.5904 0.299028 12.9447C0.398976 12.2991 0.660526 11.689 1.05946 11.1712C1.45839 10.6534 1.9818 10.2444 2.58117 9.98229C3.18054 9.72018 3.83649 9.61329 4.48823 9.67165L4.46917 9.65262C5.13618 9.70887 5.80743 9.619 6.43609 9.38946C7.06476 9.15998 7.63568 8.79623 8.109 8.32365C8.58233 7.85107 8.9466 7.28107 9.17651 6.6534C9.40642 6.02574 9.49643 5.35554 9.44009 4.68959L9.45915 4.70862C9.38439 3.91223 9.55754 3.11221 9.95498 2.41766C10.3523 1.72311 10.9546 1.16784 11.6797 0.827572C12.4046 0.487307 13.2172 0.378594 14.0064 0.516288C14.7955 0.653972 15.5231 1.03135 16.0895 1.59695C16.656 2.16255 17.034 2.88884 17.1719 3.67678C17.3098 4.46472 17.2009 5.27595 16.8602 5.99985C16.5193 6.72374 15.9632 7.32506 15.2675 7.7218C14.5719 8.11854 13.7705 8.2914 12.9729 8.21679L12.993 8.23582C12.3259 8.17928 11.6543 8.26883 11.0254 8.49823C10.3965 8.72761 9.82535 9.09131 9.35177 9.56391C8.87819 10.0365 8.51365 10.6066 8.28363 11.2345C8.0536 11.8623 7.96363 12.5327 8.01997 13.1989L7.99986 13.1798C8.05505 13.7455 7.98448 14.3164 7.79319 14.8518ZM13.9907 18.3987L13.9706 18.3797C14.5375 18.4366 15.11 18.3672 15.6468 18.1762C16.1835 17.9853 16.671 17.6777 17.0741 17.2756C17.477 16.8735 17.7856 16.3869 17.9772 15.8512C18.1689 15.3155 18.2389 14.744 18.1822 14.1779L18.2023 14.1969C18.146 13.5309 18.236 12.8608 18.4658 12.2331C18.6957 11.6055 19.0601 11.0355 19.5334 10.5628C20.0067 10.0903 20.5776 9.7265 21.2063 9.49706C21.835 9.26748 22.5062 9.17768 23.1732 9.2339L23.1531 9.21487C23.9511 9.28972 24.7526 9.11691 25.4486 8.72015C26.1447 8.32338 26.7011 7.72191 27.0421 6.99778C27.3831 6.27367 27.492 5.46215 27.3542 4.67391C27.2163 3.88568 26.8382 3.15911 26.2714 2.5933C25.7048 2.0275 24.977 1.65 24.1875 1.51231C23.3981 1.37462 22.5853 1.48343 21.86 1.8239C21.1347 2.16437 20.5323 2.71994 20.1349 3.41481C19.7374 4.10968 19.5644 4.91003 19.6394 5.7067L19.6203 5.68661C19.6768 6.3526 19.587 7.02287 19.3572 7.65062C19.1274 8.27837 18.763 8.84846 18.2897 9.32113C17.8163 9.79364 17.2453 10.1575 16.6166 10.3869C15.9878 10.6163 15.3165 10.706 14.6494 10.6496L14.6685 10.6697C14.1016 10.6127 13.529 10.6822 12.9923 10.8732C12.4556 11.064 11.968 11.3717 11.565 11.7738C11.1619 12.1759 10.8534 12.6624 10.6617 13.1982C10.4702 13.7339 10.4002 14.3054 10.4568 14.8715L10.4378 14.8525C10.4939 15.5184 10.4038 16.1885 10.1739 16.8161C9.94386 17.4436 9.57956 18.0136 9.1063 18.4861C8.63299 18.9586 8.06215 19.3224 7.43357 19.552C6.80499 19.7816 6.13381 19.8715 5.46685 19.8155L5.48591 19.8345C4.68798 19.7597 3.88635 19.9324 3.19037 20.3292C2.4944 20.7261 1.93795 21.3275 1.59694 22.0516C1.25592 22.7758 1.14693 23.5872 1.28484 24.3755C1.42276 25.1637 1.80086 25.8903 2.36756 26.4561C2.93427 27.0219 3.66199 27.3994 4.45148 27.5371C5.24097 27.6747 6.05378 27.5659 6.77906 27.2255C7.50432 26.885 8.10675 26.3295 8.50415 25.6346C8.90159 24.9397 9.07463 24.1394 8.99965 23.3427L9.01978 23.3617C8.96344 22.6957 9.05345 22.0256 9.28336 21.3979C9.51316 20.7702 9.87756 20.2003 10.3508 19.7276C10.8242 19.2551 11.3951 18.8913 12.0237 18.6619C12.6524 18.4323 13.3236 18.3424 13.9907 18.3987ZM21.8029 12.8319C21.4015 13.2351 21.0942 13.7217 20.9028 14.2569C20.7113 14.7922 20.6404 15.363 20.6952 15.9288L20.6761 15.9098C20.7325 16.5758 20.6425 17.2459 20.4125 17.8736C20.1826 18.5013 19.8183 19.0713 19.3451 19.5439C18.8717 20.0164 18.3008 20.3802 17.6721 20.6096C17.0435 20.8392 16.3722 20.9291 15.7052 20.8728L15.7243 20.8918C14.9264 20.8177 14.1251 20.991 13.4294 21.3882C12.7339 21.7855 12.1779 22.3872 11.8374 23.1115C11.497 23.8357 11.3884 24.6471 11.5267 25.4352C11.6651 26.2232 12.0435 26.9495 12.6104 27.515C13.1773 28.0804 13.905 28.4576 14.6944 28.5949C15.4839 28.7323 16.2964 28.6232 17.0215 28.2827C17.7466 27.942 18.3488 27.3865 18.746 26.6916C19.1432 25.9968 19.3162 25.1966 19.2412 24.4L19.2613 24.419C19.205 23.7531 19.2949 23.0829 19.5248 22.4552C19.7547 21.8276 20.1191 21.2576 20.5924 20.7849C21.0657 20.3124 21.6366 19.9486 22.2653 19.7192C22.894 19.4896 23.5652 19.3998 24.2322 19.456L24.2121 19.437C24.8638 19.4954 25.5199 19.3888 26.1194 19.1268C26.7188 18.8648 27.2423 18.4559 27.6414 17.9381C28.0404 17.4204 28.3022 16.8103 28.4021 16.1647C28.5022 15.519 28.4374 14.8586 28.2137 14.2445C27.9901 13.6305 27.6148 13.0828 27.1227 12.6522C26.6305 12.2215 26.0375 11.9219 25.3985 11.7811C24.7595 11.6402 24.0952 11.6627 23.4672 11.8463C22.8392 12.0301 22.2679 12.369 21.8061 12.8319H21.8029ZM42.9474 5.30589H46.4124V22.1677H42.9474V5.30589ZM49.3945 12.9861C48.7248 13.996 48.3699 15.182 48.3747 16.3937C48.3688 17.1981 48.5232 17.9956 48.8291 18.7396C49.1349 19.4836 49.586 20.1592 50.156 20.7269C50.7259 21.2945 51.4033 21.7429 52.1485 22.0457C52.8938 22.3486 53.6919 22.4999 54.4962 22.4907C55.708 22.4907 56.8924 22.131 57.8997 21.4573C58.9069 20.7836 59.6915 19.826 60.1541 18.7061C60.6167 17.5861 60.7365 16.354 60.4983 15.1659C60.26 13.9778 59.6746 12.887 58.816 12.032C57.9575 11.1768 56.8644 10.5958 55.6754 10.3624C54.4863 10.1289 53.2548 10.2536 52.1366 10.7208C51.0185 11.1878 50.0642 11.9762 49.3945 12.9861ZM56.6695 14.9376C56.9701 15.3649 57.1383 15.8714 57.1527 16.3937C57.1722 16.7512 57.1174 17.1087 56.9917 17.4439C56.8662 17.7791 56.6724 18.0847 56.4229 18.3413C56.1733 18.5979 55.8732 18.7999 55.5417 18.9348C55.21 19.0697 54.854 19.1344 54.4962 19.1249C53.9738 19.1249 53.4628 18.9709 53.0273 18.6821C52.5919 18.3934 52.2512 17.9827 52.0479 17.5013C51.8445 17.02 51.7877 16.4894 51.8843 15.9759C51.9808 15.4623 52.2267 14.9887 52.5909 14.6142C52.9553 14.2396 53.422 13.9808 53.9326 13.87C54.4433 13.7591 54.9751 13.8014 55.462 13.9913C55.9487 14.1811 56.3687 14.5103 56.6695 14.9376ZM74.4276 10.6187V21.5854C74.4276 25.4657 71.4012 27.1061 68.3294 27.1061C67.2479 27.187 66.1649 26.9685 65.1992 26.4747C64.2337 25.9807 63.4227 25.2304 62.8554 24.3061L65.8117 22.5969C66.0502 23.0787 66.4302 23.4762 66.9007 23.7363C67.3713 23.9962 67.9101 24.1063 68.4449 24.0517C68.7867 24.0991 69.1348 24.069 69.4635 23.9636C69.792 23.8583 70.0928 23.6804 70.3434 23.4432C70.594 23.2059 70.788 22.9154 70.9112 22.5929C71.0343 22.2706 71.0833 21.9247 71.0547 21.5807V20.5249C70.6489 21.0213 70.1326 21.4158 69.5468 21.6765C68.961 21.9373 68.3224 22.0571 67.6819 22.0264C66.158 21.9783 64.7126 21.3392 63.6516 20.2442C62.5907 19.1493 61.9974 17.6844 61.9974 16.1598C61.9974 14.6352 62.5907 13.1703 63.6516 12.0754C64.7126 10.9804 66.158 10.3413 67.6819 10.2932C68.3224 10.2625 68.961 10.3824 69.5468 10.6431C70.1326 10.9039 70.6489 11.2983 71.0547 11.7947V10.6164L74.4276 10.6187ZM71.0559 16.1616C71.0792 15.6032 70.9348 15.0505 70.6414 14.5749C70.348 14.0991 69.9189 13.7222 69.4094 13.4925C68.8999 13.2626 68.3334 13.1906 67.7826 13.2856C67.2318 13.3806 66.7221 13.6382 66.3189 14.0254C65.9158 14.4125 65.6378 14.9114 65.5205 15.4578C65.4034 16.0043 65.4524 16.5734 65.6615 17.0917C65.8704 17.6101 66.2297 18.0541 66.6931 18.3666C67.1565 18.679 67.7029 18.8456 68.2617 18.8449C68.6258 18.8703 68.9911 18.8192 69.3342 18.6949C69.6774 18.5705 69.9906 18.3755 70.2538 18.1228C70.517 17.87 70.7244 17.5649 70.8626 17.2271C71.0007 16.8893 71.0666 16.5264 71.0559 16.1616ZM77.4097 12.9861C76.7399 13.996 76.3851 15.182 76.3899 16.3937C76.3839 17.1981 76.5384 17.9956 76.8443 18.7396C77.1501 19.4836 77.6011 20.1592 78.1712 20.7269C78.7411 21.2945 79.4184 21.7429 80.1637 22.0457C80.9089 22.3486 81.7071 22.4999 82.5114 22.4907C83.7232 22.4907 84.9076 22.131 85.9149 21.4573C86.9221 20.7836 87.7067 19.826 88.1693 18.7061C88.6318 17.5861 88.7517 16.354 88.5134 15.1659C88.2752 13.9778 87.6898 12.887 86.8312 12.032C85.9727 11.1768 84.8796 10.5958 83.6905 10.3624C82.5015 10.1289 81.2699 10.2536 80.1518 10.7208C79.0337 11.1878 78.0793 11.9762 77.4097 12.9861ZM84.6847 14.9376C84.9853 15.3649 85.1534 15.8714 85.1679 16.3937C85.1874 16.7512 85.1325 17.1087 85.0069 17.4439C84.8814 17.7791 84.6876 18.0847 84.438 18.3413C84.1885 18.5979 83.8884 18.7999 83.5567 18.9348C83.2252 19.0697 82.8692 19.1344 82.5114 19.1249C81.9888 19.1249 81.478 18.9709 81.0424 18.6821C80.607 18.3934 80.2664 17.9827 80.063 17.5013C79.8597 17.02 79.8027 16.4894 79.8993 15.9759C79.9959 15.4623 80.2419 14.9887 80.6061 14.6142C80.9705 14.2396 81.4371 13.9808 81.9478 13.87C82.4583 13.7591 82.9903 13.8014 83.4772 13.9913C83.9639 14.1811 84.3839 14.5103 84.6847 14.9376ZM90.2487 7.52351C90.2487 7.11231 90.3706 6.71036 90.5991 6.36848C90.8275 6.02659 91.1523 5.76011 91.5322 5.60276C91.912 5.4454 92.33 5.40423 92.7334 5.48445C93.1366 5.56467 93.5071 5.76268 93.7978 6.05344C94.0886 6.34418 94.2865 6.71462 94.3668 7.11791C94.447 7.5212 94.4058 7.93921 94.2485 8.3191C94.0911 8.69899 93.8247 9.02369 93.4827 9.25216C93.1409 9.48059 92.739 9.60251 92.3277 9.60251C91.7781 9.59702 91.2524 9.37629 90.8637 8.98753C90.475 8.59882 90.2542 8.07319 90.2487 7.52351ZM90.5987 10.6187H94.0649V22.1687H90.594L90.5987 10.6187ZM108.699 18.6411C108.955 17.9209 109.066 17.1572 109.026 16.3938C109.067 15.6304 108.955 14.8664 108.7 14.1461C108.444 13.4257 108.048 12.7631 107.534 12.1963C107.021 11.6295 106.401 11.1699 105.71 10.8437C105.018 10.5175 104.269 10.3313 103.506 10.2957C102.863 10.2607 102.222 10.3688 101.627 10.6124C101.032 10.8559 100.498 11.2288 100.065 11.7038V10.6188H96.6V26.7877H100.065V21.0815C100.498 21.5569 101.031 21.93 101.626 22.1739C102.222 22.4176 102.863 22.5258 103.506 22.4908C104.269 22.4551 105.018 22.2688 105.709 21.9427C106.401 21.6165 107.021 21.1569 107.534 20.5903C108.047 20.0237 108.443 19.3613 108.699 18.6411ZM105.065 14.8858C105.375 15.3288 105.548 15.8533 105.561 16.3938C105.587 16.7645 105.534 17.1365 105.406 17.4854C105.278 17.8342 105.078 18.152 104.819 18.4181C104.559 18.6841 104.246 18.8924 103.901 19.029C103.555 19.1657 103.185 19.2279 102.814 19.2113C102.273 19.2115 101.744 19.052 101.294 18.7531C100.843 18.4541 100.491 18.0289 100.281 17.5306C100.071 17.0324 100.012 16.4833 100.113 15.952C100.213 15.4206 100.468 14.9308 100.846 14.5436C101.223 14.1565 101.706 13.8894 102.235 13.7756C102.764 13.6617 103.314 13.7064 103.817 13.9039C104.321 14.1013 104.755 14.4429 105.065 14.8858ZM119.719 18.7028C119.719 21.3593 117.41 22.491 114.916 22.491C113.908 22.5822 112.896 22.3692 112.01 21.879C111.125 21.389 110.407 20.6447 109.949 19.7423L112.951 18.0331C113.072 18.4502 113.333 18.8132 113.69 19.0611C114.046 19.3091 114.478 19.4273 114.911 19.3958C115.742 19.3958 116.158 19.1415 116.158 18.6806C116.158 18.222 115.419 18.016 114.474 17.7527C112.798 17.2858 110.475 16.6386 110.475 14.084C110.475 11.5651 112.601 10.2958 115.003 10.2958C115.906 10.2672 116.8 10.4814 117.592 10.916C118.384 11.3507 119.046 11.9898 119.506 12.7668L116.55 14.3605C116.421 14.058 116.205 13.8002 115.929 13.6195C115.654 13.4388 115.332 13.3431 115.003 13.3443C114.402 13.3443 114.032 13.5776 114.032 13.9906C114.034 14.4607 114.759 14.6511 115.69 14.8959C117.369 15.3369 119.719 15.9544 119.719 18.7028ZM132.376 22.1689V10.6189L128.914 10.6224V16.9224C128.914 18.5628 128.037 19.3013 126.767 19.3013C126.49 19.3181 126.214 19.2744 125.957 19.1735C125.699 19.0726 125.467 18.9168 125.276 18.717C125.084 18.5171 124.938 18.278 124.85 18.0162C124.76 17.7545 124.728 17.4764 124.758 17.2013V10.6189H121.293V17.7088C121.293 20.8296 123.276 22.4921 125.609 22.4921C126.232 22.535 126.855 22.4297 127.429 22.1847C128.003 21.9397 128.511 21.562 128.911 21.0828V22.1689H132.376ZM152.244 15.0765V22.1675H148.779V15.3763C148.779 14.2213 148.225 13.4828 147.117 13.4828C145.962 13.4828 145.314 14.2913 145.314 15.654V22.1675H141.85V15.3763C141.85 14.2213 141.296 13.4828 140.187 13.4828C139.032 13.4828 138.385 14.2913 138.385 15.654V22.1675H134.92V10.6175H138.385V11.6791C138.745 11.2082 139.216 10.8346 139.756 10.5927C140.298 10.3508 140.89 10.2482 141.481 10.2943C142.073 10.2653 142.664 10.3904 143.194 10.6575C143.724 10.9244 144.176 11.3244 144.506 11.818C144.89 11.3015 145.398 10.8908 145.984 10.6244C146.57 10.3579 147.214 10.2444 147.855 10.2943C150.507 10.2955 152.244 12.189 152.244 15.0765ZM157.746 7.97644C157.746 9.3965 156.595 10.5478 155.175 10.5478C153.755 10.5478 152.604 9.3965 152.604 7.97644C152.604 6.55632 153.755 5.4051 155.175 5.4051C156.595 5.4051 157.746 6.55632 157.746 7.97644Z" fill="#626981"/>
</svg>
