<svg width="75" height="47" viewBox="0 0 75 47" fill="none" xmlns="http://www.w3.org/2000/svg">
<path fill-rule="evenodd" clip-rule="evenodd" d="M47.4744 0.273025C47.3633 0.172823 47.1459 0.226855 46.9367 0.381043C45.7331 1.27 48.0746 3.79455 49.4393 5.26595C49.7885 5.64244 50.0737 5.94998 50.2192 6.14352C50.2495 6.18932 50.3137 6.17313 50.3884 6.11999C50.4583 6.07184 50.5023 6.00963 50.509 5.95073C50.5251 5.88183 50.5238 5.81577 50.5037 5.76974C49.9685 3.794 49.1042 1.63585 47.4744 0.273025ZM55.5393 1.47346C55.7134 1.57174 55.8108 1.6655 55.8588 1.77026C55.9304 1.90767 55.8927 2.00274 55.7724 2.05126C54.8819 2.47622 53.7485 4.05914 53.0529 5.03078L53.0528 5.03093C52.9046 5.23782 52.7763 5.41698 52.6745 5.55134C52.5339 5.72741 52.2094 5.62509 52.1604 5.33555C52.1705 5.00816 53.4447 2.59981 54.1558 1.94386C54.1754 1.9259 54.1959 1.90673 54.2173 1.88671L54.2175 1.88649L54.2176 1.88645L54.2188 1.88533L54.22 1.88421L54.2201 1.88407C54.5039 1.61843 54.944 1.20634 55.5393 1.47346ZM69.7518 6.12159C69.7657 6.08078 69.7657 6.01276 69.7657 5.95835C69.6696 5.95113 69.5735 5.94006 69.4795 5.92923C69.3966 5.91968 69.3153 5.91031 69.237 5.90394C69.1674 5.90394 69.0979 5.89034 69.0423 5.84953C68.9448 5.80871 68.9031 5.7543 68.8892 5.65907C68.8892 5.56385 68.9448 5.49583 69.0423 5.45503C69.0835 5.42475 69.1401 5.41694 69.195 5.40936L69.1951 5.40935C69.2141 5.40672 69.233 5.40412 69.2509 5.40061L69.2512 5.40058C69.3764 5.387 69.5015 5.37341 69.6266 5.37341C69.9744 5.37341 70.3222 5.37341 70.6701 5.3598C70.7675 5.3598 70.8787 5.37341 70.9622 5.41422C71.1848 5.52305 71.1848 5.7543 70.9762 5.86312C70.9066 5.90393 70.8231 5.91754 70.7257 5.93114C70.612 5.93114 70.4867 5.94237 70.35 5.95463L70.3083 5.95835V6.06717C70.3222 6.59771 70.35 7.14183 70.4892 7.65876C70.5171 7.78119 70.5171 7.90362 70.4614 8.02605C70.35 8.27091 70.0718 8.31171 69.891 8.10767C69.7797 7.99897 69.7519 7.86314 69.724 7.72727L69.7239 7.72678C69.6822 7.18264 69.6823 6.65212 69.7518 6.12159ZM73.6056 6.61131C73.6056 6.61131 73.5918 6.59771 73.5918 6.5841C73.5779 6.59765 73.5675 6.6112 73.5571 6.62475C73.5467 6.63841 73.5362 6.65206 73.5222 6.66572C73.4595 6.76105 73.3899 6.85638 73.3203 6.95171L73.3201 6.95198C73.2506 7.047 73.1812 7.14203 73.1187 7.23705L73.0491 7.30507C72.924 7.42751 72.7987 7.4411 72.6457 7.33228C72.4926 7.19625 72.3674 7.03301 72.2422 6.86977C72.2143 6.82896 72.1865 6.78815 72.1588 6.73373C72.1297 6.83795 72.1141 6.92238 72.0979 7.00998C72.0909 7.04816 72.0837 7.08695 72.0753 7.12823L72.0742 7.13415L72.0742 7.13448L72.0741 7.13488C72.0327 7.36392 71.9913 7.59309 71.9361 7.83561C71.9222 7.90362 71.9082 7.97164 71.8666 8.05325C71.8248 8.16208 71.7274 8.20289 71.5883 8.18929C71.477 8.17569 71.3935 8.10766 71.3656 7.99884C71.3379 7.94442 71.324 7.87641 71.3379 7.822C71.3379 7.57714 71.3518 7.33229 71.3796 7.08742C71.4075 6.86894 71.439 6.65045 71.4704 6.43197C71.5016 6.21515 71.5327 5.99833 71.5605 5.78151C71.5648 5.76471 71.5677 5.74922 71.5706 5.73421C71.577 5.70061 71.583 5.66949 71.6023 5.63187C71.6717 5.50944 71.7831 5.42782 71.9222 5.41422C72.0753 5.41422 72.1727 5.48224 72.2561 5.60466L72.2562 5.60475C72.2701 5.63193 72.2839 5.6591 72.3118 5.68629C72.4201 5.88173 72.5233 6.08204 72.6276 6.28432L72.6278 6.28473L72.628 6.28512L72.6282 6.28538C72.6979 6.42065 72.7681 6.55679 72.8405 6.69293C72.8405 6.69293 72.8544 6.70653 72.8683 6.73373C72.8961 6.69293 72.91 6.65212 72.924 6.59771C73.0027 6.45334 73.0675 6.30217 73.1332 6.149L73.1332 6.14894C73.1603 6.08564 73.1876 6.022 73.2161 5.95835C73.2718 5.83592 73.3413 5.72709 73.4248 5.61827C73.4944 5.49584 73.6196 5.41422 73.7866 5.44143C73.9535 5.45502 74.0509 5.55025 74.0927 5.68629C74.1622 5.90393 74.2317 6.13519 74.2874 6.38005C74.3301 6.58207 74.362 6.78765 74.394 6.99497L74.3941 6.99525C74.4246 7.1927 74.4554 7.39172 74.4961 7.59074C74.5239 7.72678 74.51 7.8492 74.4543 7.97164C74.3292 8.21649 74.0509 8.2437 73.87 8.01244C73.7866 7.91722 73.7727 7.80839 73.7587 7.68597C73.7224 7.378 73.6755 7.07002 73.6272 6.75307L73.6056 6.61131ZM41.4639 6.82541C41.4192 6.67061 41.4377 6.48435 41.5344 6.22583C41.9284 5.41601 42.7798 5.47202 43.3288 5.50813C43.3723 5.51099 43.4138 5.51372 43.453 5.51589C44.8197 5.59594 48.4016 7.06399 48.7132 7.40689C48.9267 7.76096 48.6722 8.15588 48.3593 8.09025C48.1263 8.03536 47.8238 7.95554 47.4745 7.86337C45.8343 7.4306 43.1622 6.72557 41.8149 7.0513C41.6412 7.10484 41.5132 7.03592 41.4639 6.82541ZM12.4232 24.0091C12.8138 23.7247 13.2385 23.488 13.6879 23.3043C14.158 23.1729 14.6592 23.1946 15.1155 23.3665C15.5718 23.5383 15.9586 23.8506 16.2172 24.2564C16.4485 24.6611 16.539 25.1284 16.4751 25.5879C16.4113 26.0472 16.1965 26.4739 15.863 26.8037C15.6046 27.0709 15.3111 27.3037 14.9905 27.4961C14.2243 27.9801 13.4545 28.4498 12.683 28.9205C12.0155 29.3278 11.3467 29.7359 10.6779 30.1546C10.3829 30.3806 10.07 30.5832 9.74206 30.7606C9.24329 31.0038 8.67327 31.0689 8.13057 30.9447C7.58788 30.8206 7.10664 30.5148 6.77007 30.0805C6.51846 29.7729 6.30612 29.4366 6.13773 29.0789C5.72682 28.2344 5.31134 27.3911 4.89541 26.5469L4.8954 26.5469L4.8954 26.5469L4.89539 26.5468L4.89538 26.5468L4.89537 26.5468L4.89536 26.5468L4.89535 26.5468L4.89534 26.5468L4.89533 26.5467C3.92874 24.5848 2.95973 22.618 2.04018 20.621C1.44866 19.4161 0.96522 18.0351 0.496243 16.6954L0.459334 16.5899C0.251414 16.1911 0.210812 15.7288 0.346173 15.3012C0.481534 14.8735 0.782179 14.5144 1.18415 14.3002C1.58613 14.0859 2.05772 14.0335 2.49864 14.154C2.93955 14.2745 3.31501 14.5584 3.54514 14.9453C4.25251 15.8645 4.87868 16.8408 5.41686 17.8636C6.16279 19.2142 6.88986 20.5648 7.61044 21.9033L7.61064 21.9037L7.6107 21.9038C8.20946 23.016 8.80373 24.1199 9.40059 25.2085C9.47718 25.3411 9.56163 25.469 9.65353 25.5918C10.6435 25.1849 11.5746 24.6528 12.4232 24.0091ZM15.5553 21.2174C18.1858 25.8172 23.4216 26.7199 26.5453 23.1464C29.1505 20.2529 29.4667 15.2079 27.2409 11.251C26.6307 10.0421 25.6454 9.05267 24.4257 8.42418C23.2061 7.79569 21.8143 7.56027 20.4495 7.75158C19.3364 7.96435 18.2966 8.44932 17.427 9.16123C13.3547 12.5617 13.6835 17.9529 15.5553 21.2174ZM23.3962 12.4627C24.283 13.0097 24.9487 13.8398 25.2806 14.8122L25.2427 14.8246C25.6395 15.9736 25.6603 17.2151 25.3021 18.3763C24.9441 19.5375 24.2249 20.5608 23.2446 21.3039C22.9092 21.5268 22.5282 21.6752 22.128 21.7391C21.7279 21.8028 21.3184 21.7803 20.9281 21.6731C20.5378 21.566 20.1761 21.3767 19.8684 21.1185C19.5607 20.8604 19.3146 20.5397 19.1469 20.1787C17.8316 17.9653 18.2111 14.2434 20.0196 12.6729C20.472 12.2638 21.0547 12.0196 21.6698 11.9813C22.2847 11.943 22.8944 12.113 23.3962 12.4627ZM39.2931 16.3703C38.9733 16.4375 38.643 16.4415 38.3215 16.382C38.0001 16.3225 37.694 16.2009 37.4215 16.0241C37.1829 15.8907 36.9776 15.7073 36.8202 15.487C36.6629 15.2667 36.5575 15.0151 36.5116 14.7502C36.4655 14.4854 36.4803 14.2138 36.5544 13.9552C36.6287 13.6965 36.7607 13.4571 36.9409 13.2542C37.2548 12.8465 37.7005 12.5546 38.2056 12.4258C39.5242 12.0516 40.8817 11.8235 42.2525 11.7457C42.5537 11.7115 42.8589 11.7364 43.15 11.819C43.4412 11.9017 43.7126 12.0403 43.9482 12.227C44.1838 12.4136 44.3789 12.6444 44.5221 12.9057C44.6652 13.167 44.7535 13.4537 44.7819 13.7489C45.177 15.1987 45.2203 16.7189 44.9083 18.188C43.7701 22.9363 39.8496 24.5684 35.4485 23.0475C34.2131 22.6409 33.1299 21.8832 32.3374 20.8713C31.2804 19.6526 30.531 18.2084 30.1495 16.6547C29.8405 15.2712 29.8743 13.8355 30.2484 12.4675C30.6223 11.0994 31.3256 9.83858 32.2995 8.79039C33.2237 7.65112 34.4232 6.75451 35.79 6.18131C36.6537 5.71586 37.6643 5.58352 38.6229 5.81035C38.8403 5.86919 39.0377 5.98384 39.1946 6.14241C39.3514 6.301 39.4621 6.49771 39.515 6.71217C39.5679 6.92663 39.5611 7.15102 39.4955 7.36208C39.4297 7.57313 39.3075 7.76316 39.1414 7.91245C38.8256 8.19197 38.4825 8.44047 38.117 8.65436C36.9927 9.35444 36.0142 10.2565 35.2335 11.3129C34.7218 11.9964 34.3694 12.7814 34.2011 13.6124C34.0328 14.4434 34.0529 15.3003 34.2598 16.123C34.5466 17.2447 35.183 18.2516 36.0809 19.0041C38.8631 21.4772 42.4801 19.0906 41.8478 15.7149C41.3755 15.8288 40.9329 15.946 40.5032 16.0597C40.093 16.1682 39.6946 16.2737 39.2931 16.3703ZM46.4767 18.1507C47.5011 23.3441 52.1804 25.8172 56.2906 23.3441C59.6926 21.378 61.5896 16.6668 60.7549 12.2525C60.5577 10.9201 59.9377 9.68202 58.9825 8.71256C58.0273 7.7431 56.7849 7.09122 55.4306 6.84882C54.3034 6.71274 53.1594 6.85735 52.1046 7.26924C47.147 9.24768 45.7306 14.4411 46.4767 18.1507ZM56.6701 12.2153C57.3468 13.001 57.7185 13.995 57.7198 15.0222C57.7262 16.2407 57.3433 17.4307 56.6246 18.426C55.9059 19.4214 54.8872 20.1724 53.7107 20.5743C53.321 20.6828 52.9117 20.7068 52.5114 20.6446C52.1113 20.5824 51.7298 20.4354 51.3938 20.214C51.0577 19.9926 50.7751 19.7021 50.5659 19.3628C50.3566 19.0235 50.2257 18.6436 50.1822 18.2497C49.6131 15.7394 51.1813 12.3266 53.4071 11.3869C53.9651 11.1344 54.5952 11.079 55.1903 11.23C55.7853 11.3812 56.3083 11.7294 56.6701 12.2153ZM64.9114 24.383C64.8494 24.8356 64.6061 25.2455 64.2349 25.5227C63.8637 25.7997 63.3951 25.9214 62.9322 25.8607C62.4694 25.8 62.0501 25.562 61.7667 25.1991C61.4832 24.8362 61.3589 24.3781 61.421 23.9255C61.483 23.4729 61.7264 23.063 62.0975 22.7859C62.4688 22.5087 62.9373 22.3872 63.4002 22.4479C63.863 22.5085 64.2823 22.7464 64.5658 23.1094C64.8492 23.4723 64.9736 23.9305 64.9114 24.383ZM63.8112 7.70223C64.0517 7.34305 64.4046 7.06953 64.8172 6.92246C65.2296 6.77538 65.6797 6.76264 66.1003 6.88612C66.5278 6.99071 66.9055 7.23572 67.1703 7.58013C67.4351 7.92455 67.5707 8.34745 67.5547 8.77801C67.4989 9.46865 67.3933 10.1546 67.2385 10.8306C67.143 11.3543 67.0481 11.878 66.9533 12.4014L66.9528 12.4042L66.9527 12.4047L66.9526 12.4052C66.6334 14.1668 66.3149 15.9251 65.9739 17.6687C65.7715 18.5714 65.5059 19.4369 65.215 20.3519C65.1138 20.6379 64.9447 20.8964 64.7218 21.1062C64.5832 21.264 64.4062 21.385 64.207 21.4581C64.0078 21.5313 63.793 21.5541 63.5825 21.5245C63.372 21.4949 63.1724 21.4139 63.0023 21.2889C62.8323 21.1639 62.6973 20.999 62.6098 20.8094C62.4594 20.4694 62.3778 20.104 62.3695 19.7337C62.3695 18.2003 62.3695 16.6547 62.4707 15.109C62.6426 12.9032 62.9807 10.7127 63.4824 8.55543C63.5415 8.26642 63.6527 7.99003 63.8112 7.73933V7.70223ZM6.96269 35.3583C6.88972 35.0086 6.93067 34.6452 7.08 34.3193C7.23131 33.989 7.48609 33.7144 7.8075 33.535C8.14725 33.3421 8.54608 33.2735 8.93279 33.3415C9.31143 33.4081 9.65429 33.6014 9.90285 33.8878C10.2857 34.2088 10.6087 34.5925 10.8572 35.0217L10.8635 35.0333C11.7124 36.6808 12.5229 38.3278 13.3203 39.9861L13.3225 39.9908C13.8072 41.0508 14.2275 42.1345 14.5965 43.2166C14.829 43.8684 14.8771 44.5693 14.7361 45.2453C14.7109 45.5924 14.5817 45.9246 14.3642 46.2002C14.1425 46.4814 13.8393 46.6907 13.4942 46.8011C13.1491 46.9115 12.7781 46.9177 12.4293 46.8191C12.0871 46.7223 11.782 46.5289 11.5519 46.2634C11.0102 45.7804 10.6015 45.171 10.3639 44.4926C10.2977 44.3018 10.2329 44.1115 10.1684 43.9217L10.1677 43.9196C10.0082 43.4507 9.84988 42.9849 9.67158 42.523C9.04068 40.8944 8.56769 39.7691 8.19073 38.8886C8.131 38.749 8.07352 38.6153 8.01816 38.4866L7.98897 38.4186C7.70943 37.7687 7.48273 37.2414 7.28013 36.7081C7.11786 36.2726 7.01124 35.8192 6.96269 35.3583ZM19.2585 30.2358C18.0082 29.9192 16.7025 29.8731 15.4323 30.1007C14.4485 30.1954 13.4809 30.4173 12.809 30.8568C12.4673 31.0805 12.191 31.3677 12.0374 31.7327C11.8828 32.0998 11.8631 32.5196 11.9897 32.9873C12.2206 33.8429 12.5204 34.6748 12.8192 35.504L12.8192 35.5041L12.8204 35.5074L12.8689 35.6419L12.87 35.6449C13.7709 38.0571 14.6804 40.4612 15.5981 42.857C15.7051 43.2346 15.8565 43.5988 16.0491 43.9423L16.0527 43.9487C16.3071 44.3755 16.6335 44.7572 17.018 45.0778C17.2102 45.2541 17.448 45.376 17.7059 45.4306C17.9662 45.4855 18.237 45.4696 18.4887 45.3843C18.7405 45.2992 18.9634 45.148 19.1333 44.9473C19.3005 44.75 19.4099 44.5122 19.4501 44.2591C19.616 43.5716 19.5629 42.851 19.2977 42.1938C19.2154 41.9736 19.1507 41.7486 19.0826 41.5118L19.0817 41.5088L19.076 41.4891C19.0551 41.4161 19.0337 41.3419 19.0114 41.2665C21.1121 40.4636 23.3473 39.384 24.1334 36.8725C24.4411 36.0046 24.4668 35.0648 24.2067 34.182C23.9465 33.2982 23.4125 32.5148 22.6783 31.9398C21.6791 31.1348 20.5119 30.5531 19.2585 30.2358ZM15.793 33.3163C15.8343 33.3047 15.876 33.2938 15.9178 33.2838C17.2854 33.0735 18.6847 33.3537 19.8579 34.0723C20.375 34.4239 20.5868 34.8145 20.6232 35.1904C20.6607 35.5774 20.5168 35.9968 20.2277 36.3999C19.6814 37.1614 18.6844 37.771 17.7838 37.8846C17.1273 36.4063 16.4606 34.8682 15.793 33.3163ZM32.37 27.2142C30.9268 26.7415 29.0825 26.8576 27.5936 27.5299C26.0968 28.206 24.916 29.4688 24.9137 31.3019C24.8838 32.054 25.1036 32.7955 25.5403 33.4155C25.9753 34.0331 26.6023 34.497 27.3281 34.7387C27.6612 34.8865 28.0075 34.9967 28.3625 35.1098L28.3627 35.1099L28.3634 35.1101L28.3796 35.1152L28.3807 35.1156C28.5051 35.1552 28.6306 35.1953 28.7571 35.2375C28.9493 35.3016 29.1453 35.3599 29.3358 35.4164L29.3655 35.4252C29.4268 35.4434 29.4876 35.4614 29.5474 35.4795C29.805 35.5573 30.0527 35.6373 30.2915 35.7365C31.2052 36.1349 31.6211 36.6116 31.7594 37.037C31.8968 37.4593 31.781 37.8944 31.4925 38.2606C31.2021 38.6292 30.7506 38.9069 30.2705 38.9962C29.7973 39.0843 29.3038 38.9892 28.8959 38.6245L28.8915 38.6209C28.6609 38.423 28.4041 38.2566 28.1279 38.1261C27.8514 37.977 27.5363 37.9101 27.2214 37.9337C26.9054 37.9575 26.6036 38.0714 26.3532 38.2612C26.1161 38.4287 25.9324 38.6585 25.8238 38.9241C25.7146 39.1913 25.6856 39.4834 25.7406 39.766C25.8003 40.0792 25.935 40.3744 26.1352 40.6257L26.1518 40.643C26.7861 41.31 27.5878 41.8028 28.4772 42.073C29.3644 42.3422 30.3082 42.3805 31.215 42.184C33.7071 41.7675 35.3643 40.0018 35.7057 38.0616C36.0508 36.0997 35.0427 34.0138 32.3354 33.0067L32.3332 33.0058C31.7471 32.7932 31.1409 32.6398 30.5576 32.4921L30.5555 32.4915L30.5365 32.4867L30.536 32.4866L30.5354 32.4865C30.3311 32.4347 30.1297 32.3838 29.933 32.331C29.1945 32.1297 28.8296 31.8472 28.6808 31.5955C28.5418 31.3605 28.5625 31.1021 28.7293 30.8462C29.0791 30.3095 30.0368 29.8726 31.052 30.1363L31.0602 30.1381C31.1912 30.168 31.3179 30.2139 31.4371 30.2749L31.4537 30.2835L31.4714 30.2897C31.7045 30.3721 31.9542 30.3984 32.1999 30.3664C32.4454 30.3345 32.6795 30.2451 32.8823 30.106C33.085 29.9669 33.2506 29.7821 33.3649 29.5672C33.4773 29.3562 33.537 29.1222 33.5391 28.8844C33.5718 28.5181 33.474 28.1517 33.2621 27.8476C33.0488 27.5416 32.7334 27.3177 32.37 27.2142ZM46.4696 27.3348C46.1809 27.1969 45.8616 27.1315 45.5407 27.1443C45.2197 27.1572 44.907 27.248 44.6309 27.4087C44.3565 27.5682 44.1268 27.7916 43.9622 28.059C43.8113 28.2841 43.7068 28.5359 43.6547 28.8003C43.6027 29.0645 43.6039 29.336 43.6583 29.5996C43.7121 29.9383 43.7717 30.2678 43.8306 30.5926C43.9281 31.1303 44.0229 31.6558 44.0854 32.1916L44.0878 32.2052C44.2302 33.0455 44.3048 33.8954 44.3115 34.747L44.3121 34.7591C44.3608 35.6789 44.0403 36.5807 43.4193 37.2733L43.4094 37.2856C43.2074 37.5388 42.9372 37.732 42.6291 37.8437C42.3211 37.9554 41.9875 37.981 41.6654 37.9178C41.3433 37.8546 41.0455 37.7051 40.8054 37.4858C40.5653 37.2666 40.3921 36.9855 40.3057 36.6757C40.1211 36.0227 40.0143 35.351 39.9872 34.6742L40.3024 29.7675C40.307 29.7034 40.3123 29.6377 40.3178 29.5713L40.3183 29.5645C40.3301 29.4176 40.3421 29.2683 40.3471 29.1289C40.3546 28.9206 40.3482 28.7063 40.2986 28.5036C40.2477 28.2963 40.1511 28.0992 39.9797 27.9313C39.81 27.7651 39.5809 27.6425 39.2927 27.559C38.7714 27.4115 38.3306 27.4161 37.9633 27.5685C37.5958 27.7209 37.344 28.0039 37.1658 28.3308C36.989 28.6549 36.8755 29.0386 36.7895 29.423C36.7258 29.7082 36.6746 30.0076 36.6259 30.2926C36.609 30.3908 36.5926 30.4872 36.5759 30.5809L36.5755 30.5836C36.315 32.1465 36.2375 33.7334 36.3444 35.3135C36.3643 36.1674 36.5464 37.0103 36.8816 37.799C37.2597 38.8168 37.9445 39.6986 38.8457 40.328C39.7488 40.9588 40.8265 41.3063 41.9361 41.3247C43.0457 41.343 44.1349 41.0313 45.0593 40.4309C45.9822 39.8314 46.6975 38.9721 47.1105 37.9667C47.6882 36.686 47.9595 35.2932 47.9035 33.8945C47.8696 32.8747 47.8129 31.8471 47.7564 30.8247V30.8246L47.7562 30.8206C47.7284 30.3184 47.7007 29.8172 47.6759 29.3192C47.6634 28.8197 47.495 28.336 47.1931 27.9328C47.0064 27.678 46.7578 27.4724 46.4696 27.3348ZM56.5953 35.1415C56.6275 35.1024 56.6584 35.0647 56.6877 35.0284C56.9576 34.6941 57.2288 34.355 57.5008 34.0148L57.5484 33.9553C58.0219 33.363 58.4986 32.7668 58.9785 32.1821L58.9814 32.1786C59.4211 31.6609 59.895 31.1721 60.4001 30.7153C60.6827 30.4046 61.0593 30.1902 61.4754 30.1032C61.8942 30.0156 62.3306 30.062 62.7205 30.2353C63.0953 30.3847 63.4124 30.6459 63.6266 30.9819C63.84 31.3168 63.9401 31.7086 63.9132 32.1018C63.9173 33.3463 63.8578 34.5901 63.7348 35.8288L63.7343 35.8323C63.6068 36.9616 63.4558 38.113 63.3048 39.2647L63.3038 39.2716C63.1724 40.2728 63.0411 41.2744 62.9249 42.2624C62.8477 42.9621 62.5666 43.6253 62.115 44.1731C61.9209 44.4632 61.6433 44.6908 61.3168 44.8269C60.9856 44.9651 60.6194 45.0026 60.2661 44.9348C59.9127 44.867 59.5883 44.6968 59.3351 44.4464C59.0839 44.198 58.9142 43.8822 58.8476 43.5391C58.6938 42.9295 58.6936 42.2925 58.847 41.6826C59.0814 40.3067 59.302 38.9311 59.5243 37.5439L59.6862 36.5347L56.9474 38.7903L56.5946 39.0486C56.4163 39.181 56.21 39.2744 55.9914 39.3213C55.7725 39.3683 55.5457 39.368 55.3269 39.3206C55.1081 39.2732 54.9025 39.1799 54.7243 39.0469C54.5482 38.9155 54.4031 38.7485 54.299 38.5575C53.7486 37.6558 53.3471 36.675 53.1092 35.6509C53.0928 35.5998 53.0768 35.5488 53.0613 35.4965C52.8343 35.9207 52.6348 36.3101 52.4294 36.745C51.8988 37.8692 51.3658 38.9983 50.808 40.1139C50.619 40.4883 50.3873 40.8417 50.1179 41.1657C49.9069 41.4287 49.6125 41.6158 49.2809 41.6976C48.9486 41.7794 48.5979 41.7509 48.2842 41.6164C47.9882 41.4912 47.7397 41.2784 47.5738 41.008C47.4111 40.7429 47.3357 40.4355 47.3575 40.1274C47.3395 39.7833 47.392 39.439 47.5121 39.1149C47.579 38.9105 47.6454 38.7056 47.7118 38.5006C48.0443 37.4735 48.3779 36.4432 48.7821 35.4654L48.7841 35.4606C49.4416 33.9549 50.1186 32.461 50.7912 30.977L50.7943 30.9702L50.799 30.9599C51.0688 30.3646 51.3379 29.7708 51.6046 29.1786C51.7221 28.9037 51.879 28.6464 52.0703 28.4144C52.3005 28.1121 52.6166 27.8828 52.9794 27.7553C53.3431 27.6273 53.7373 27.6074 54.1124 27.6979C54.4882 27.781 54.8298 27.9726 55.0928 28.2478C55.3566 28.5238 55.5293 28.8711 55.5883 29.2443L55.5915 29.265V29.2859C55.5915 29.4666 55.597 29.5514 55.6514 29.6378L55.6802 29.6838L55.6891 29.7369C55.7681 30.2133 55.8467 30.6911 55.9249 31.1669C56.1428 32.493 56.3605 33.817 56.5953 35.1415Z" fill="#626981"/>
</svg>
