<svg width="102" height="40" viewBox="0 0 102 40" fill="none" xmlns="http://www.w3.org/2000/svg">
<path fill-rule="evenodd" clip-rule="evenodd" d="M39.1753 19.8888C39.1753 9.14991 30.4697 0.444336 19.7308 0.444336C8.99195 0.444336 0.286377 9.14991 0.286377 19.8888C0.286377 30.6277 8.99195 39.3332 19.7308 39.3332C30.4697 39.3332 39.1753 30.6277 39.1753 19.8888ZM13.0579 6.97514C14.6975 3.994 16.8098 2.21153 19.028 1.89935V8.88504C16.4577 8.93613 14.0086 9.26645 11.7791 9.82671C12.1531 8.7952 12.5823 7.83987 13.0579 6.97514ZM11.8263 6.29775C11.1697 7.49139 10.6008 8.83421 10.1358 10.2937C8.67624 10.7587 7.33344 11.3277 6.13979 11.9842C4.66195 12.797 3.38577 13.7616 2.4056 14.8485C4.12201 8.93844 8.78048 4.27998 14.6905 2.56356C13.6037 3.54373 12.639 4.81991 11.8263 6.29775ZM8.72709 19.186C8.77818 16.6157 9.10848 14.1666 9.6687 11.9371C8.63724 12.3111 7.68191 12.7402 6.81719 13.2158C3.83604 14.8554 2.05358 16.9676 1.74139 19.186H8.72709ZM11.263 11.4209C10.5948 13.7476 10.1911 16.381 10.133 19.186H13.1684C15.8474 18.1399 17.9816 16.0059 19.028 13.3271V10.2909C16.2231 10.3489 13.5897 10.7528 11.263 11.4209ZM1.74139 20.5916H8.72709C8.77818 23.1619 9.10848 25.611 9.6687 27.8405C8.63724 27.4665 7.68191 27.0373 6.81719 26.5617C3.83604 24.9221 2.05358 22.8099 1.74139 20.5916ZM10.133 20.5916C10.1911 23.3966 10.5948 26.0299 11.263 28.3566C13.5897 29.0248 16.2231 29.4286 19.028 29.4867V26.4505C17.9817 23.7716 15.8474 21.6376 13.1684 20.5916H10.133ZM6.13979 27.7933C7.33344 28.4499 8.67624 29.0188 10.1358 29.4838C10.6008 30.9433 11.1697 32.2862 11.8263 33.4798C12.639 34.9576 13.6037 36.2338 14.6905 37.214C8.78048 35.4976 4.12201 30.8391 2.4056 24.9291C3.38577 26.0159 4.66195 26.9806 6.13979 27.7933ZM13.0579 32.8024C14.6975 35.7835 16.8098 37.566 19.028 37.8782V30.8925C16.4577 30.8414 14.0086 30.5111 11.7791 29.9509C12.1531 30.9823 12.5823 31.9377 13.0579 32.8024ZM27.6355 33.4798C26.8226 34.9576 25.858 36.2338 24.7711 37.214C30.6811 35.4976 35.3396 30.8391 37.056 24.9291C36.0759 26.0159 34.7997 26.9806 33.3219 27.7933C32.1282 28.4499 30.7854 29.0188 29.3259 29.4838C28.8609 30.9433 28.2919 32.2862 27.6355 33.4798ZM26.4038 32.8024C26.8794 31.9377 27.3085 30.9823 27.6825 29.9509C25.453 30.5111 23.0039 30.8414 20.4336 30.8925V37.8782C22.652 37.566 24.7642 35.7835 26.4038 32.8024ZM32.6445 26.5617C31.7798 27.0373 30.8244 27.4665 29.7929 27.8405C30.3531 25.611 30.6835 23.1619 30.7345 20.5916H37.7202C37.4081 22.8099 35.6256 24.9221 32.6445 26.5617ZM28.1987 28.3566C28.8668 26.0299 29.2706 23.3966 29.3287 20.5916H26.2941C23.6144 21.6379 21.4796 23.7729 20.4336 26.4527V29.4867C23.2386 29.4286 25.872 29.0248 28.1987 28.3566ZM37.7202 19.186H30.7345C30.6835 16.6157 30.3531 14.1666 29.7929 11.9371C30.8244 12.3111 31.7798 12.7402 32.6445 13.2158C35.6256 14.8554 37.4081 16.9676 37.7202 19.186ZM29.3287 19.186C29.2706 16.381 28.8668 13.7476 28.1987 11.4209C25.872 10.7528 23.2386 10.3489 20.4336 10.2909V13.3248C21.4796 16.0047 23.6144 18.1397 26.2941 19.186H29.3287ZM33.3219 11.9842C32.1282 11.3277 30.7854 10.7587 29.3259 10.2937C28.8609 8.83421 28.2919 7.49139 27.6355 6.29775C26.8226 4.81991 25.858 3.54373 24.7711 2.56356C30.6811 4.27998 35.3396 8.93844 37.056 14.8485C36.0759 13.7616 34.7997 12.797 33.3219 11.9842ZM26.4038 6.97514C24.7642 3.994 22.652 2.21153 20.4336 1.89935V8.88504C23.0039 8.93613 25.453 9.26645 27.6825 9.82671C27.3085 8.7952 26.8794 7.83987 26.4038 6.97514ZM49.2757 17.5283H46.6172V3.55195H49.2757V17.5283ZM49.2366 34.7038H46.5782V24.6761H49.2366V34.7038ZM49.2366 23.1122H46.5782V20.7275H49.2366V23.1122ZM53.608 37.9877H50.9495V24.6759H53.5103V25.9269H53.5689C54.214 25.0473 55.1523 24.4023 56.5206 24.4023C59.179 24.4023 60.8796 26.572 60.8796 29.6996C60.8796 32.9445 59.1204 34.997 56.5401 34.997C55.1327 34.997 54.214 34.4301 53.6472 33.57H53.608V37.9877ZM53.5494 29.7778C53.5494 31.5957 54.3899 32.7881 55.9733 32.7881C57.3221 32.7881 58.1821 31.6739 58.1821 29.7778C58.1821 27.8817 57.5175 26.5524 55.8755 26.5524C54.214 26.5524 53.5494 27.9795 53.5494 29.7778ZM66.1827 34.997C68.6847 34.997 70.4049 33.785 70.4049 31.7716C70.4049 29.4259 68.548 28.9568 66.8669 28.605C66.6369 28.5577 66.4094 28.516 66.1896 28.4758C65.0459 28.2662 64.1106 28.0949 64.1106 27.3735C64.1106 26.6502 64.7948 26.2592 65.8309 26.2592C66.9646 26.2592 67.6488 26.6502 67.766 27.7253H70.1704C69.9749 25.7119 68.5089 24.4023 65.87 24.4023C63.5829 24.4023 61.7845 25.4383 61.7845 27.608C61.7845 29.7973 63.5438 30.2861 65.3421 30.6379C65.5142 30.6723 65.6847 30.7039 65.8513 30.7348L65.8515 30.7349C67.01 30.9497 67.9811 31.1298 67.9811 31.9671C67.9811 32.6708 67.3164 33.1204 66.1436 33.1204C64.9512 33.1204 64.1302 32.6122 63.9543 31.4589H61.4913C61.6477 33.5896 63.2702 34.997 66.1827 34.997ZM80.4982 24.6759V34.7037H77.9376V33.5308H77.8789C77.1947 34.4496 76.4128 34.9774 75.0054 34.9774C72.777 34.9774 71.526 33.5504 71.526 31.3611V24.6759H74.1649V30.9115C74.1649 32.0844 74.6927 32.7294 75.8264 32.7294C77.0774 32.7294 77.8398 31.7911 77.8398 30.4619V24.6759H80.4982ZM82.2178 34.7037H84.8763V28.8786C84.8763 27.5494 85.5995 26.6893 86.6746 26.6893C87.652 26.6893 88.2189 27.2757 88.2189 28.4095V34.7037H90.8773V28.8786C90.8773 27.5494 91.5615 26.6893 92.6757 26.6893C93.653 26.6893 94.2199 27.2757 94.2199 28.4095V34.7037H96.8784V27.9599C96.8784 25.7706 95.686 24.4023 93.5749 24.4023C92.3043 24.4023 91.2487 25.0669 90.5646 26.1615H90.5255C90.0368 25.106 89.0203 24.4023 87.7497 24.4023C86.3619 24.4023 85.3845 25.106 84.8371 26.0247H84.7785V24.6759H82.2178V34.7037ZM55.7759 17.8217C58.884 17.8217 61.0147 15.5151 61.0147 12.5243C61.0147 9.53356 58.884 7.22697 55.7759 7.22697C52.6679 7.22697 50.5372 9.53356 50.5372 12.5243C50.5372 15.5151 52.6679 17.8217 55.7759 17.8217ZM55.7759 15.7887C54.134 15.7887 53.2348 14.4791 53.2348 12.5243C53.2348 10.5696 54.134 9.24036 55.7759 9.24036C57.3984 9.24036 58.3171 10.5696 58.3171 12.5243C58.3171 14.4791 57.3984 15.7887 55.7759 15.7887ZM70.2844 19.8155C69.444 20.5975 68.1538 20.9493 66.6682 20.9493C63.9316 20.9493 62.2505 19.7764 61.9768 17.8217H64.6157C64.8308 18.4472 65.3976 18.9358 66.6291 18.9358C68.1343 18.9358 68.8575 18.2126 68.8575 16.8443V15.7497H68.7989C68.2124 16.4143 67.4501 16.9225 66.1795 16.9225C63.9511 16.9225 61.7617 15.1632 61.7617 12.1334C61.7617 9.14262 63.5602 7.22697 66.1013 7.22697C67.3523 7.22697 68.2711 7.71565 68.8771 8.5562H68.9161V7.50064H71.4769V16.7661C71.4769 18.1735 71.0272 19.1313 70.2844 19.8155ZM64.3616 12.0943C64.3616 13.7949 65.2608 14.7918 66.6291 14.7918C68.3102 14.7918 68.9943 13.5603 68.9943 12.0748C68.9943 10.6086 68.2124 9.35764 66.6095 9.35764C65.2608 9.35764 64.3616 10.4132 64.3616 12.0943ZM77.9386 17.8217C81.0466 17.8217 83.1774 15.5151 83.1774 12.5243C83.1774 9.53356 81.0466 7.22697 77.9386 7.22697C74.8306 7.22697 72.6999 9.53356 72.6999 12.5243C72.6999 15.5151 74.8306 17.8217 77.9386 17.8217ZM77.9386 15.7887C76.2966 15.7887 75.3974 14.4791 75.3974 12.5243C75.3974 10.5696 76.2966 9.24036 77.9386 9.24036C79.5611 9.24036 80.4798 10.5696 80.4798 12.5243C80.4798 14.4791 79.5611 15.7887 77.9386 15.7887ZM97.0015 13.6972H85.5078V11.4102H97.0015V13.6972ZM97.8444 22.9723C97.8444 22.5225 98.209 22.1578 98.6591 22.1578H100.288C100.738 22.1578 101.102 22.5225 101.102 22.9723C101.102 23.4221 100.738 23.7868 100.288 23.7868H98.6591C98.209 23.7868 97.8444 23.4221 97.8444 22.9723Z" fill="#626981"/>
</svg>
