<svg width="37" height="17" viewBox="0 0 37 17" fill="none" xmlns="http://www.w3.org/2000/svg">
<path d="M28.2654 0.0569205C26.0842 0.0569205 24.0243 0.933667 22.5551 2.45232L11.9069 12.2218C10.9375 13.2238 9.65005 13.7718 8.2717 13.7718C5.43926 13.7718 3.12181 11.4077 3.12181 8.47996C3.12181 5.55225 5.43926 3.18816 8.2717 3.18816C9.65005 3.18816 10.9375 3.73613 11.9675 4.80075L13.6791 6.36637L15.9965 4.26844L14.0577 2.5306C13.2992 1.74361 12.3974 1.1198 11.4042 0.695209C10.4111 0.270622 9.34642 0.0536802 8.2717 0.0569205C3.75797 0.0569205 0.0924683 3.84572 0.0924683 8.47996C0.0924683 13.1142 3.75797 16.903 8.2717 16.903C10.4528 16.903 12.5128 16.0262 13.982 14.5076L24.6302 4.73812C25.5995 3.73613 26.887 3.18816 28.2654 3.18816C31.0978 3.18816 33.4152 5.55225 33.4152 8.47996C33.4152 11.4077 31.0978 13.7718 28.2654 13.7718C26.9022 13.7718 25.5995 13.2238 24.5696 12.1592L22.8125 10.5779L20.5405 12.6758L22.4793 14.4293C23.2399 15.2124 24.1425 15.8326 25.1353 16.2544C26.1282 16.6761 27.1919 16.8913 28.2654 16.8873C32.7791 16.8873 36.4446 13.1142 36.4446 8.47996C36.4446 3.7831 32.7791 0.0569205 28.2654 0.0569205Z" fill="#02E4C0"/>
</svg>
