<svg width="131" height="31" viewBox="0 0 131 31" fill="none" xmlns="http://www.w3.org/2000/svg">
<path fill-rule="evenodd" clip-rule="evenodd" d="M26.9148 6.16086C27.809 7.22391 28.5457 8.41001 29.1023 9.68274C29.9131 11.5384 30.3301 13.542 30.3273 15.5671C30.3244 19.493 28.7651 23.2576 25.9911 26.0357C23.217 28.8138 19.4547 30.3788 15.5288 30.3874C13.6269 30.3863 11.7434 30.0149 9.98352 29.2937C8.72829 28.7949 7.54993 28.1211 6.48353 27.2921C4.82155 26.0255 3.44666 24.4213 2.44933 22.585C1.452 20.7489 0.854872 18.7223 0.697208 16.6385C0.539555 14.555 0.824969 12.4615 1.53465 10.4962C2.24433 8.53074 3.3622 6.73792 4.81467 5.23569C6.26714 3.73345 8.0213 2.55584 9.96164 1.78038C11.9021 1.00491 13.9847 0.649183 16.0724 0.736584C18.1602 0.823986 20.2058 1.35254 22.0746 2.28746C23.9434 3.22238 25.593 4.54248 26.9148 6.16086ZM20.4616 4.83741C18.9132 4.11679 17.2259 3.74349 15.5179 3.74366L15.5288 3.72179C13.5362 3.72031 11.5756 4.22292 9.82941 5.18287C8.08322 6.14283 6.60825 7.52891 5.54178 9.2121C4.47529 10.8954 3.85195 12.821 3.72976 14.8099C3.60757 16.7988 3.99049 18.7863 4.8429 20.5874C5.33694 20.0684 5.64139 19.3979 5.70697 18.6843C5.90066 17.3462 6.5219 16.1067 7.47793 15.1506C8.43397 14.1946 9.67355 13.5733 11.0116 13.3796C11.7638 13.3114 12.4694 12.9859 13.0094 12.4578C13.5494 11.9297 13.8907 11.2316 13.9757 10.4812C14.1694 9.14308 14.7907 7.90349 15.7467 6.94745C16.7028 5.99141 17.9423 5.37018 19.2804 5.17649C19.687 5.11453 20.0841 5.00057 20.4616 4.83741ZM6.60384 23.1055C6.56009 23.1444 6.51634 23.1833 6.47259 23.2234C7.32035 24.2156 8.32539 25.0617 9.44758 25.728C9.74103 25.2774 9.92467 24.7641 9.98352 24.2296C10.184 22.8888 10.8117 21.6485 11.7732 20.6928C12.7348 19.7371 13.979 19.1171 15.321 18.9249C16.0743 18.8507 16.7787 18.5183 17.3149 17.984C17.8511 17.4498 18.1861 16.7466 18.2632 15.9937C18.4535 14.6542 19.0737 13.4128 20.0303 12.456C20.987 11.4995 22.2284 10.8793 23.5679 10.689C24.3224 10.6177 25.0255 10.2758 25.5476 9.72649C25.6005 9.68088 25.6482 9.62947 25.6898 9.57336C25.0131 8.41715 24.1396 7.38813 23.1085 6.53274C22.203 7.38117 21.0565 7.92766 19.8273 8.09679C19.0725 8.14831 18.3618 8.4707 17.8257 9.00461C17.2606 9.55892 16.9215 10.3034 16.8741 11.0937C16.6804 12.4318 16.0592 13.6713 15.1031 14.6274C14.1471 15.5834 12.9075 16.2047 11.5695 16.3984C10.817 16.4599 10.1129 16.7945 9.58977 17.339C9.04618 17.8684 8.70885 18.574 8.63822 19.3296C8.46399 20.6737 7.8394 21.9191 6.86634 22.8624C6.77884 22.9499 6.69134 23.0277 6.60384 23.1055ZM12.2366 26.9859C13.3035 27.2918 14.4081 27.4464 15.5179 27.4452V27.3905C17.3254 27.3835 19.1073 26.9626 20.7268 26.16C22.3464 25.3574 23.7605 24.1944 24.8608 22.7605C25.9611 21.3265 26.7184 19.6594 27.0745 17.8873C27.4305 16.1152 27.3759 14.2851 26.9148 12.5374C26.0844 13.1245 25.1232 13.5 24.1148 13.6312C23.3635 13.7078 22.6616 14.0413 22.1276 14.5753C21.5937 15.1093 21.2602 15.8111 21.1835 16.5624C20.9893 17.902 20.3664 19.1429 19.4083 20.0991C18.45 21.0553 17.208 21.6756 15.8679 21.8671C15.1166 21.9438 14.4147 22.2773 13.8808 22.8112C13.3468 23.3452 13.0133 24.0471 12.9366 24.7984C12.8389 25.5641 12.6016 26.3055 12.2366 26.9859ZM41.5601 9.08136H38.2789V22.3485H41.5601V9.08136ZM47.9804 12.1001C44.8742 12.1001 42.8617 14.0579 42.8617 17.3392C42.8617 20.6751 44.8304 22.5892 47.9804 22.5892C51.1304 22.5892 53.0992 20.6204 53.0992 17.3392C53.0992 14.0579 51.0867 12.1001 47.9804 12.1001ZM47.9804 14.4735C49.0961 14.4735 49.807 15.5345 49.807 17.3392V17.3501C49.807 19.1767 49.107 20.1829 47.9804 20.1829C46.8539 20.1829 46.1648 19.111 46.1648 17.3392C46.1648 15.5673 46.8648 14.4735 47.9804 14.4735ZM57.4851 22.9939H54.3351V23.0048C54.5211 24.8204 56.3257 26.122 59.2242 26.122C62.3414 26.122 64.4523 24.6345 64.4523 22.2392V12.286H61.1711V14.1126C60.9241 13.5223 60.5026 13.0216 59.963 12.6775C59.4235 12.3335 58.7917 12.1626 58.1523 12.1876C55.6367 12.1876 54.1273 14.1673 54.1273 17.3064C54.1273 20.4454 55.7132 22.272 58.1086 22.272C58.7285 22.3057 59.3444 22.1528 59.8766 21.8331C60.4088 21.5132 60.8331 21.0414 61.0945 20.4782H61.1601V22.3157C61.1601 23.3001 60.5039 23.9782 59.257 23.9782C58.8951 24.0269 58.527 23.9573 58.2078 23.78C57.8885 23.6026 57.6351 23.3269 57.4851 22.9939ZM59.2789 14.7251C60.4382 14.7251 61.1711 15.7314 61.1711 17.3282V17.3392C61.1711 18.9579 60.4492 19.8439 59.2789 19.8439C58.1086 19.8439 57.4086 18.936 57.4086 17.3282C57.4086 15.7204 58.1195 14.7251 59.2789 14.7251ZM70.807 12.0892C67.7007 12.0892 65.6882 14.047 65.6882 17.3282V17.3392C65.6882 20.6751 67.6461 22.5782 70.807 22.5782C73.9679 22.5782 75.9367 20.6095 75.9367 17.3282C75.9367 14.047 73.9132 12.0892 70.807 12.0892ZM70.807 14.4626C71.9226 14.4626 72.6336 15.5235 72.6336 17.3282V17.3501C72.6336 19.1767 71.9664 20.1939 70.8507 20.1939C69.7351 20.1939 69.0461 19.1329 69.0461 17.3501C69.0461 15.5673 69.6914 14.4626 70.807 14.4626ZM77.442 8.9639C77.2649 9.244 77.1749 9.57037 77.1836 9.90167V9.92355C77.1815 10.1437 77.225 10.3619 77.3114 10.5644C77.3977 10.7669 77.525 10.9495 77.6853 11.1004C77.8455 11.2515 78.0352 11.3676 78.2425 11.4418C78.4498 11.5159 78.6702 11.5465 78.8898 11.5314C79.2211 11.5248 79.5431 11.4199 79.8147 11.2301C80.0864 11.0404 80.2956 10.7742 80.4158 10.4654C80.5361 10.1565 80.5619 9.81898 80.4901 9.49545C80.4182 9.17192 80.252 8.87701 80.0122 8.64811C79.7726 8.41923 79.4704 8.26664 79.1439 8.2097C78.8174 8.15277 78.4814 8.19405 78.1784 8.32832C77.8755 8.46259 77.6192 8.68379 77.442 8.9639ZM80.4648 12.3079H77.1836V22.3485H80.4648V12.3079ZM88.4273 22.4798C90.9211 22.4798 92.3757 20.6095 92.3757 17.3282L92.4195 17.3501C92.4195 14.0689 90.9211 12.1876 88.4054 12.1439C87.7611 12.1151 87.1236 12.2855 86.5795 12.6319C86.0355 12.9783 85.6113 13.4838 85.3648 14.0798H85.2992V12.286H82.0179V25.5642H85.2992V20.6204H85.3648C85.6234 21.2067 86.0557 21.6994 86.6035 22.032C87.1512 22.3645 87.7879 22.5208 88.4273 22.4798ZM87.2132 14.7142C88.3617 14.7142 89.0945 15.7314 89.0945 17.3282V17.3501C89.0945 18.936 88.3617 19.9314 87.2132 19.9314C86.0648 19.9314 85.3101 18.9142 85.3211 17.3282C85.332 15.7423 86.0648 14.7142 87.2132 14.7142ZM102.46 15.436C102.384 13.3689 100.732 12.0782 98.0086 12.0782V12.1001C95.2961 12.1001 93.5351 13.3798 93.5133 15.3485C93.5133 16.8798 94.5414 17.9189 96.4992 18.3235L98.3914 18.7282C99.1789 18.8923 99.4851 19.0017 99.4851 19.5267C99.4851 20.0517 99.0476 20.3689 98.0851 20.3689C97.1226 20.3689 96.532 19.9314 96.4336 19.1876H93.2726C93.4148 21.2329 95.2414 22.5673 98.0304 22.5673C100.819 22.5673 102.712 21.2329 102.712 19.1548C102.712 17.6345 101.859 16.8251 99.857 16.3985L97.757 15.972C97.0242 15.8189 96.6632 15.6548 96.6632 15.1407C96.6632 14.6267 97.0679 14.2767 97.9757 14.2767C98.8836 14.2767 99.4742 14.7251 99.4742 15.436H102.46ZM110.499 22.3267H113.66L113.704 12.286H110.423V17.9517C110.454 18.1881 110.434 18.4285 110.365 18.6568C110.296 18.885 110.178 19.0957 110.021 19.275C109.864 19.4542 109.669 19.5977 109.452 19.6958C109.235 19.7939 108.999 19.8443 108.76 19.8439C107.743 19.8439 107.13 19.2095 107.13 18.0173V12.286H103.849V18.772C103.808 19.2695 103.873 19.7702 104.042 20.2402C104.211 20.7102 104.478 21.1386 104.827 21.4963C105.175 21.8541 105.596 22.1327 106.062 22.3138C106.527 22.4948 107.026 22.5737 107.524 22.5454C108.175 22.5815 108.818 22.3939 109.347 22.014C109.877 21.6339 110.26 21.0843 110.434 20.4564H110.499V22.3267ZM118.418 12.286H115.246L115.191 22.3485H118.473V16.4314C118.447 16.2256 118.467 16.017 118.528 15.8193C118.591 15.6214 118.694 15.439 118.831 15.284C118.968 15.129 119.138 15.0049 119.327 14.9198C119.515 14.8348 119.721 14.7908 119.927 14.7907C120.824 14.7907 121.316 15.3376 121.316 16.3439V22.3485H124.434V16.4095C124.407 16.2064 124.424 15.9999 124.484 15.8039C124.544 15.608 124.646 15.4273 124.781 15.2738C124.917 15.1204 125.084 14.9979 125.271 14.9145C125.458 14.8312 125.662 14.789 125.866 14.7907C126.785 14.7907 127.277 15.2939 127.277 16.3876V22.3485H130.559V15.5126C130.591 15.0673 130.529 14.6201 130.378 14.2002C130.226 13.7803 129.988 13.397 129.678 13.0751C129.369 12.7533 128.996 12.5001 128.581 12.3322C128.168 12.1642 127.724 12.0851 127.277 12.1001C126.594 12.0707 125.919 12.2697 125.361 12.6658C124.802 13.0618 124.391 13.6323 124.193 14.2876H124.127C124.022 13.6392 123.677 13.0543 123.16 12.649C122.643 12.2436 121.993 12.0477 121.338 12.1001C120.695 12.0882 120.065 12.2901 119.549 12.674C119.033 13.0579 118.657 13.6024 118.484 14.222H118.418V12.286Z" fill="#626981"/>
</svg>
