<svg width="146" height="28" viewBox="0 0 146 28" fill="none" xmlns="http://www.w3.org/2000/svg">
<path fill-rule="evenodd" clip-rule="evenodd" d="M14.2539 11.1974C8.01962 11.1974 2.88546 6.4872 2.21603 0.431396H10.8777C11.4125 1.77191 12.7225 2.71916 14.2539 2.71916C15.7851 2.71916 17.0952 1.77191 17.63 0.431396H26.2916C25.6222 6.4872 20.488 11.1974 14.2539 11.1974ZM48.1432 23.4684C49.0879 24.479 50.4499 24.9842 52.2293 24.9842C54.0087 24.9842 55.3708 24.479 56.3155 23.4684C57.2601 22.4578 57.7324 21.0299 57.7324 19.1846V7.05802C57.7324 5.21267 57.2601 3.78472 56.3155 2.77418C55.3708 1.76363 54.0087 1.25836 52.2293 1.25836C50.4499 1.25836 49.0879 1.76363 48.1432 2.77418C47.1986 3.78472 46.7263 5.21267 46.7263 7.05802V19.1846C46.7263 21.0299 47.1986 22.4578 48.1432 23.4684ZM54.1077 19.4152C54.1077 20.931 53.4815 21.689 52.2293 21.689C50.9771 21.689 50.351 20.931 50.351 19.4152V6.82735C50.351 5.31153 50.9771 4.55362 52.2293 4.55362C53.4815 4.55362 54.1077 5.31153 54.1077 6.82735V19.4152ZM39.4159 1.58805H35.7911V24.6549H45.3803V21.3596H39.4159V1.58805ZM65.3244 24.9842C63.5669 24.9842 62.2269 24.49 61.3041 23.5014C60.3815 22.4909 59.9202 21.0519 59.9202 19.1846V7.05802C59.9202 5.19071 60.3815 3.76276 61.3041 2.77418C62.2269 1.76363 63.5669 1.25836 65.3244 1.25836C67.0819 1.25836 68.4219 1.76363 69.3446 2.77418C70.2673 3.76276 70.7286 5.19071 70.7286 7.05802V9.03517H67.3015V6.82735C67.3015 5.31153 66.6754 4.55362 65.4232 4.55362C64.1711 4.55362 63.545 5.31153 63.545 6.82735V19.4482C63.545 20.9421 64.1711 21.689 65.4232 21.689C66.6754 21.689 67.3015 20.9421 67.3015 19.4482V14.9337H65.4892V11.6385H70.7286V19.1846C70.7286 21.0519 70.2673 22.4909 69.3446 23.5014C68.4219 24.49 67.0819 24.9842 65.3244 24.9842ZM74.2093 23.4684C75.1539 24.479 76.5159 24.9842 78.2953 24.9842C80.0749 24.9842 81.4369 24.479 82.3815 23.4684C83.3262 22.4578 83.7985 21.0299 83.7985 19.1846V7.05802C83.7985 5.21267 83.3262 3.78472 82.3815 2.77418C81.4369 1.76363 80.0749 1.25836 78.2953 1.25836C76.5159 1.25836 75.1539 1.76363 74.2093 2.77418C73.2646 3.78472 72.7923 5.21267 72.7923 7.05802V19.1846C72.7923 21.0299 73.2646 22.4578 74.2093 23.4684ZM80.1737 19.4152C80.1737 20.931 79.5476 21.689 78.2953 21.689C77.0432 21.689 76.4171 20.931 76.4171 19.4152V6.82735C76.4171 5.31153 77.0432 4.55362 78.2953 4.55362C79.5476 4.55362 80.1737 5.31153 80.1737 6.82735V19.4152ZM86.2567 1.58805H89.8815V24.6549H86.2567V1.58805ZM97.9344 1.58805H92.5961V24.6549H96.2212V15.2634H97.9344C99.7356 15.2634 101.087 14.7801 101.988 13.8135C102.889 12.8468 103.339 11.4299 103.339 9.56257V7.28885C103.339 5.42153 102.889 4.00457 101.988 3.03797C101.087 2.07135 99.7356 1.58805 97.9344 1.58805ZM99.2528 11.4738C98.967 11.8033 98.5278 11.9681 97.9344 11.9681H96.2212V4.88331H97.9344C98.5278 4.88331 98.967 5.04807 99.2528 5.3776C99.5604 5.70712 99.7138 6.26732 99.7138 7.05819V9.79323C99.7138 10.5841 99.5604 11.1443 99.2528 11.4738ZM110.148 24.9842C108.391 24.9842 107.062 24.49 106.161 23.5014C105.261 22.4909 104.81 21.0519 104.81 19.1846V17.8665H108.237V19.4482C108.237 20.9421 108.863 21.689 110.115 21.689C110.731 21.689 111.192 21.5132 111.499 21.1618C111.829 20.7883 111.994 20.1951 111.994 19.3823C111.994 18.4157 111.774 17.5699 111.335 16.845C110.896 16.098 110.083 15.2083 108.896 14.1758C107.402 12.8577 106.359 11.6714 105.765 10.6169C105.173 9.54044 104.876 8.33219 104.876 6.99212C104.876 5.16874 105.337 3.76276 106.26 2.77418C107.183 1.76363 108.523 1.25836 110.281 1.25836C112.015 1.25836 113.323 1.76363 114.201 2.77418C115.102 3.76276 115.553 5.19071 115.553 7.05802V8.01365H112.125V6.82735C112.125 6.03649 111.972 5.46531 111.664 5.11381C111.357 4.74035 110.907 4.55362 110.313 4.55362C109.105 4.55362 108.501 5.28956 108.501 6.76145C108.501 7.59624 108.721 8.37612 109.16 9.10108C109.621 9.826 110.445 10.7047 111.632 11.7373C113.147 13.0554 114.191 14.2527 114.762 15.3292C115.333 16.4056 115.619 17.6687 115.619 19.1187C115.619 21.008 115.146 22.4578 114.201 23.4684C113.279 24.479 111.927 24.9842 110.148 24.9842ZM118.949 23.5015C119.872 24.4901 121.212 24.9844 122.97 24.9844C124.726 24.9844 126.067 24.4901 126.99 23.5015C127.912 22.491 128.373 21.0521 128.373 19.1847V1.58805H124.881V19.4484C124.881 20.2392 124.716 20.8104 124.386 21.162C124.079 21.5134 123.628 21.6892 123.035 21.6892C122.443 21.6892 121.981 21.5134 121.651 21.162C121.344 20.8104 121.19 20.2392 121.19 19.4484V1.58805H117.565V19.1847C117.565 21.0521 118.026 22.491 118.949 23.5015ZM130.955 1.58805H136.129L138.436 18.0973H138.501L140.808 1.58805H145.982V24.6549H142.554V7.19H142.489L139.852 24.6549H136.82L134.184 7.19H134.119V24.6549H130.955V1.58805ZM8.87087 16.5804C8.87087 21.0398 5.25582 24.6549 0.796387 24.6549V19.0027C2.1342 19.0027 3.21872 17.9182 3.21872 16.5804C3.21872 15.2425 2.1342 14.158 0.796387 14.158V8.50587C5.25582 8.50587 8.87087 12.1209 8.87087 16.5804ZM27.7114 11.1973C26.3316 10.7602 24.8622 10.5244 23.3377 10.5244C15.3478 10.5244 8.87089 17.0014 8.87089 24.9912C8.87089 25.7931 8.93615 26.5799 9.06161 27.3463H18.0503C17.7294 26.6269 17.551 25.8299 17.551 24.9912C17.551 21.7953 20.1418 19.2045 23.3377 19.2045C25.0844 19.2045 26.6503 19.9784 27.7114 21.202V11.1973Z" fill="#626981"/>
</svg>
