<svg width="24" height="22" viewBox="0 0 24 22" fill="none" xmlns="http://www.w3.org/2000/svg">
<path d="M7.08861 12.6335L10.4342 9.28794L3.11647 1.98205C2.54902 1.4146 1.56781 1.56829 1.21316 2.30124C0.373808 4.06269 0.681175 6.22608 2.13526 7.69199L7.08861 12.6335ZM15.1038 10.4938C16.9125 11.3331 19.4542 10.742 21.3339 8.86235C23.5919 6.60438 24.0293 3.3652 22.2915 1.62739C20.5655 -0.0985919 17.3263 0.326994 15.0565 2.58496C13.1768 4.46463 12.5858 7.00633 13.4251 8.81506L2.71453 19.5256C2.49349 19.7467 2.36931 20.0465 2.36931 20.3591C2.36931 20.6717 2.49349 20.9715 2.71453 21.1925C2.93557 21.4136 3.23537 21.5377 3.54797 21.5377C3.86057 21.5377 4.16037 21.4136 4.38141 21.1925L11.6991 13.8984L19.005 21.2043C19.1145 21.3138 19.2444 21.4006 19.3874 21.4598C19.5304 21.5191 19.6837 21.5496 19.8384 21.5496C19.9932 21.5496 20.1465 21.5191 20.2895 21.4598C20.4325 21.4006 20.5624 21.3138 20.6719 21.2043C20.7813 21.0949 20.8682 20.965 20.9274 20.822C20.9866 20.679 21.0171 20.5257 21.0171 20.3709C21.0171 20.2161 20.9866 20.0628 20.9274 19.9198C20.8682 19.7768 20.7813 19.6469 20.6719 19.5375L13.366 12.2316L15.1038 10.4938Z" fill="#02E4C0"/>
</svg>
