<svg width="145" height="35" viewBox="0 0 145 35" fill="none" xmlns="http://www.w3.org/2000/svg">
<path fill-rule="evenodd" clip-rule="evenodd" d="M34.5609 17.8888C34.5609 27.3181 26.917 34.962 17.4877 34.962C8.05845 34.962 0.414551 27.3181 0.414551 17.8888C0.414551 8.4596 8.05845 0.815674 17.4877 0.815674C26.917 0.815674 34.5609 8.4596 34.5609 17.8888ZM21.3633 7.88508C22.1795 7.30359 23.0732 7.84816 22.814 8.76907L20.2468 17.8888H24.7967C25.7517 17.8888 25.891 19.1452 25.0058 19.7758L13.6121 27.8926C12.7959 28.4741 11.9022 27.9296 12.1615 27.0086L14.2619 19.5467L19.0265 17.8656H13.1791V17.8888H10.1788C9.22372 17.8888 9.08449 16.6325 9.96965 16.0019L21.3633 7.88508ZM54.3043 24.7179H44.1014V10.0691H47.7278V21.6447H54.3043V24.7179ZM58.1365 19.4936C58.1365 21.3989 58.8946 22.6692 60.3492 22.6692C61.8038 22.6692 62.5824 21.3989 62.5824 19.4936C62.5824 17.5882 61.8038 16.2975 60.3492 16.2975C58.8946 16.2975 58.1365 17.5882 58.1365 19.4936ZM65.9628 19.4936C65.9628 22.6487 63.7502 25.0458 60.3697 25.0458C57.0097 25.0458 54.756 22.6487 54.756 19.4936C54.756 16.3384 57.0097 13.9414 60.3697 13.9414C63.7502 13.9414 65.9628 16.3384 65.9628 19.4936ZM71.8142 28.3444C73.3713 28.3444 74.744 27.9961 75.6659 27.1766C76.5059 26.4185 77.0591 25.2712 77.0591 23.6936V14.2283H73.863V15.3551H73.822C73.2074 14.4741 72.265 13.921 70.8718 13.921C68.2699 13.921 66.4669 16.0927 66.4669 19.1658C66.4669 22.3824 68.6591 24.1444 71.0152 24.1444C72.2855 24.1444 73.0845 23.6322 73.6991 22.9356H73.7811V23.9805C73.7811 25.2507 73.1869 25.9883 71.7733 25.9883C70.6669 25.9883 70.1137 25.5171 69.9294 24.9639H66.6923C67.0201 27.1561 68.9255 28.3444 71.8142 28.3444ZM71.7937 21.6653C70.544 21.6653 69.7245 20.641 69.7245 19.0634C69.7245 17.4653 70.544 16.441 71.7937 16.441C73.1869 16.441 73.9245 17.6292 73.9245 19.0429C73.9245 20.518 73.2484 21.6653 71.7937 21.6653ZM81.4182 19.4936C81.4182 21.3989 82.1762 22.6692 83.6308 22.6692C85.0855 22.6692 85.864 21.3989 85.864 19.4936C85.864 17.5882 85.0855 16.2975 83.6308 16.2975C82.1762 16.2975 81.4182 17.5882 81.4182 19.4936ZM89.2445 19.4936C89.2445 22.6487 87.0318 25.0458 83.6513 25.0458C80.2913 25.0458 78.0377 22.6487 78.0377 19.4936C78.0377 16.3384 80.2913 13.9414 83.6513 13.9414C87.0318 13.9414 89.2445 16.3384 89.2445 19.4936ZM90.2194 24.7179H93.5589V14.2281H90.2194V24.7179ZM90.2194 12.7735H93.5589V10.0691H90.2194V12.7735ZM98.3479 28.1805H95.0084V14.2283H98.2045V15.4985H98.266C98.983 14.5561 100.007 13.921 101.442 13.921C104.228 13.921 105.928 16.318 105.928 19.4732C105.928 22.8741 104.105 25.0458 101.36 25.0458C100.007 25.0458 99.0445 24.5132 98.3889 23.6322H98.3479V28.1805ZM98.2455 19.5961C98.2455 21.2966 99.065 22.4644 100.499 22.4644C101.769 22.4644 102.548 21.3785 102.548 19.5961C102.548 17.7932 101.872 16.6049 100.438 16.6049C98.983 16.6049 98.2455 17.8956 98.2455 19.5961ZM111.365 25.0458C114.111 25.0458 116.139 23.8575 116.139 21.5629C116.139 18.879 113.967 18.4078 112.123 18.1005C111.959 18.0701 111.797 18.042 111.639 18.0145C110.516 17.8196 109.603 17.6611 109.603 17.0146C109.603 16.359 110.239 16.0517 111.058 16.0517C111.98 16.0517 112.615 16.3385 112.738 17.281H115.811C115.647 15.2117 114.049 13.921 111.079 13.921C108.599 13.921 106.551 15.0683 106.551 17.281C106.551 19.7395 108.497 20.2312 110.32 20.5385C110.466 20.5642 110.61 20.5884 110.752 20.612C111.965 20.815 112.984 20.9853 112.984 21.8293C112.984 22.5053 112.349 22.8741 111.345 22.8741C110.239 22.8741 109.542 22.3619 109.419 21.3171H106.264C106.366 23.6322 108.292 25.0458 111.365 25.0458ZM123.81 23.4274C123.052 24.4518 122.13 25.0254 120.675 25.0254C118.258 25.0254 116.988 23.4478 116.988 21.1122V14.2283H120.307V20.4157C120.307 21.563 120.819 22.1981 121.884 22.1981C123.031 22.1981 123.728 21.3376 123.728 20.0879V14.2283H127.068V24.7181H123.871V23.4274H123.81ZM128.52 24.718H131.859V18.838C131.859 17.5883 132.474 16.7073 133.519 16.7073C134.523 16.7073 134.994 17.3629 134.994 18.4897V24.718H138.333V18.838C138.333 17.5883 138.927 16.7073 139.993 16.7073C140.997 16.7073 141.468 17.3629 141.468 18.4897V24.718H144.807V17.8956C144.807 15.5395 143.619 13.921 141.243 13.921C139.89 13.921 138.764 14.4946 137.944 15.7649H137.903C137.37 14.638 136.325 13.921 134.953 13.921C133.437 13.921 132.433 14.638 131.777 15.7239H131.716V14.2283H128.52V24.718Z" fill="#626981"/>
</svg>
