<svg width="122" height="39" viewBox="0 0 122 39" fill="none" xmlns="http://www.w3.org/2000/svg">
<path d="M116.123 2.20034C116.123 1.0502 117.055 0.116864 118.205 0.116864H119.595C120.147 0.116864 120.677 0.336372 121.068 0.727099C121.459 1.11783 121.678 1.64777 121.678 2.20034C121.678 2.75291 121.459 3.28285 121.068 3.67357C120.677 4.0643 120.147 4.28381 119.595 4.28381H118.205C117.932 4.28381 117.661 4.22991 117.408 4.12519C117.155 4.02048 116.926 3.867 116.732 3.67351C116.539 3.48003 116.386 3.25035 116.281 2.99757C116.176 2.7448 116.123 2.4739 116.123 2.20034ZM57.7982 14.0041C57.7982 21.673 51.5818 27.8903 43.912 27.8903C36.2431 27.8903 30.0257 21.673 30.0257 14.0041C30.0257 6.33325 36.2431 0.117837 43.912 0.117837C51.5818 0.117837 57.7982 6.33325 57.7982 14.0041ZM27.3171 13.9351C28.0852 13.9351 28.7132 14.5573 28.6364 15.3214C28.374 17.9366 27.3747 20.4235 25.7549 22.4932C24.135 24.5629 21.961 26.1304 19.4856 27.0135C17.0102 27.8967 14.3349 28.0591 11.7708 27.4821C9.2067 26.9051 6.85899 25.6122 5.00054 23.7537C3.14209 21.8953 1.84922 19.5476 1.27217 16.9835C0.695131 14.4193 0.857615 11.7441 1.74074 9.26869C2.62387 6.79326 4.19138 4.61928 6.26109 2.99941C8.3308 1.37955 10.8177 0.380312 13.4328 0.117837C14.196 0.0400587 14.8192 0.670059 14.8192 1.43617V12.5458C14.8192 13.3138 15.4414 13.9351 16.2085 13.9351H27.3171ZM77.2398 30.668C78.3446 30.668 79.4043 31.1069 80.1855 31.8882C80.9668 32.6694 81.4057 33.7291 81.4057 34.8339C81.4057 35.9388 80.9668 36.9985 80.1855 37.7797C79.4043 38.561 78.3446 38.9999 77.2398 38.9999H70.2971C69.1922 38.9999 68.1326 38.561 67.3513 37.7797C66.5701 36.9985 66.1311 35.9388 66.1311 34.8339C66.1311 33.7291 66.5701 32.6694 67.3513 31.8882C68.1326 31.1069 69.1922 30.668 70.2971 30.668H77.2398ZM73.0738 27.8903C80.7437 27.8903 86.961 21.673 86.961 14.0041C86.9643 11.6483 86.3656 9.33082 85.2217 7.27145L87.5162 4.977C87.7804 4.71259 87.9901 4.39871 88.133 4.05329C88.276 3.70786 88.3496 3.33766 88.3495 2.96382C88.3494 2.58997 88.2757 2.2198 88.1325 1.87445C87.9894 1.52909 87.7796 1.21532 87.5152 0.951031C87.2508 0.686746 86.9369 0.477128 86.5915 0.334147C86.246 0.191166 85.8758 0.117621 85.502 0.117711C85.1281 0.117801 84.758 0.191525 84.4126 0.334673C84.0673 0.477821 83.7535 0.68759 83.4892 0.952003L81.4864 2.95478C79.0702 1.10941 76.1131 0.111972 73.0728 0.116864C65.4049 0.117837 59.1885 6.33325 59.1885 14.0041C59.1885 21.673 65.4049 27.8903 73.0738 27.8903ZM116.123 14.0041C116.123 21.673 109.905 27.8903 102.236 27.8903C94.5667 27.8903 88.3493 21.673 88.3493 14.0041C88.3493 6.33325 94.5667 0.117837 102.236 0.117837C109.905 0.117837 116.123 6.33422 116.123 14.0041Z" fill="#626981"/>
</svg>
