<svg width="151" height="32" viewBox="0 0 151 32" fill="none" xmlns="http://www.w3.org/2000/svg">
<path fill-rule="evenodd" clip-rule="evenodd" d="M16.6994 0C7.83981 0 0.657715 6.96445 0.657715 15.5556C9.51729 15.5556 16.6994 8.5911 16.6994 0ZM16.6994 31.1111C7.83981 31.1111 0.657715 24.1467 0.657715 15.5556C9.51729 15.5556 16.6994 22.52 16.6994 31.1111ZM32.741 15.5556C23.8815 15.5556 16.6994 8.5911 16.6994 0C25.559 0 32.741 6.96445 32.741 15.5556ZM32.741 15.5556C23.8815 15.5556 16.6994 22.52 16.6994 31.1111C25.559 31.1111 32.741 24.1467 32.741 15.5556ZM92.2896 9.7329H95.3189V7.06021H92.2896V9.7329ZM92.2896 23.4307H95.3189V11.4034H92.2896V23.4307ZM53.6926 23.4306H43.759V7.39418H46.788V20.602H53.6926V23.4306ZM62.8359 22.9628C61.9227 23.4974 60.8648 23.7647 59.662 23.7647C58.4519 23.7647 57.3902 23.4937 56.477 22.9517C55.5638 22.4097 54.8511 21.6636 54.3388 20.7133C53.834 19.7556 53.5815 18.6568 53.5815 17.417C53.5815 16.1622 53.8414 15.0597 54.3611 14.1095C54.8808 13.1517 55.5973 12.4056 56.5104 11.8711C57.4236 11.3365 58.4741 11.0692 59.662 11.0692C60.8722 11.0692 61.9338 11.3402 62.847 11.8822C63.7676 12.4241 64.484 13.174 64.9963 14.1317C65.5086 15.082 65.7648 16.1771 65.7648 17.417C65.7648 18.6642 65.5049 19.7667 64.9852 20.7245C64.4729 21.6747 63.7565 22.4208 62.8359 22.9628ZM57.5127 19.9895C58.0027 20.6205 58.7191 20.9361 59.662 20.9361C60.6345 20.9361 61.3584 20.6093 61.8336 19.9561C62.3162 19.2953 62.5574 18.449 62.5574 17.417C62.5574 16.3478 62.3124 15.4941 61.8224 14.8556C61.3399 14.2171 60.6198 13.8978 59.662 13.8978C58.6745 13.8978 57.947 14.2245 57.4793 14.8778C57.019 15.5237 56.7888 16.3701 56.7888 17.417C56.7888 18.4935 57.0301 19.351 57.5127 19.9895ZM71.755 23.7647C72.3193 23.7647 72.839 23.6978 73.3142 23.5642C73.7967 23.4306 74.2348 23.2412 74.6283 22.9962V24.2101C74.6431 24.6556 74.528 25.0268 74.283 25.3237C74.0454 25.6282 73.7262 25.8546 73.3253 26.0031C72.9244 26.159 72.4975 26.237 72.0446 26.237C71.6214 26.237 71.2279 26.1441 70.8642 25.9586C70.5078 25.773 70.233 25.502 70.04 25.1456L67.2337 26.5042C67.694 27.2837 68.351 27.9111 69.2048 28.3862C70.0587 28.8688 70.9978 29.1101 72.0223 29.1101C72.9058 29.1101 73.7262 28.9913 74.4835 28.7537C75.2408 28.5236 75.8793 28.171 76.3989 27.6958C76.926 27.2207 77.2862 26.6156 77.4792 25.8806C77.546 25.6207 77.5905 25.3572 77.6128 25.0899C77.6425 24.8301 77.6573 24.5516 77.6573 24.2547V11.4033H75.0069V12.0715C74.5985 11.7522 74.1345 11.5072 73.6148 11.3365C73.1025 11.1583 72.5347 11.0692 71.9109 11.0692C70.7602 11.0692 69.7579 11.344 68.9042 11.8933C68.0504 12.4427 67.3859 13.1962 66.9108 14.154C66.443 15.1043 66.2092 16.192 66.2092 17.417C66.2092 18.6197 66.4393 19.6999 66.8997 20.6576C67.3673 21.6153 68.0169 22.3726 68.8484 22.9295C69.68 23.4862 70.6488 23.7647 71.755 23.7647ZM72.245 21.0697C71.5918 21.0697 71.0572 20.9063 70.6414 20.5797C70.2257 20.253 69.9175 19.815 69.7172 19.2656C69.5167 18.7087 69.4164 18.0926 69.4164 17.417C69.4164 16.7487 69.5204 16.14 69.7283 15.5906C69.9362 15.0337 70.2554 14.592 70.686 14.2653C71.124 13.9312 71.6808 13.7642 72.3564 13.7642C73.3068 13.7642 73.986 14.102 74.3944 14.7776C74.8027 15.4458 75.0069 16.3256 75.0069 17.417C75.0069 18.5083 74.799 19.3918 74.3833 20.0674C73.9749 20.7356 73.2622 21.0697 72.245 21.0697ZM88.0258 22.9628C87.1127 23.4974 86.0547 23.7647 84.8519 23.7647C83.6418 23.7647 82.5802 23.4937 81.6669 22.9517C80.7538 22.4097 80.041 21.6636 79.5288 20.7133C79.0239 19.7556 78.7715 18.6568 78.7715 17.417C78.7715 16.1622 79.0313 15.0597 79.551 14.1095C80.0708 13.1517 80.7872 12.4056 81.7004 11.8711C82.6135 11.3365 83.664 11.0692 84.8519 11.0692C86.0621 11.0692 87.1238 11.3402 88.0369 11.8822C88.9576 12.4241 89.6742 13.174 90.1861 14.1317C90.6989 15.082 90.9544 16.1771 90.9544 17.417C90.9544 18.6642 90.6945 19.7667 90.1747 20.7245C89.6629 21.6747 88.9462 22.4208 88.0258 22.9628ZM82.7026 19.9895C83.1926 20.6205 83.909 20.9361 84.8519 20.9361C85.8245 20.9361 86.5484 20.6093 87.0235 19.9561C87.5061 19.2953 87.7474 18.449 87.7474 17.417C87.7474 16.3478 87.5024 15.4941 87.0124 14.8556C86.5298 14.2171 85.8097 13.8978 84.8519 13.8978C83.8645 13.8978 83.1369 14.2245 82.6693 14.8778C82.2089 15.5237 81.9788 16.3701 81.9788 17.417C81.9788 18.4935 82.22 19.351 82.7026 19.9895ZM100.35 28.7761H97.299V11.4033H99.9721V12.0715C100.38 11.7522 100.84 11.5072 101.353 11.3365C101.873 11.1583 102.444 11.0692 103.068 11.0692C104.219 11.0692 105.22 11.344 106.074 11.8933C106.928 12.4427 107.589 13.1962 108.057 14.154C108.532 15.1043 108.769 16.192 108.769 17.417C108.769 18.6197 108.536 19.6999 108.068 20.6576C107.607 21.6153 106.962 22.3726 106.13 22.9295C105.299 23.4862 104.33 23.7647 103.224 23.7647C102.659 23.7647 102.136 23.6978 101.653 23.5642C101.178 23.4306 100.744 23.2412 100.35 22.9962V28.7761ZM100.595 20.0674C101.012 20.7356 101.724 21.0697 102.734 21.0697C103.387 21.0697 103.922 20.9063 104.338 20.5797C104.753 20.253 105.061 19.815 105.262 19.2656C105.462 18.7087 105.562 18.0926 105.562 17.417C105.562 16.7487 105.458 16.14 105.25 15.5906C105.043 15.0337 104.72 14.592 104.282 14.2653C103.851 13.9312 103.298 13.7642 102.623 13.7642C101.679 13.7642 101 14.102 100.585 14.7776C100.176 15.4458 99.9721 16.3256 99.9721 17.417C99.9721 18.5083 100.18 19.3918 100.595 20.0674ZM114.257 23.7647C115.831 23.7647 117.063 23.412 117.954 22.7067C118.845 22.0014 119.29 21.0326 119.29 19.8001C119.29 18.8647 119.001 18.126 118.422 17.584C117.85 17.042 116.878 16.5928 115.504 16.2365C114.569 15.9989 113.871 15.8058 113.41 15.6574C112.958 15.509 112.657 15.3641 112.508 15.2231C112.367 15.082 112.297 14.9076 112.297 14.6997C112.297 14.3507 112.464 14.0835 112.798 13.8978C113.14 13.7122 113.589 13.638 114.145 13.6751C115.326 13.7642 115.972 14.2691 116.083 15.1897L119.179 14.6328C119.023 13.5415 118.489 12.6766 117.575 12.0381C116.663 11.3922 115.497 11.0692 114.079 11.0692C112.624 11.0692 111.462 11.4107 110.593 12.0937C109.725 12.7768 109.29 13.6974 109.29 14.8556C109.29 15.7762 109.591 16.5037 110.192 17.0383C110.793 17.5655 111.829 18.0183 113.299 18.397C114.168 18.6271 114.806 18.8127 115.215 18.9537C115.63 19.0948 115.898 19.2396 116.016 19.3881C116.135 19.5291 116.195 19.7185 116.195 19.9561C116.195 20.3347 116.046 20.6316 115.749 20.847C115.453 21.0548 115.029 21.1587 114.48 21.1587C113.811 21.1587 113.258 20.9991 112.821 20.6799C112.39 20.3607 112.111 19.919 111.985 19.3547L108.889 19.8224C109.09 21.0771 109.654 22.0497 110.582 22.7401C111.518 23.4232 112.743 23.7647 114.257 23.7647ZM127.151 23.3525C126.504 23.6421 125.747 23.7869 124.878 23.7869C123.936 23.7869 123.167 23.6272 122.573 23.308C121.979 22.9887 121.516 22.5841 121.181 22.0941C120.854 21.6041 120.62 21.0955 120.479 20.5684C120.339 20.0339 120.253 19.5476 120.223 19.1096C120.193 18.6715 120.179 18.3522 120.179 18.1519V11.4032H123.252V17.0827C123.252 17.3575 123.267 17.7101 123.297 18.1407C123.327 18.5639 123.42 18.9907 123.575 19.4214C123.731 19.852 123.984 20.2121 124.333 20.5016C124.689 20.7911 125.191 20.9359 125.836 20.9359C126.096 20.9359 126.374 20.8951 126.671 20.8134C126.969 20.7317 127.247 20.5759 127.507 20.3457C127.767 20.1081 127.978 19.7629 128.141 19.31C128.312 18.8497 128.397 18.2484 128.397 17.5059V11.4032H131.449V23.4305H128.776V22.1944C128.338 22.6769 127.796 23.063 127.151 23.3525ZM133.203 23.4307H136.254V16.1474C136.254 15.4571 136.443 14.8965 136.822 14.4659C137.208 14.0278 137.716 13.8088 138.348 13.8088C139.008 13.8088 139.525 14.0316 139.896 14.4771C140.274 14.9151 140.464 15.5313 140.464 16.3257V23.4307H143.493V16.1474C143.493 15.4571 143.682 14.8965 144.061 14.4659C144.447 14.0278 144.955 13.8088 145.586 13.8088C146.247 13.8088 146.763 14.0316 147.134 14.4771C147.513 14.9151 147.702 15.5313 147.702 16.3257V23.4307H150.731V15.5238C150.731 14.2098 150.378 13.1481 149.673 12.3388C148.976 11.5222 147.94 11.1138 146.566 11.1138C145.794 11.1138 145.085 11.2809 144.439 11.6149C143.793 11.9491 143.278 12.4057 142.891 12.9848C142.579 12.4206 142.134 11.9677 141.555 11.6261C140.975 11.2846 140.255 11.1138 139.394 11.1138C138.666 11.1138 137.999 11.2586 137.39 11.5482C136.781 11.8303 136.276 12.2201 135.875 12.7174V11.4034H133.203V23.4307Z" fill="#626981"/>
</svg>
