<svg width="24" height="24" viewBox="0 0 24 24" fill="none" xmlns="http://www.w3.org/2000/svg">
<path d="M14.2236 11.7818L10.8208 13.7263V9.8374L14.2236 11.7818Z" fill="#2DA884" stroke="#2DA884" stroke-width="1.45833" stroke-linecap="round" stroke-linejoin="round"/>
<path d="M2.55615 12.4651V11.0894C2.55615 8.27486 2.55615 6.86708 3.43601 5.96194C4.31685 5.05583 5.70323 5.01694 8.47504 4.93819C9.78754 4.90125 11.1292 4.875 12.2784 4.875C13.4266 4.875 14.7682 4.90125 16.0817 4.93819C18.8535 5.01694 20.2399 5.05583 21.1198 5.96194C22.0006 6.86708 22.0006 8.27583 22.0006 11.0894V12.4651C22.0006 15.2807 22.0006 16.6875 21.1207 17.5936C20.2399 18.4987 18.8545 18.5386 16.0817 18.6164C14.7692 18.6543 13.4275 18.6806 12.2784 18.6806C11.0104 18.6767 9.74246 18.6554 8.47504 18.6164C5.70323 18.5386 4.31685 18.4997 3.43601 17.5936C2.55615 16.6875 2.55615 15.2797 2.55615 12.4661V12.4651Z" stroke="#2DA884" stroke-width="1.45833"/>
</svg>
